<svg xmlns="http://www.w3.org/2000/svg" xmlns:xlink="http://www.w3.org/1999/xlink" xmlns:lucid="lucid" width="1275" height="503"><g transform="translate(-40 -1775)" lucid:page-tab-id="0_0"><path d="M350 2099h120v120H350zM60 1900h220v160H60z" stroke="#000" stroke-width="2" fill-opacity="0"/><path d="M60 1780h460v60H60z" stroke="#000" stroke-opacity="0" stroke-width="2" fill="#fff" fill-opacity="0"/><use xlink:href="#a" transform="matrix(1,0,0,1,65,1785) translate(111.7222222222222 33)"/><use xlink:href="#b" transform="matrix(1,0,0,1,65,1785) translate(260.5 33)"/><path d="M350 2222h120v58H350z" stroke="#000" stroke-opacity="0" stroke-width="2" fill="#fff" fill-opacity="0"/><use xlink:href="#c" transform="matrix(1,0,0,1,355,2227) translate(29.938271604938272 30.22222222222222)"/><path d="M300 1900h220v160H300z" stroke="#000" stroke-width="2" fill-opacity="0"/><path d="M60 1840h220v58H60z" stroke="#000" stroke-opacity="0" stroke-width="2" fill="#fff" fill-opacity="0"/><use xlink:href="#d" transform="matrix(1,0,0,1,64.99999999999999,1845) translate(27.722222222222214 32)"/><path d="M300 1840h220v58H300z" stroke="#000" stroke-opacity="0" stroke-width="2" fill="#fff" fill-opacity="0"/><use xlink:href="#e" transform="matrix(1,0,0,1,305,1845) translate(51.111111111111114 32)"/><path d="M60 2160.5c0-21.26 17.24-38.5 38.5-38.5h213c21.26 0 38.5 17.24 38.5 38.5s-17.24 38.5-38.5 38.5h-213c-21.26 0-38.5-17.24-38.5-38.5z" fill-opacity="0"/><path d="M60.7 2153.5l.6-2.9.97-2.93m1.54-3.7l1.26-2.56 1.77-2.67m2.45-3.18l1.83-2.1 2.45-2.17m3.2-2.45l2.25-1.54 2.95-1.5m3.72-1.53l2.46-.86 3.37-.7m4-.5l2.52-.2h3.52m4.06 0h6.1m4.04 0h6.1m4.05 0h6.07m4.06 0h6.08m4.07 0h6.1m4.04 0h6.1m4.06 0h6.08m4.06 0h6.1m4.04 0h6.1m4.05 0h6.07m4.06 0h6.08m4.07 0h6.1m4.04 0h6.1m4.06 0h6.08m4.06 0h6.1m4.04 0h6.1m4.05 0h6.07m4.06 0h6.08m4.07 0h6.1m4.04 0h6.1m4.06 0h3.04l3.02.2m3.98.5l2.9.6 2.93.97m3.7 1.54l2.56 1.26 2.67 1.77m3.18 2.45l2.1 1.83 2.17 2.45m2.45 3.2l1.54 2.25 1.5 2.95m1.53 3.72l.86 2.46.7 3.37m.5 4l.2 2.52v.48l-.2 3.02m-.5 3.98l-.6 2.9-.97 2.93m-1.54 3.7l-1.26 2.56-1.77 2.67m-2.45 3.18l-1.83 2.1-2.45 2.17m-3.2 2.45l-2.25 1.54-2.95 1.5m-3.72 1.53l-2.46.86-3.37.7m-4 .5l-2.52.2h-3.52m-4.06 0h-6.1m-4.04 0h-6.1m-4.05 0h-6.07m-4.06 0h-6.08m-4.07 0h-6.1m-4.04 0h-6.1m-4.06 0h-6.08m-4.06 0h-6.1m-4.04 0h-6.1m-4.05 0h-6.07m-4.06 0h-6.08m-4.07 0h-6.1m-4.04 0h-6.1m-4.06 0h-6.08m-4.06 0h-6.1m-4.04 0h-6.1m-4.05 0h-6.07m-4.06 0h-6.08m-4.07 0h-6.1m-4.04 0h-6.1m-4.06 0H98.5l-3.02-.2m-3.98-.5l-2.9-.6-2.93-.97m-3.7-1.54l-2.56-1.26-2.67-1.77m-3.18-2.45l-2.1-1.83-2.17-2.45m-2.45-3.2L65.3 2180l-1.5-2.95m-1.53-3.72l-.86-2.46-.7-3.37m-.5-4L60 2161v-.48l.2-3.02" stroke="#000" stroke-width="2" fill="none"/><path d="M160 1977.9c0 20.92-17.9 37.9-40 37.9s-40-16.98-40-37.9c0-20.93 17.9-37.9 40-37.9s40 16.97 40 37.9z" stroke="#000" stroke-width="2" fill-opacity="0"/><use xlink:href="#f" transform="matrix(1,0,0,1,80,1940) translate(15.555555555555557 49.5)"/><path d="M260 1977.9c0 20.92-17.9 37.9-40 37.9s-40-16.98-40-37.9c0-20.93 17.9-37.9 40-37.9s40 16.97 40 37.9z" stroke="#000" stroke-width="2" fill-opacity="0"/><use xlink:href="#g" transform="matrix(1,0,0,1,180,1940) translate(15.555555555555557 49.5)"/><path d="M450 2161.1c0 20.93-17.9 37.9-40 37.9s-40-16.97-40-37.9c0-20.92 17.9-37.9 40-37.9s40 16.98 40 37.9z" stroke="#000" stroke-width="2" fill-opacity="0"/><use xlink:href="#h" transform="matrix(1,0,0,1,370,2123.2105263157887) translate(15.555555555555557 49.5)"/><path d="M370 2159c0 20.43-17.9 37-40 37s-40-16.57-40-37 17.9-37 40-37 40 16.57 40 37z" stroke="#000" stroke-width="2" fill="#fff"/><use xlink:href="#i" transform="matrix(1,0,0,1,290,2122) translate(14.5 49)"/><path d="M190 2119c0 20.43-17.9 37-40 37s-40-16.57-40-37 17.9-37 40-37 40 16.57 40 37z" stroke="#000" stroke-width="2" fill="#fff"/><use xlink:href="#j" transform="matrix(1,0,0,1,110,2082) translate(14.5 49)"/><path d="M250 2199c0 20.43-17.9 37-40 37s-40-16.57-40-37 17.9-37 40-37 40 16.57 40 37z" stroke="#000" stroke-width="2" fill="#fff"/><use xlink:href="#k" transform="matrix(1,0,0,1,170,2162) translate(14.5 49)"/><path d="M600 2040h120v-20l40 40-40 40v-20H600z" stroke="#000" stroke-width="2" fill-opacity="0"/><path d="M526 1880h292v202H526z" fill="#fff" fill-opacity="0"/><path d="M539.63 1880h11.68m7.8 0h11.67m7.8 0h11.67m7.8 0h11.67m7.8 0h11.67m7.8 0h11.67m7.8 0h11.67m7.8 0h11.67m7.8 0h11.67m7.8 0h11.67m7.8 0h11.67m7.8 0h11.67m7.8 0h11.67m7.8 0h11.67m7.8 0H818v6.06m0 8.08v12.12m0 8.08v12.12m0 8.08v12.12m0 8.08v12.12m0 8.08v12.12m0 8.08v12.12m0 8.08v12.12m0 8.08v12.12m0 8.08v12.12m0 8.08v6.06h-5.84m-7.8 0H792.7m-7.8 0h-11.67m-7.8 0h-11.67m-7.8 0H734.3m-7.8 0h-11.67m-7.8 0h-11.67m-7.8 0H675.9m-7.8 0h-11.67m-7.8 0h-11.67m-7.8 0H617.5m-7.8 0h-11.67m-7.8 0h-11.67m-7.8 0H559.1m-7.8 0h-11.67m-7.8 0H526v-6.06m0-8.08v-12.12m0-8.08v-12.12m0-8.08v-12.12m0-8.08v-12.12m0-8.08v-12.12m0-8.08v-12.12m0-8.08v-12.12m0-8.08v-12.12m0-8.08v-12.12m0-8.08V1880h5.84" stroke="#000" stroke-opacity="0" stroke-width="4" fill="none"/><use xlink:href="#l" transform="matrix(1,0,0,1,531,1885) translate(53.33333333333333 80)"/><use xlink:href="#m" transform="matrix(1,0,0,1,531,1885) translate(115.44444444444444 80)"/><use xlink:href="#n" transform="matrix(1,0,0,1,531,1885) translate(58.83333333333334 128)"/><use xlink:href="#o" transform="matrix(1,0,0,1,531,1885) translate(114.3888888888889 128)"/><path d="M1130 2099h120v120h-120zM840 1900h220v160H840z" stroke="#000" stroke-width="2" fill-opacity="0"/><path d="M840 1780h460v60H840z" stroke="#000" stroke-opacity="0" stroke-width="2" fill="#fff" fill-opacity="0"/><use xlink:href="#a" transform="matrix(1,0,0,1,845,1785) translate(111.7222222222222 33)"/><use xlink:href="#b" transform="matrix(1,0,0,1,845,1785) translate(260.5 33)"/><path d="M1130 2222h120v58h-120z" stroke="#000" stroke-opacity="0" stroke-width="2" fill="#fff" fill-opacity="0"/><use xlink:href="#c" transform="matrix(1,0,0,1,1135,2227) translate(29.938271604938272 30.22222222222222)"/><path d="M1080 1900h220v160h-220z" stroke="#000" stroke-width="2" fill-opacity="0"/><path d="M840 1840h220v58H840z" stroke="#000" stroke-opacity="0" stroke-width="2" fill="#fff" fill-opacity="0"/><use xlink:href="#d" transform="matrix(1,0,0,1,845,1845) translate(27.722222222222214 32)"/><path d="M1080 1840h220v58h-220z" stroke="#000" stroke-opacity="0" stroke-width="2" fill="#fff" fill-opacity="0"/><use xlink:href="#e" transform="matrix(1,0,0,1,1085,1845) translate(51.111111111111114 32)"/><path d="M840 2160.5c0-21.26 17.24-38.5 38.5-38.5h213c21.26 0 38.5 17.24 38.5 38.5s-17.24 38.5-38.5 38.5h-213c-21.26 0-38.5-17.24-38.5-38.5z" fill-opacity="0"/><path d="M840.7 2153.5l.6-2.9.97-2.93m1.54-3.7l1.26-2.56 1.77-2.67m2.45-3.18l1.83-2.1 2.45-2.17m3.2-2.45l2.25-1.54 2.95-1.5m3.72-1.53l2.46-.86 3.37-.7m4-.5l2.52-.2h3.52m4.06 0h6.1m4.04 0h6.1m4.05 0h6.07m4.06 0h6.08m4.07 0h6.1m4.04 0h6.1m4.06 0h6.08m4.06 0h6.1m4.04 0h6.1m4.05 0h6.07m4.06 0h6.08m4.07 0h6.1m4.04 0h6.1m4.06 0h6.08m4.06 0h6.1m4.04 0h6.1m4.05 0h6.07m4.06 0h6.08m4.07 0h6.1m4.04 0h6.1m4.06 0h3.04l3.02.2m3.98.5l2.9.6 2.93.97m3.7 1.54l2.56 1.26 2.67 1.77m3.18 2.45l2.1 1.83 2.17 2.45m2.45 3.2l1.54 2.25 1.5 2.95m1.53 3.72l.86 2.46.7 3.37m.5 4l.2 2.52v.48l-.2 3.02m-.5 3.98l-.6 2.9-.97 2.93m-1.54 3.7l-1.26 2.56-1.77 2.67m-2.45 3.18l-1.83 2.1-2.45 2.17m-3.2 2.45l-2.25 1.54-2.95 1.5m-3.72 1.53l-2.46.86-3.37.7m-4 .5l-2.52.2h-3.52m-4.06 0h-6.1m-4.04 0h-6.1m-4.05 0h-6.07m-4.06 0h-6.08m-4.07 0h-6.1m-4.04 0h-6.1m-4.06 0h-6.08m-4.06 0h-6.1m-4.04 0h-6.1m-4.05 0h-6.07m-4.06 0h-6.08m-4.07 0h-6.1m-4.04 0h-6.1m-4.06 0h-6.08m-4.06 0h-6.1m-4.04 0h-6.1m-4.05 0h-6.07m-4.06 0h-6.08m-4.07 0h-6.1m-4.04 0h-6.1m-4.06 0h-3.04l-3.02-.2m-3.98-.5l-2.9-.6-2.93-.97m-3.7-1.54l-2.56-1.26-2.67-1.77m-3.18-2.45l-2.1-1.83-2.17-2.45m-2.45-3.2l-1.54-2.25-1.5-2.95m-1.53-3.72l-.86-2.46-.7-3.37m-.5-4l-.2-2.52v-.48l.2-3.02" stroke="#000" stroke-width="2" fill="none"/><path d="M940 1977.9c0 20.92-17.9 37.9-40 37.9s-40-16.98-40-37.9c0-20.93 17.9-37.9 40-37.9s40 16.97 40 37.9z" stroke="#000" stroke-width="2" fill-opacity="0"/><use xlink:href="#f" transform="matrix(1,0,0,1,860,1940) translate(15.555555555555557 49.5)"/><path d="M1230 2157.9c0 20.92-17.9 37.9-40 37.9s-40-16.98-40-37.9c0-20.93 17.9-37.9 40-37.9s40 16.97 40 37.9z" stroke="#000" stroke-width="2" fill-opacity="0"/><use xlink:href="#g" transform="matrix(1,0,0,1,1150,2120) translate(15.555555555555557 49.5)"/><path d="M1270 1981.1c0 20.93-17.9 37.9-40 37.9s-40-16.97-40-37.9c0-20.92 17.9-37.9 40-37.9s40 16.98 40 37.9z" stroke="#000" stroke-width="2" fill-opacity="0"/><use xlink:href="#h" transform="matrix(1,0,0,1,1190,1943.210526315789) translate(15.555555555555557 49.5)"/><path d="M1190 1979c0 20.43-17.9 37-40 37s-40-16.57-40-37 17.9-37 40-37 40 16.57 40 37z" stroke="#000" stroke-width="2" fill="#fff"/><use xlink:href="#i" transform="matrix(1,0,0,1,1110,1942.0000000000002) translate(14.5 49)"/><path d="M890 2159c0 20.43-17.9 37-40 37s-40-16.57-40-37 17.9-37 40-37 40 16.57 40 37z" stroke="#000" stroke-width="2" fill="#fff"/><g><use xlink:href="#j" transform="matrix(1,0,0,1,810,2122) translate(14.5 49)"/></g><path d="M1150 2159c0 20.43-17.9 37-40 37s-40-16.57-40-37 17.9-37 40-37 40 16.57 40 37z" stroke="#000" stroke-width="2" fill="#fff"/><g><use xlink:href="#k" transform="matrix(1,0,0,1,1070,2121.9999999999995) translate(14.5 49)"/></g><defs><path d="M115-194c53 0 69 39 70 98 0 66-23 100-70 100C84 3 66-7 56-30L54 0H23l1-261h32v101c10-23 28-34 59-34zm-8 174c40 0 45-34 45-75 0-40-5-75-45-74-42 0-51 32-51 76 0 43 10 73 51 73" id="p"/><path d="M24 0v-261h32V0H24" id="q"/><path d="M100-194c62-1 85 37 85 99 1 63-27 99-86 99S16-35 15-95c0-66 28-99 85-99zM99-20c44 1 53-31 53-75 0-43-8-75-51-75s-53 32-53 75 10 74 51 75" id="r"/><path d="M96-169c-40 0-48 33-48 73s9 75 48 75c24 0 41-14 43-38l32 2c-6 37-31 61-74 61-59 0-76-41-82-99-10-93 101-131 147-64 4 7 5 14 7 22l-32 3c-4-21-16-35-41-35" id="s"/><path d="M143 0L79-87 56-68V0H24v-261h32v163l83-92h37l-77 82L181 0h-38" id="t"/><path d="M100-194c63 0 86 42 84 106H49c0 40 14 67 53 68 26 1 43-12 49-29l28 8c-11 28-37 45-77 45C44 4 14-33 15-96c1-61 26-98 85-98zm52 81c6-60-76-77-97-28-3 7-6 17-6 28h103" id="u"/><path d="M85-194c31 0 48 13 60 33l-1-100h32l1 261h-30c-2-10 0-23-3-31C134-8 116 4 85 4 32 4 16-35 15-94c0-66 23-100 70-100zm9 24c-40 0-46 34-46 75 0 40 6 74 45 74 42 0 51-32 51-76 0-42-9-74-50-73" id="v"/><g id="a"><use transform="matrix(0.1111111111111111,0,0,0.1111111111111111,0,0)" xlink:href="#p"/><use transform="matrix(0.1111111111111111,0,0,0.1111111111111111,22.22222222222222,0)" xlink:href="#q"/><use transform="matrix(0.1111111111111111,0,0,0.1111111111111111,31,0)" xlink:href="#r"/><use transform="matrix(0.1111111111111111,0,0,0.1111111111111111,53.22222222222222,0)" xlink:href="#s"/><use transform="matrix(0.1111111111111111,0,0,0.1111111111111111,73.22222222222223,0)" xlink:href="#t"/><use transform="matrix(0.1111111111111111,0,0,0.1111111111111111,93.22222222222223,0)" xlink:href="#u"/><use transform="matrix(0.1111111111111111,0,0,0.1111111111111111,115.44444444444446,0)" xlink:href="#v"/></g><path d="M117-194c89-4 53 116 60 194h-32v-121c0-31-8-49-39-48C34-167 62-67 57 0H25l-1-190h30c1 10-1 24 2 32 11-22 29-35 61-36" id="w"/><path d="M33 0v-38h34V0H33" id="x"/><g id="b"><use transform="matrix(0.1111111111111111,0,0,0.1111111111111111,0,0)" xlink:href="#r"/><use transform="matrix(0.1111111111111111,0,0,0.1111111111111111,22.22222222222222,0)" xlink:href="#w"/><use transform="matrix(0.1111111111111111,0,0,0.1111111111111111,44.44444444444444,0)" xlink:href="#x"/><use transform="matrix(0.1111111111111111,0,0,0.1111111111111111,55.55555555555556,0)" xlink:href="#x"/><use transform="matrix(0.1111111111111111,0,0,0.1111111111111111,66.66666666666667,0)" xlink:href="#x"/></g><path d="M115-194c55 1 70 41 70 98S169 2 115 4C84 4 66-9 55-30l1 105H24l-1-265h31l2 30c10-21 28-34 59-34zm-8 174c40 0 45-34 45-75s-6-73-45-74c-42 0-51 32-51 76 0 43 10 73 51 73" id="y"/><path d="M84 4C-5 8 30-112 23-190h32v120c0 31 7 50 39 49 72-2 45-101 50-169h31l1 190h-30c-1-10 1-25-2-33-11 22-28 36-60 37" id="z"/><g id="c"><use transform="matrix(0.08641975308641976,0,0,0.08641975308641976,0,0)" xlink:href="#s"/><use transform="matrix(0.08641975308641976,0,0,0.08641975308641976,15.555555555555557,0)" xlink:href="#y"/><use transform="matrix(0.08641975308641976,0,0,0.08641975308641976,32.839506172839506,0)" xlink:href="#z"/></g><path d="M145-31C134-9 116 4 85 4 32 4 16-35 15-94c0-59 17-99 70-100 32-1 48 14 60 33 0-11-1-24 2-32h30l-1 268h-32zM93-21c41 0 51-33 51-76s-8-73-50-73c-40 0-46 35-46 75s5 74 45 74" id="A"/><g id="d"><use transform="matrix(0.1111111111111111,0,0,0.1111111111111111,0,0)" xlink:href="#v"/><use transform="matrix(0.1111111111111111,0,0,0.1111111111111111,22.22222222222222,0)" xlink:href="#u"/><use transform="matrix(0.1111111111111111,0,0,0.1111111111111111,44.44444444444444,0)" xlink:href="#A"/><use transform="matrix(0.1111111111111111,0,0,0.1111111111111111,66.66666666666666,0)" xlink:href="#z"/><use transform="matrix(0.1111111111111111,0,0,0.1111111111111111,88.88888888888889,0)" xlink:href="#u"/><use transform="matrix(0.1111111111111111,0,0,0.1111111111111111,111.11111111111111,0)" xlink:href="#z"/><use transform="matrix(0.1111111111111111,0,0,0.1111111111111111,133.33333333333334,0)" xlink:href="#u"/></g><path d="M210-169c-67 3-38 105-44 169h-31v-121c0-29-5-50-35-48C34-165 62-65 56 0H25l-1-190h30c1 10-1 24 2 32 10-44 99-50 107 0 11-21 27-35 58-36 85-2 47 119 55 194h-31v-121c0-29-5-49-35-48" id="B"/><path d="M59-47c-2 24 18 29 38 22v24C64 9 27 4 27-40v-127H5v-23h24l9-43h21v43h35v23H59v120" id="C"/><path d="M141 0L90-78 38 0H4l68-98-65-92h35l48 74 47-74h35l-64 92 68 98h-35" id="D"/><g id="e"><use transform="matrix(0.1111111111111111,0,0,0.1111111111111111,0,0)" xlink:href="#B"/><use transform="matrix(0.1111111111111111,0,0,0.1111111111111111,33.22222222222222,0)" xlink:href="#z"/><use transform="matrix(0.1111111111111111,0,0,0.1111111111111111,55.44444444444444,0)" xlink:href="#C"/><use transform="matrix(0.1111111111111111,0,0,0.1111111111111111,66.55555555555556,0)" xlink:href="#u"/><use transform="matrix(0.1111111111111111,0,0,0.1111111111111111,88.77777777777777,0)" xlink:href="#D"/></g><path d="M194 0L95-120 63-95V0H30v-248h33v124l119-124h40L117-140 236 0h-42" id="E"/><path d="M27 0v-27h64v-190l-56 39v-29l58-41h29v221h61V0H27" id="F"/><g id="f"><use transform="matrix(0.1111111111111111,0,0,0.1111111111111111,0,0)" xlink:href="#E"/><use transform="matrix(0.1111111111111111,0,0,0.1111111111111111,26.666666666666664,0)" xlink:href="#F"/></g><path d="M101-251c82-7 93 87 43 132L82-64C71-53 59-42 53-27h129V0H18c2-99 128-94 128-182 0-28-16-43-45-43s-46 15-49 41l-32-3c6-41 34-60 81-64" id="G"/><g id="g"><use transform="matrix(0.1111111111111111,0,0,0.1111111111111111,0,0)" xlink:href="#E"/><use transform="matrix(0.1111111111111111,0,0,0.1111111111111111,26.666666666666664,0)" xlink:href="#G"/></g><path d="M126-127c33 6 58 20 58 59 0 88-139 92-164 29-3-8-5-16-6-25l32-3c6 27 21 44 54 44 32 0 52-15 52-46 0-38-36-46-79-43v-28c39 1 72-4 72-42 0-27-17-43-46-43-28 0-47 15-49 41l-32-3c6-42 35-63 81-64 48-1 79 21 79 65 0 36-21 52-52 59" id="H"/><g id="h"><use transform="matrix(0.1111111111111111,0,0,0.1111111111111111,0,0)" xlink:href="#E"/><use transform="matrix(0.1111111111111111,0,0,0.1111111111111111,26.666666666666664,0)" xlink:href="#H"/></g><path d="M232-93c-1 65-40 97-104 97C67 4 28-28 28-90v-158h33c8 89-33 224 67 224 102 0 64-133 71-224h33v155" id="I"/><g id="i"><use transform="matrix(0.1111111111111111,0,0,0.1111111111111111,0,0)" xlink:href="#I"/><use transform="matrix(0.1111111111111111,0,0,0.1111111111111111,28.777777777777775,0)" xlink:href="#F"/></g><g id="j"><use transform="matrix(0.1111111111111111,0,0,0.1111111111111111,0,0)" xlink:href="#I"/><use transform="matrix(0.1111111111111111,0,0,0.1111111111111111,28.777777777777775,0)" xlink:href="#G"/></g><g id="k"><use transform="matrix(0.1111111111111111,0,0,0.1111111111111111,0,0)" xlink:href="#I"/><use transform="matrix(0.1111111111111111,0,0,0.1111111111111111,28.777777777777775,0)" xlink:href="#H"/></g><g id="l"><use transform="matrix(0.1111111111111111,0,0,0.1111111111111111,0,0)" xlink:href="#I"/><use transform="matrix(0.1111111111111111,0,0,0.1111111111111111,28.777777777777775,0)" xlink:href="#F"/></g><path d="M135-143c-3-34-86-38-87 0 15 53 115 12 119 90S17 21 10-45l28-5c4 36 97 45 98 0-10-56-113-15-118-90-4-57 82-63 122-42 12 7 21 19 24 35" id="J"/><g id="m"><use transform="matrix(0.1111111111111111,0,0,0.1111111111111111,0,0)" xlink:href="#p"/><use transform="matrix(0.1111111111111111,0,0,0.1111111111111111,22.22222222222222,0)" xlink:href="#q"/><use transform="matrix(0.1111111111111111,0,0,0.1111111111111111,31,0)" xlink:href="#r"/><use transform="matrix(0.1111111111111111,0,0,0.1111111111111111,53.22222222222222,0)" xlink:href="#s"/><use transform="matrix(0.1111111111111111,0,0,0.1111111111111111,73.22222222222223,0)" xlink:href="#t"/><use transform="matrix(0.1111111111111111,0,0,0.1111111111111111,93.22222222222223,0)" xlink:href="#J"/></g><g id="n"><use transform="matrix(0.1111111111111111,0,0,0.1111111111111111,0,0)" xlink:href="#r"/><use transform="matrix(0.1111111111111111,0,0,0.1111111111111111,22.22222222222222,0)" xlink:href="#w"/></g><g id="o"><use transform="matrix(0.1111111111111111,0,0,0.1111111111111111,0,0)" xlink:href="#B"/><use transform="matrix(0.1111111111111111,0,0,0.1111111111111111,33.22222222222222,0)" xlink:href="#z"/><use transform="matrix(0.1111111111111111,0,0,0.1111111111111111,55.44444444444444,0)" xlink:href="#C"/><use transform="matrix(0.1111111111111111,0,0,0.1111111111111111,66.55555555555556,0)" xlink:href="#u"/><use transform="matrix(0.1111111111111111,0,0,0.1111111111111111,88.77777777777777,0)" xlink:href="#D"/></g></defs></g></svg>