<svg xmlns="http://www.w3.org/2000/svg" xmlns:xlink="http://www.w3.org/1999/xlink" xmlns:lucid="lucid" width="1328.5" height="1138"><g transform="translate(-19.999999999999986 -183)" lucid:page-tab-id="0_0"><path d="M140 460h120v120H140zM40 260h220v160H40z" stroke="#000" stroke-width="2" fill-opacity="0"/><path d="M40 203h220v58H40z" stroke="#000" stroke-opacity="0" stroke-width="2" fill="#fff" fill-opacity="0"/><use xlink:href="#a" transform="matrix(1,0,0,1,44.999999999999986,208) translate(36.66666666666666 32)"/><path d="M140 583h120v58H140z" stroke="#000" stroke-opacity="0" stroke-width="2" fill="#fff" fill-opacity="0"/><use xlink:href="#b" transform="matrix(1,0,0,1,145,588) translate(11.833333333333336 30.22222222222222)"/><use xlink:href="#c" transform="matrix(1,0,0,1,145,588) translate(80.88271604938271 30.22222222222222)"/><path d="M280 460h120v120H280z" stroke="#000" stroke-width="2" fill-opacity="0"/><path d="M280 583h120v58H280z" stroke="#000" stroke-opacity="0" stroke-width="2" fill="#fff" fill-opacity="0"/><use xlink:href="#b" transform="matrix(1,0,0,1,285,588) translate(11.833333333333336 30.22222222222222)"/><use xlink:href="#d" transform="matrix(1,0,0,1,285,588) translate(80.88271604938271 30.22222222222222)"/><path d="M280 260h220v160H280z" stroke="#000" stroke-width="2" fill-opacity="0"/><path d="M280 203h220v58H280z" stroke="#000" stroke-opacity="0" stroke-width="2" fill="#fff" fill-opacity="0"/><use xlink:href="#e" transform="matrix(1,0,0,1,285,208) translate(55.55555555555556 32)"/><path d="M940 460h120v120H940zM840 260h220v160H840z" stroke="#000" stroke-width="2" fill-opacity="0"/><path d="M840 203h220v58H840z" stroke="#000" stroke-opacity="0" stroke-width="2" fill="#fff" fill-opacity="0"/><use xlink:href="#a" transform="matrix(1,0,0,1,845,208) translate(36.66666666666666 32)"/><path d="M940 583h120v58H940z" stroke="#000" stroke-opacity="0" stroke-width="2" fill="#fff" fill-opacity="0"/><use xlink:href="#b" transform="matrix(1,0,0,1,945,588) translate(11.833333333333336 30.22222222222222)"/><use xlink:href="#c" transform="matrix(1,0,0,1,945,588) translate(80.88271604938271 30.22222222222222)"/><path d="M1080 460h120v120h-120z" stroke="#000" stroke-width="2" fill-opacity="0"/><path d="M1080 583h120v58h-120z" stroke="#000" stroke-opacity="0" stroke-width="2" fill="#fff" fill-opacity="0"/><use xlink:href="#b" transform="matrix(1,0,0,1,1085,588) translate(11.833333333333336 30.22222222222222)"/><use xlink:href="#d" transform="matrix(1,0,0,1,1085,588) translate(80.88271604938271 30.22222222222222)"/><path d="M1080 260h220v160h-220z" stroke="#000" stroke-width="2" fill-opacity="0"/><path d="M1080 203h220v58h-220z" stroke="#000" stroke-opacity="0" stroke-width="2" fill="#fff" fill-opacity="0"/><use xlink:href="#e" transform="matrix(1,0,0,1,1085,208) translate(55.55555555555556 32)"/><path d="M430 337.9c0 20.92-17.9 37.9-40 37.9s-40-16.98-40-37.9c0-20.93 17.9-37.9 40-37.9s40 16.97 40 37.9z" stroke="#000" stroke-width="2" fill-opacity="0"/><use xlink:href="#f" transform="matrix(1,0,0,1,350,300) translate(27.833333333333336 49.5)"/><path d="M240 520c0 20.93-17.9 37.9-40 37.9s-40-16.97-40-37.9 17.9-37.9 40-37.9 40 16.97 40 37.9z" stroke="#000" stroke-width="2" fill-opacity="0"/><use xlink:href="#g" transform="matrix(1,0,0,1,160,482.10526315789474) translate(15.555555555555557 49.5)"/><path d="M380 519.9c0 20.92-17.9 37.9-40 37.9s-40-16.98-40-37.9c0-20.93 17.9-37.9 40-37.9s40 16.97 40 37.9z" stroke="#000" stroke-width="2" fill-opacity="0"/><use xlink:href="#h" transform="matrix(1,0,0,1,300,481.99999999999994) translate(15.555555555555557 49.5)"/><path d="M390 376.8l-170.3 73.67" fill="none"/><path d="M390 376.8l-5.68 2.45m-7.57 3.27l-11.35 4.9m-7.57 3.3l-11.35 4.9m-7.57 3.28l-11.34 4.9M320 407.1l-11.36 4.9m-7.57 3.3l-11.35 4.9m-7.57 3.28l-11.36 4.9m-7.57 3.28l-11.36 4.92m-7.57 3.27l-11.35 4.9m-7.57 3.3l-5.67 2.44" stroke="#000" stroke-width="4" fill="none"/><path d="M393.55 377.43l-2.76 1.2-1.24-2.87.44.03 2.8-.1zM220.87 455.02l-14.93 1.4 11.25-9.9z"/><path d="M223.8 456.75L200 459l17.93-15.8zm-11.92-2.9l6.06-.56-1.5-3.47z"/><path d="M390 376.8l-38.84 63.85" fill="none"/><path d="M390 376.8l-2.9 4.78m-3.9 6.4l-5.82 9.57m-3.9 6.38l-5.8 9.58m-3.9 6.4l-5.82 9.58m-3.9 6.38l-2.9 4.8" stroke="#000" stroke-width="4" fill="none"/><path d="M391.7 377.83l-3.4-2.08.03-.06 1.67.1 3-.12zM354.74 443.7l-11.38 9.77 3.46-14.6z"/><path d="M358.13 443.4L340 459l5.5-23.27zm-11.4 4.54l4.62-3.97-3.22-1.96z"/><path d="M159 520l-8.53-5.06-7.15-5.07-5.96-5.02-4.96-4.9-4.1-4.8-3.32-4.6-2.67-4.42-2.1-4.22-1.58-4-1.16-3.77-.78-3.55-.45-3.34-.16-3.1.1-2.92.3-2.7.5-2.52.66-2.34.8-2.18.97-2.02 1.08-1.9 1.2-1.73 1.34-1.63 1.45-1.5 1.58-1.38 1.72-1.28 1.86-1.15 2.03-1.05 2.2-.92 2.42-.77 2.65-.62 2.93-.43 3.25-.2 3.65.07 4.08.4 4.62.87 5.28 1.43 6.07 2.2 7.05 3.2 6.54 3.67" fill="none"/><path d="M159 520l-5.15-3.05m-6.68-4.35l-3.85-2.73-5.54-4.67m-5.67-5.6l-3.8-4.44-3.32-4.6-.22-.4m-3.9-6.95l-.65-1.3-1.58-4-1.16-3.77-.48-2.2m-.9-7.9l.08-2.8.3-2.7.5-2.53.67-2.34.5-1.35m3.9-6.9l1-1.2 1.44-1.5 1.58-1.38 1.72-1.28 1.86-1.15 1.7-.9m7.56-2.45h.03l2.93-.44 3.25-.2 3.65.07 2.06.2m7.86 1.4l4.07 1.1 6.07 2.2 1.17.52m7.2 3.42l5.22 2.92" stroke="#000" stroke-width="4" fill="none"/><path d="M160.1 518.33L160 520l.1 2.58.06.52-2.23-1.4 2.13-3.4zM194.7 455.3l-14.37-4.34 5.3-7.6z"/><path d="M200 459l-22.88-6.93 8.44-12.12zm-16.45-9.16l5.83 1.76-3.68-4.85z"/><path d="M381 519.9l7.36-4.23 6.4-4.4 5.54-4.53 4.8-4.62 4.1-4.66 3.47-4.68 2.9-4.65 2.36-4.6 1.86-4.48 1.4-4.36.97-4.2.6-4 .23-3.76-.06-3.53-.33-3.27-.55-3.04-.75-2.8-.92-2.55-1.07-2.34-1.18-2.1-1.3-1.94-1.4-1.76-1.5-1.58-1.6-1.43-1.68-1.3-1.8-1.14-1.9-1-2.02-.86-2.17-.72-2.33-.57-2.52-.4-2.75-.2-3 .03-3.34.3-3.7.65-4.18 1.1-4.76 1.65-5.46 2.44-6.36 3.48-7.5 4.94-.45.35" fill="none"/><path d="M381 519.9l5.36-3.08m6.88-4.5l1.52-1.05 5.54-4.53 2.4-2.32m5.63-6l.86-.96 3.47-4.68 2.76-4.42m3.57-7.4l.8-1.9 1.4-4.37.97-4.2.2-1.4m.6-8.18l-.03-1.7-.33-3.3-.55-3.03-.75-2.8-.46-1.27m-3.76-7.3l-.26-.37-1.4-1.76-1.5-1.58-1.6-1.43-1.68-1.3-1.8-1.14-.94-.5m-7.74-2.7l-2.26-.35-2.75-.2-3 .03-3.34.3-.92.16m-8 1.92l-3.72 1.3-5.46 2.45-2.1 1.15m-7.1 4.2l-4.65 3.07-.46.35" stroke="#000" stroke-width="4" fill="none"/><path d="M382.06 521.6l-2.25 1.4.2-3.1-.06-1.7zM358.83 449.16l-13.9 5.66 7.92-12.74z"/><path d="M362.14 449.97L340 459l12.6-20.32zm-12.25.68l5.63-2.3-2.43-2.88z"/><path d="M940 337.9c0 20.92-17.9 37.9-40 37.9s-40-16.98-40-37.9c0-20.93 17.9-37.9 40-37.9s40 16.97 40 37.9z" stroke="#000" stroke-width="2" fill-opacity="0"/><use xlink:href="#g" transform="matrix(1,0,0,1,860,300) translate(15.555555555555557 49.5)"/><path d="M900 376.8l83.4 68.56" fill="none"/><path d="M900 376.8l5 4.1m6.68 5.5l10 8.22m6.68 5.5l10 8.2m6.68 5.5l10 8.23m6.7 5.48l10 8.23m6.67 5.5l5 4.1" stroke="#000" stroke-width="4" fill="none"/><path d="M900 375.8l.85-.04-2.12 2.58-2.32-1.9.7-.83zM995 454.9l-13.96-5.5 5.88-7.15z"/><path d="M1000 459l-22.26-8.73 9.4-11.42zm-15.67-10.45l5.67 2.23-3.28-5.13z"/><path d="M1040 520.1c0 20.93-17.9 37.9-40 37.9s-40-16.97-40-37.9c0-20.92 17.9-37.9 40-37.9s40 16.98 40 37.9z" stroke="#000" stroke-width="2" fill-opacity="0"/><use xlink:href="#f" transform="matrix(1,0,0,1,960,482.21052631578954) translate(27.833333333333336 49.5)"/><path d="M1180 519.9c0 20.92-17.9 37.9-40 37.9s-40-16.98-40-37.9c0-20.93 17.9-37.9 40-37.9s40 16.97 40 37.9z" stroke="#000" stroke-width="2" fill-opacity="0"/><use xlink:href="#h" transform="matrix(1,0,0,1,1100,481.99999999999994) translate(15.555555555555557 49.5)"/><path d="M1181 519.9l7.36-4.23 6.4-4.4 5.54-4.53 4.8-4.62 4.1-4.66 3.47-4.68 2.9-4.65 2.36-4.6 1.86-4.48 1.4-4.36.97-4.2.6-4 .23-3.76-.06-3.53-.33-3.27-.55-3.04-.75-2.8-.92-2.55-1.07-2.34-1.18-2.1-1.3-1.94-1.4-1.76-1.5-1.58-1.6-1.43-1.68-1.3-1.8-1.14-1.9-1-2.02-.86-2.17-.72-2.33-.57-2.52-.4-2.75-.2-3 .03-3.34.3-3.7.65-4.18 1.1-4.76 1.65-5.46 2.44-6.36 3.48-7.5 4.94-.45.35" fill="none"/><path d="M1181 519.9l5.36-3.08m6.88-4.5l1.52-1.05 5.54-4.53 2.4-2.32m5.63-6l.86-.96 3.47-4.68 2.76-4.42m3.57-7.4l.8-1.9 1.4-4.37.97-4.2.2-1.4m.6-8.18l-.03-1.7-.33-3.3-.55-3.03-.75-2.8-.46-1.27m-3.76-7.3l-.26-.37-1.4-1.76-1.5-1.58-1.6-1.43-1.68-1.3-1.8-1.14-.94-.5m-7.74-2.7l-2.26-.35-2.75-.2-3 .03-3.34.3-.92.16m-8 1.92l-3.72 1.3-5.46 2.45-2.1 1.15m-7.1 4.2l-4.65 3.07-.46.35" stroke="#000" stroke-width="4" fill="none"/><path d="M1182.06 521.6l-2.25 1.4.2-3.1-.06-1.7z"/><path d="M1144.94 454.82l7.9-12.74 6 7.08z" stroke="#000" stroke-width="4"/><path d="M959 520l-8.53-5.06-7.15-5.07-5.96-5.02-4.96-4.9-4.1-4.8-3.32-4.6-2.67-4.42-2.1-4.22-1.58-4-1.16-3.77-.78-3.55-.45-3.34-.16-3.1.1-2.92.3-2.7.5-2.52.66-2.34.8-2.18.97-2.02 1.08-1.9 1.2-1.73 1.34-1.63 1.45-1.5 1.58-1.38 1.72-1.28 1.86-1.15 2.03-1.05 2.2-.92 2.42-.77 2.65-.62 2.93-.43 3.25-.2 3.65.07 4.08.4 4.62.87 5.28 1.43 6.07 2.2 7.05 3.2 6.54 3.67" fill="none"/><path d="M959 520l-5.15-3.05m-6.68-4.35l-3.85-2.73-5.54-4.67m-5.67-5.6l-3.8-4.44-3.32-4.6-.22-.4m-3.9-6.95l-.65-1.3-1.58-4-1.16-3.77-.48-2.2m-.9-7.9l.08-2.8.3-2.7.5-2.53.67-2.34.5-1.35m3.9-6.9l1-1.2 1.44-1.5 1.58-1.38 1.72-1.28 1.86-1.15 1.7-.9m7.56-2.45h.03l2.93-.44 3.25-.2 3.65.07 2.06.2m7.86 1.4l4.07 1.1 6.07 2.2 1.17.52m7.2 3.42l5.22 2.92" stroke="#000" stroke-width="4" fill="none"/><path d="M994.7 455.3l-14.37-4.34 5.3-7.6z" stroke="#000" stroke-width="4"/><path d="M600 440h120v-20l40 40-40 40v-20H600z" stroke="#000" stroke-width="2" fill-opacity="0"/><path d="M531.5 285.33H820v154H531.5z" fill="#fff" fill-opacity="0"/><path d="M545.93 285.33h12.36m8.23 0h12.37m8.24 0h12.36m8.25 0h12.36m8.25 0h12.37m8.24 0h12.37m8.24 0h12.36m8.25 0h12.36m8.24 0h12.37m8.24 0h12.35m8.25 0h12.36m8.24 0h12.37m8.24 0h12.38m8.24 0H820v5.78m0 7.7v11.56m0 7.7v11.55m0 7.7v11.56m0 7.7v11.55m0 7.7v11.56m0 7.7v11.55m0 7.7v11.56m0 7.7v5.77h-6.18m-8.24 0H793.2m-8.23 0H772.6m-8.24 0H752m-8.25 0H731.4m-8.25 0h-12.37m-8.24 0h-12.36m-8.25 0h-12.36m-8.24 0h-12.37m-8.24 0h-12.37m-8.24 0h-12.35m-8.25 0h-12.36m-8.24 0h-12.37m-8.24 0h-12.37m-8.25 0h-6.18v-5.77m0-7.7V414.3m0-7.7v-11.54m0-7.7V375.8m0-7.7v-11.54m0-7.7V337.3m0-7.7v-11.54m0-7.7V298.8m0-7.7v-5.77h6.18" stroke="#000" stroke-opacity="0" stroke-width="4" fill="none"/><use xlink:href="#i" transform="matrix(1,0,0,1,536.5014683196716,290.33333333333337) translate(52.888888888888886 56)"/><use xlink:href="#j" transform="matrix(1,0,0,1,536.5014683196716,290.33333333333337) translate(112.88888888888889 56)"/><use xlink:href="#k" transform="matrix(1,0,0,1,536.5014683196716,290.33333333333337) translate(5.611111111111086 104)"/><use xlink:href="#l" transform="matrix(1,0,0,1,536.5014683196716,290.33333333333337) translate(40.27777777777775 104)"/><use xlink:href="#m" transform="matrix(1,0,0,1,536.5014683196716,290.33333333333337) translate(80.16666666666663 104)"/><path d="M1120 687h208.5v106H1120z" fill="#fff" fill-opacity="0"/><path d="M1134.6 687h12.5m8.34 0h12.5m8.35 0h12.5m8.34 0h12.5m8.35 0h12.5m8.34 0h12.5m8.35 0h12.5m8.34 0h12.5m8.35 0h12.5m8.34 0h6.26v6.36m0 8.48v12.72m0 8.48v12.72m0 8.48v12.72m0 8.48v12.72m0 8.48V793h-6.26m-8.34 0h-12.5m-8.35 0h-12.5m-8.35 0h-12.5m-8.35 0h-12.5m-8.35 0H1218m-8.35 0h-12.5m-8.35 0h-12.5m-8.35 0h-12.5m-8.35 0h-12.5m-8.35 0H1120v-6.36m0-8.48v-12.72m0-8.48v-12.72m0-8.48v-12.72m0-8.48v-12.72m0-8.48V687h6.25" stroke="#000" stroke-opacity="0" stroke-width="4" fill="none"/><use xlink:href="#n" transform="matrix(1,0,0,1,1125,692) translate(0 32)"/><use xlink:href="#o" transform="matrix(1,0,0,1,1125,692) translate(0 80)"/><path d="M1100 680v120h20l-40 40-40-40h20V680zM940 1120h120v120H940zM840 920h220v160H840z" stroke="#000" stroke-width="2" fill-opacity="0"/><path d="M840 863h220v58H840z" stroke="#000" stroke-opacity="0" stroke-width="2" fill="#fff" fill-opacity="0"/><use xlink:href="#a" transform="matrix(1,0,0,1,845,868) translate(36.66666666666666 32)"/><path d="M940 1243h120v58H940z" stroke="#000" stroke-opacity="0" stroke-width="2" fill="#fff" fill-opacity="0"/><use xlink:href="#b" transform="matrix(1,0,0,1,945,1248) translate(11.833333333333336 30.22222222222222)"/><use xlink:href="#c" transform="matrix(1,0,0,1,945,1248) translate(80.88271604938271 30.22222222222222)"/><path d="M1080 1120h120v120h-120z" stroke="#000" stroke-width="2" fill-opacity="0"/><path d="M1080 1243h120v58h-120z" stroke="#000" stroke-opacity="0" stroke-width="2" fill="#fff" fill-opacity="0"/><use xlink:href="#b" transform="matrix(1,0,0,1,1085,1248) translate(11.833333333333336 30.22222222222222)"/><use xlink:href="#d" transform="matrix(1,0,0,1,1085,1248) translate(80.88271604938271 30.22222222222222)"/><path d="M1080 920h220v160h-220z" stroke="#000" stroke-width="2" fill-opacity="0"/><path d="M1080 863h220v58h-220z" stroke="#000" stroke-opacity="0" stroke-width="2" fill="#fff" fill-opacity="0"/><use xlink:href="#e" transform="matrix(1,0,0,1,1085,868) translate(55.55555555555556 32)"/><path d="M940 997.9c0 20.92-17.9 37.9-40 37.9s-40-16.98-40-37.9c0-20.93 17.9-37.9 40-37.9s40 16.97 40 37.9z" stroke="#000" stroke-width="2" fill-opacity="0"/><use xlink:href="#g" transform="matrix(1,0,0,1,860,959.9999999999999) translate(15.555555555555557 49.5)"/><path d="M900 1036.8l83.4 68.56" fill="none"/><path d="M900 1036.8l5 4.1m6.68 5.5l10 8.22m6.68 5.5l10 8.2m6.68 5.5l10 8.23m6.7 5.48l10 8.23m6.67 5.5l5 4.1" stroke="#000" stroke-width="4" fill="none"/><path d="M900 1035.8l.85-.04-2.12 2.58-2.32-1.9.7-.83zM995 1114.9l-13.96-5.5 5.88-7.15z"/><path d="M1000 1119l-22.26-8.73 9.4-11.42zm-15.67-10.45l5.67 2.23-3.28-5.13z"/><path d="M1040 1180.1c0 20.93-17.9 37.9-40 37.9s-40-16.97-40-37.9c0-20.92 17.9-37.9 40-37.9s40 16.98 40 37.9z" stroke="#000" stroke-width="2" fill-opacity="0"/><use xlink:href="#f" transform="matrix(1,0,0,1,960,1142.2105263157896) translate(27.833333333333336 49.5)"/><path d="M1040 999.9c0 20.92-17.9 37.9-40 37.9s-40-16.98-40-37.9c0-20.93 17.9-37.9 40-37.9s40 16.97 40 37.9z" stroke="#000" stroke-width="2" fill-opacity="0"/><use xlink:href="#h" transform="matrix(1,0,0,1,960,962) translate(15.555555555555557 49.5)"/><path d="M959 1180l-8.53-5.06-7.15-5.07-5.96-5.02-4.96-4.9-4.1-4.8-3.32-4.6-2.67-4.42-2.1-4.22-1.58-4-1.16-3.77-.78-3.55-.45-3.34-.16-3.1.1-2.92.3-2.7.5-2.52.66-2.34.8-2.18.97-2.02 1.08-1.9 1.2-1.73 1.34-1.63 1.45-1.5 1.58-1.38 1.72-1.28 1.86-1.15 2.03-1.05 2.2-.92 2.42-.77 2.65-.62 2.93-.43 3.25-.2 3.65.07 4.08.4 4.62.87 5.28 1.43 6.07 2.2 7.05 3.2 6.54 3.67" fill="none"/><path d="M959 1180l-5.15-3.05m-6.68-4.35l-3.85-2.73-5.54-4.67m-5.67-5.6l-3.8-4.44-3.32-4.6-.22-.4m-3.9-6.95l-.65-1.3-1.58-4-1.16-3.77-.48-2.2m-.9-7.9l.08-2.8.3-2.7.5-2.53.67-2.34.5-1.35m3.9-6.9l1-1.2 1.44-1.5 1.58-1.38 1.72-1.28 1.86-1.15 1.7-.9m7.56-2.45h.03l2.93-.44 3.25-.2 3.65.07 2.06.2m7.86 1.4l4.07 1.1 6.07 2.2 1.17.52m7.2 3.42l5.22 2.92" stroke="#000" stroke-width="4" fill="none"/><path d="M994.7 1115.3l-14.37-4.34 5.3-7.6z" stroke="#000" stroke-width="4"/><path d="M1000 1038.8l121.37 69.53" fill="none"/><path d="M1000 1038.8l5.2 2.97m6.94 3.97l10.4 5.96m6.94 3.98l10.4 5.96m6.93 3.97l10.42 5.97m6.93 3.97l10.4 5.96m6.94 3.98l10.4 5.96m6.93 3.97l10.4 5.97m6.94 3.98l5.2 2.98" stroke="#000" stroke-width="4" fill="none"/><path d="M1000 1037.8l.6-.03-1.6 2.76-2.6-1.5.82-1.4zM1134.38 1115.78l-14.68-3.07 4.6-8.03z"/><path d="M1140 1119l-23.4-4.9 7.34-12.8zm-17.2-7.68l5.97 1.25-4.1-4.52z"/><path d="M1080 1158h120v60h-120z" fill="#fff" fill-opacity="0"/><path d="M1094 1158h12m8 0h12m8 0h12m8 0h12m8 0h12m8 0h6v6m0 8v12m0 8v12m0 8v6h-6m-8 0h-12m-8 0h-12m-8 0h-12m-8 0h-12m-8 0h-12m-8 0h-6v-6m0-8v-12m0-8v-12m0-8v-6h6" stroke="#000" stroke-opacity="0" stroke-width="4" fill="none"/><use xlink:href="#p" transform="matrix(1,0,0,1,1085,1163) translate(24 33)"/><path d="M751.5 1125.33h-120v20l-40-40 40-40v20h120z" stroke="#000" stroke-width="2" fill-opacity="0"/><path d="M531.5 945.33H820v154H531.5z" fill="#fff" fill-opacity="0"/><path d="M545.93 945.33h12.36m8.23 0h12.37m8.24 0h12.36m8.25 0h12.36m8.25 0h12.37m8.24 0h12.37m8.24 0h12.36m8.25 0h12.36m8.24 0h12.37m8.24 0h12.35m8.25 0h12.36m8.24 0h12.37m8.24 0h12.38m8.24 0H820v5.78m0 7.7v11.56m0 7.7v11.55m0 7.7v11.56m0 7.7v11.55m0 7.7v11.56m0 7.7v11.55m0 7.7v11.56m0 7.7v5.77h-6.18m-8.24 0H793.2m-8.23 0H772.6m-8.24 0H752m-8.25 0H731.4m-8.25 0h-12.37m-8.24 0h-12.36m-8.25 0h-12.36m-8.24 0h-12.37m-8.24 0h-12.37m-8.24 0h-12.35m-8.25 0h-12.36m-8.24 0h-12.37m-8.24 0h-12.37m-8.25 0h-6.18v-5.77m0-7.7v-11.55m0-7.7v-11.54m0-7.7v-11.55m0-7.7v-11.54m0-7.7V997.3m0-7.7v-11.54m0-7.7V958.8m0-7.7v-5.77h6.18" stroke="#000" stroke-opacity="0" stroke-width="4" fill="none"/><use xlink:href="#i" transform="matrix(1,0,0,1,536.5014683196716,950.3333333333335) translate(59.55555555555556 80)"/><use xlink:href="#q" transform="matrix(1,0,0,1,536.5014683196716,950.3333333333335) translate(119.55555555555556 80)"/><path d="M140 1120h120v120H140zM40 920h220v160H40z" stroke="#000" stroke-width="2" fill-opacity="0"/><path d="M40 863h220v58H40z" stroke="#000" stroke-opacity="0" stroke-width="2" fill="#fff" fill-opacity="0"/><use xlink:href="#a" transform="matrix(1,0,0,1,44.999999999999986,868) translate(36.66666666666666 32)"/><path d="M140 1243h120v58H140z" stroke="#000" stroke-opacity="0" stroke-width="2" fill="#fff" fill-opacity="0"/><use xlink:href="#b" transform="matrix(1,0,0,1,145,1248) translate(11.833333333333336 30.22222222222222)"/><use xlink:href="#c" transform="matrix(1,0,0,1,145,1248) translate(80.88271604938271 30.22222222222222)"/><path d="M280 1120h120v120H280z" stroke="#000" stroke-width="2" fill-opacity="0"/><path d="M280 1243h120v58H280z" stroke="#000" stroke-opacity="0" stroke-width="2" fill="#fff" fill-opacity="0"/><use xlink:href="#b" transform="matrix(1,0,0,1,285,1248) translate(11.833333333333336 30.22222222222222)"/><use xlink:href="#d" transform="matrix(1,0,0,1,285,1248) translate(80.88271604938271 30.22222222222222)"/><path d="M280 920h220v160H280z" stroke="#000" stroke-width="2" fill-opacity="0"/><path d="M280 863h220v58H280z" stroke="#000" stroke-opacity="0" stroke-width="2" fill="#fff" fill-opacity="0"/><use xlink:href="#e" transform="matrix(1,0,0,1,285,868) translate(55.55555555555556 32)"/><path d="M440 997.9c0 20.92-17.9 37.9-40 37.9s-40-16.98-40-37.9c0-20.93 17.9-37.9 40-37.9s40 16.97 40 37.9z" stroke="#000" stroke-width="2" fill-opacity="0"/><use xlink:href="#g" transform="matrix(1,0,0,1,360,959.9999999999999) translate(15.555555555555557 49.5)"/><path d="M400 1036.8l-180.14 74.04" fill="none"/><path d="M400 1036.8l-5.4 2.2m-7.2 2.97l-10.82 4.45m-7.2 2.96l-10.8 4.44m-7.22 2.96l-10.8 4.45m-7.2 2.96l-10.82 4.43m-7.2 2.96l-10.8 4.43m-7.22 2.97l-10.8 4.44m-7.2 2.96l-10.82 4.44m-7.2 2.97l-10.82 4.45m-7.2 2.96l-10.8 4.45m-7.22 2.97l-5.4 2.22" stroke="#000" stroke-width="4" fill="none"/><path d="M403.54 1037.5l-2.78 1.14-1.18-2.88.42.03 2.8-.1zM220.94 1115.4l-14.95 1.14 11.42-9.7z"/><path d="M223.84 1117.2L200 1119l18.22-15.48zm-11.87-3.12l6.08-.46-1.43-3.5z"/><path d="M240 1180.1c0 20.93-17.9 37.9-40 37.9s-40-16.97-40-37.9c0-20.92 17.9-37.9 40-37.9s40 16.98 40 37.9z" stroke="#000" stroke-width="2" fill-opacity="0"/><use xlink:href="#f" transform="matrix(1,0,0,1,160,1142.2105263157896) translate(27.833333333333336 49.5)"/><path d="M240 999.9c0 20.92-17.9 37.9-40 37.9s-40-16.98-40-37.9c0-20.93 17.9-37.9 40-37.9s40 16.97 40 37.9z" stroke="#000" stroke-width="2" fill-opacity="0"/><use xlink:href="#h" transform="matrix(1,0,0,1,160,962) translate(15.555555555555557 49.5)"/><path d="M159 1180l-8.53-5.06-7.15-5.07-5.96-5.02-4.96-4.9-4.1-4.8-3.32-4.6-2.67-4.42-2.1-4.22-1.58-4-1.16-3.77-.78-3.55-.45-3.34-.16-3.1.1-2.92.3-2.7.5-2.52.66-2.34.8-2.18.97-2.02 1.08-1.9 1.2-1.73 1.34-1.63 1.45-1.5 1.58-1.38 1.72-1.28 1.86-1.15 2.03-1.05 2.2-.92 2.42-.77 2.65-.62 2.93-.43 3.25-.2 3.65.07 4.08.4 4.62.87 5.28 1.43 6.07 2.2 7.05 3.2 6.54 3.67" fill="none"/><path d="M159 1180l-5.15-3.05m-6.68-4.35l-3.85-2.73-5.54-4.67m-5.67-5.6l-3.8-4.44-3.32-4.6-.22-.4m-3.9-6.95l-.65-1.3-1.58-4-1.16-3.77-.48-2.2m-.9-7.9l.08-2.8.3-2.7.5-2.53.67-2.34.5-1.35m3.9-6.9l1-1.2 1.44-1.5 1.58-1.38 1.72-1.28 1.86-1.15 1.7-.9m7.56-2.45h.03l2.93-.44 3.25-.2 3.65.07 2.06.2m7.86 1.4l4.07 1.1 6.07 2.2 1.17.52m7.2 3.42l5.22 2.92" stroke="#000" stroke-width="4" fill="none"/><path d="M194.7 1115.3l-14.37-4.34 5.3-7.6z" stroke="#000" stroke-width="4"/><path d="M200 1038.8l121.37 69.53" fill="none"/><path d="M200 1038.8l5.2 2.97m6.94 3.97l10.4 5.96m6.94 3.98l10.4 5.96m6.93 3.97l10.42 5.97m6.93 3.97l10.4 5.96m6.94 3.98l10.4 5.96m6.93 3.97l10.4 5.97m6.94 3.98l5.2 2.98" stroke="#000" stroke-width="4" fill="none"/><path d="M200 1037.8l.6-.03-1.6 2.76-2.6-1.5.82-1.4zM334.38 1115.78l-14.68-3.07 4.6-8.03z"/><path d="M340 1119l-23.4-4.9 7.34-12.8zm-17.2-7.68l5.97 1.25-4.1-4.52z"/><path d="M280 1158h120v60H280z" fill="#fff" fill-opacity="0"/><path d="M294 1158h12m8 0h12m8 0h12m8 0h12m8 0h12m8 0h6v6m0 8v12m0 8v12m0 8v6h-6m-8 0h-12m-8 0h-12m-8 0h-12m-8 0h-12m-8 0h-12m-8 0h-6v-6m0-8v-12m0-8v-12m0-8v-6h6" stroke="#000" stroke-opacity="0" stroke-width="4" fill="none"/><g><use xlink:href="#p" transform="matrix(1,0,0,1,285,1163) translate(24 33)"/></g><path d="M370 680h550v120H370z" stroke="#999" fill-opacity="0"/><path d="M681.85 744.33c0 17.5-14.97 31.67-33.43 31.67S615 761.82 615 744.33c0-17.48 14.96-31.66 33.42-31.66s33.43 14.18 33.43 31.66z" stroke="#000" stroke-width="2" fill-opacity="0"/><path d="M699.45 719.18H900v50.14H699.45z" fill="#fff" fill-opacity="0"/><path d="M713.5 719.18h12.02m8.03 0h12.03m8.02 0h12.03m8.02 0h12.04m8 0h12.04m8.02 0h12.04m8.02 0h12.03m8.02 0h12.04m8.03 0h12.03m8.02 0H900v5m0 6.7v10.02m0 6.7v10.02m0 6.68v5.02h-6.02m-8.02 0h-12.03m-8.02 0h-12.03m-8.02 0h-12.03m-8.02 0h-12.04m-8.02 0H793.7m-8 0h-12.05m-8.02 0H753.6m-8.02 0h-12.03m-8.03 0H713.5m-8.03 0h-6.02v-5.02m0-6.68V747.6m0-6.7v-10.02m0-6.7v-5h6.02" stroke="#000" stroke-opacity="0" stroke-width="4" fill="none"/><g><use xlink:href="#r" transform="matrix(1,0,0,1,704.4520547945206,724.1780821917808) translate(-7.1833767361111285 29.827256944444446)"/></g><path d="M405 709.43v49.1" fill="none"/><path d="M405 709.43v7.36m0 9.8v14.74m0 9.82v7.37" stroke="#000" stroke-width="4" fill="none"/><path d="M405 773.53l-4.64-14.27h9.28z" stroke="#000" stroke-width="4"/><path d="M424.73 720H560v40H424.73z" fill="#fff" fill-opacity="0"/><path d="M438.25 720h11.6m7.73 0h11.6m7.72 0h11.6m7.73 0h11.6m7.72 0h11.6m7.73 0h11.6m7.72 0h5.8v6m0 8v12m0 8v6h-5.8m-7.73 0h-11.6m-7.72 0h-11.6m-7.73 0h-11.6m-7.72 0h-11.6m-7.73 0h-11.6m-7.72 0h-11.6m-7.73 0h-5.8v-6m0-8v-12m0-8v-6h5.8" stroke="#000" stroke-opacity="0" stroke-width="4" fill="none"/><g><use xlink:href="#s" transform="matrix(1,0,0,1,429.72727272727275,725) translate(0 24.888888888888893)"/></g><defs><path d="M115-194c53 0 69 39 70 98 0 66-23 100-70 100C84 3 66-7 56-30L54 0H23l1-261h32v101c10-23 28-34 59-34zm-8 174c40 0 45-34 45-75 0-40-5-75-45-74-42 0-51 32-51 76 0 43 10 73 51 73" id="t"/><path d="M24 0v-261h32V0H24" id="u"/><path d="M100-194c62-1 85 37 85 99 1 63-27 99-86 99S16-35 15-95c0-66 28-99 85-99zM99-20c44 1 53-31 53-75 0-43-8-75-51-75s-53 32-53 75 10 74 51 75" id="v"/><path d="M96-169c-40 0-48 33-48 73s9 75 48 75c24 0 41-14 43-38l32 2c-6 37-31 61-74 61-59 0-76-41-82-99-10-93 101-131 147-64 4 7 5 14 7 22l-32 3c-4-21-16-35-41-35" id="w"/><path d="M143 0L79-87 56-68V0H24v-261h32v163l83-92h37l-77 82L181 0h-38" id="x"/><path d="M100-194c63 0 86 42 84 106H49c0 40 14 67 53 68 26 1 43-12 49-29l28 8c-11 28-37 45-77 45C44 4 14-33 15-96c1-61 26-98 85-98zm52 81c6-60-76-77-97-28-3 7-6 17-6 28h103" id="y"/><path d="M85-194c31 0 48 13 60 33l-1-100h32l1 261h-30c-2-10 0-23-3-31C134-8 116 4 85 4 32 4 16-35 15-94c0-66 23-100 70-100zm9 24c-40 0-46 34-46 75 0 40 6 74 45 74 42 0 51-32 51-76 0-42-9-74-50-73" id="z"/><g id="a"><use transform="matrix(0.1111111111111111,0,0,0.1111111111111111,0,0)" xlink:href="#t"/><use transform="matrix(0.1111111111111111,0,0,0.1111111111111111,22.22222222222222,0)" xlink:href="#u"/><use transform="matrix(0.1111111111111111,0,0,0.1111111111111111,31,0)" xlink:href="#v"/><use transform="matrix(0.1111111111111111,0,0,0.1111111111111111,53.22222222222222,0)" xlink:href="#w"/><use transform="matrix(0.1111111111111111,0,0,0.1111111111111111,73.22222222222223,0)" xlink:href="#x"/><use transform="matrix(0.1111111111111111,0,0,0.1111111111111111,93.22222222222223,0)" xlink:href="#y"/><use transform="matrix(0.1111111111111111,0,0,0.1111111111111111,115.44444444444446,0)" xlink:href="#z"/></g><path d="M114-163C36-179 61-72 57 0H25l-1-190h30c1 12-1 29 2 39 6-27 23-49 58-41v29" id="A"/><g id="b"><use transform="matrix(0.08641975308641976,0,0,0.08641975308641976,0,0)" xlink:href="#w"/><use transform="matrix(0.08641975308641976,0,0,0.08641975308641976,15.555555555555557,0)" xlink:href="#v"/><use transform="matrix(0.08641975308641976,0,0,0.08641975308641976,32.839506172839506,0)" xlink:href="#A"/><use transform="matrix(0.08641975308641976,0,0,0.08641975308641976,43.123456790123456,0)" xlink:href="#y"/></g><path d="M27 0v-27h64v-190l-56 39v-29l58-41h29v221h61V0H27" id="B"/><use transform="matrix(0.08641975308641976,0,0,0.08641975308641976,0,0)" xlink:href="#B" id="c"/><path d="M101-251c82-7 93 87 43 132L82-64C71-53 59-42 53-27h129V0H18c2-99 128-94 128-182 0-28-16-43-45-43s-46 15-49 41l-32-3c6-41 34-60 81-64" id="C"/><use transform="matrix(0.08641975308641976,0,0,0.08641975308641976,0,0)" xlink:href="#C" id="d"/><path d="M141-36C126-15 110 5 73 4 37 3 15-17 15-53c-1-64 63-63 125-63 3-35-9-54-41-54-24 1-41 7-42 31l-33-3c5-37 33-52 76-52 45 0 72 20 72 64v82c-1 20 7 32 28 27v20c-31 9-61-2-59-35zM48-53c0 20 12 33 32 33 41-3 63-29 60-74-43 2-92-5-92 41" id="D"/><path d="M179-190L93 31C79 59 56 82 12 73V49c39 6 53-20 64-50L1-190h34L92-34l54-156h33" id="E"/><g id="e"><use transform="matrix(0.1111111111111111,0,0,0.1111111111111111,0,0)" xlink:href="#A"/><use transform="matrix(0.1111111111111111,0,0,0.1111111111111111,13.222222222222221,0)" xlink:href="#y"/><use transform="matrix(0.1111111111111111,0,0,0.1111111111111111,35.44444444444444,0)" xlink:href="#D"/><use transform="matrix(0.1111111111111111,0,0,0.1111111111111111,57.666666666666664,0)" xlink:href="#z"/><use transform="matrix(0.1111111111111111,0,0,0.1111111111111111,79.88888888888889,0)" xlink:href="#E"/></g><path d="M127-220V0H93v-220H8v-28h204v28h-85" id="F"/><use transform="matrix(0.1111111111111111,0,0,0.1111111111111111,0,0)" xlink:href="#F" id="f"/><path d="M194 0L95-120 63-95V0H30v-248h33v124l119-124h40L117-140 236 0h-42" id="G"/><g id="g"><use transform="matrix(0.1111111111111111,0,0,0.1111111111111111,0,0)" xlink:href="#G"/><use transform="matrix(0.1111111111111111,0,0,0.1111111111111111,26.666666666666664,0)" xlink:href="#B"/></g><g id="h"><use transform="matrix(0.1111111111111111,0,0,0.1111111111111111,0,0)" xlink:href="#G"/><use transform="matrix(0.1111111111111111,0,0,0.1111111111111111,26.666666666666664,0)" xlink:href="#C"/></g><g id="i"><use transform="matrix(0.1111111111111111,0,0,0.1111111111111111,0,0)" xlink:href="#G"/><use transform="matrix(0.1111111111111111,0,0,0.1111111111111111,26.666666666666664,0)" xlink:href="#B"/></g><path d="M135-143c-3-34-86-38-87 0 15 53 115 12 119 90S17 21 10-45l28-5c4 36 97 45 98 0-10-56-113-15-118-90-4-57 82-63 122-42 12 7 21 19 24 35" id="H"/><g id="j"><use transform="matrix(0.1111111111111111,0,0,0.1111111111111111,0,0)" xlink:href="#t"/><use transform="matrix(0.1111111111111111,0,0,0.1111111111111111,22.22222222222222,0)" xlink:href="#u"/><use transform="matrix(0.1111111111111111,0,0,0.1111111111111111,31,0)" xlink:href="#v"/><use transform="matrix(0.1111111111111111,0,0,0.1111111111111111,53.22222222222222,0)" xlink:href="#w"/><use transform="matrix(0.1111111111111111,0,0,0.1111111111111111,73.22222222222223,0)" xlink:href="#x"/><use transform="matrix(0.1111111111111111,0,0,0.1111111111111111,93.22222222222223,0)" xlink:href="#H"/></g><use transform="matrix(0.1111111111111111,0,0,0.1111111111111111,0,0)" xlink:href="#F" id="k"/><path d="M24-231v-30h32v30H24zM24 0v-190h32V0H24" id="I"/><g id="l"><use transform="matrix(0.1111111111111111,0,0,0.1111111111111111,0,0)" xlink:href="#I"/><use transform="matrix(0.1111111111111111,0,0,0.1111111111111111,8.777777777777777,0)" xlink:href="#H"/></g><path d="M115-194c55 1 70 41 70 98S169 2 115 4C84 4 66-9 55-30l1 105H24l-1-265h31l2 30c10-21 28-34 59-34zm-8 174c40 0 45-34 45-75s-6-73-45-74c-42 0-51 32-51 76 0 43 10 73 51 73" id="J"/><path d="M59-47c-2 24 18 29 38 22v24C64 9 27 4 27-40v-127H5v-23h24l9-43h21v43h35v23H59v120" id="K"/><path d="M106-169C34-169 62-67 57 0H25v-261h32l-1 103c12-21 28-36 61-36 89 0 53 116 60 194h-32v-121c2-32-8-49-39-48" id="L"/><g id="m"><use transform="matrix(0.1111111111111111,0,0,0.1111111111111111,0,0)" xlink:href="#z"/><use transform="matrix(0.1111111111111111,0,0,0.1111111111111111,22.22222222222222,0)" xlink:href="#I"/><use transform="matrix(0.1111111111111111,0,0,0.1111111111111111,31,0)" xlink:href="#H"/><use transform="matrix(0.1111111111111111,0,0,0.1111111111111111,51,0)" xlink:href="#J"/><use transform="matrix(0.1111111111111111,0,0,0.1111111111111111,73.22222222222223,0)" xlink:href="#D"/><use transform="matrix(0.1111111111111111,0,0,0.1111111111111111,95.44444444444446,0)" xlink:href="#K"/><use transform="matrix(0.1111111111111111,0,0,0.1111111111111111,106.55555555555557,0)" xlink:href="#w"/><use transform="matrix(0.1111111111111111,0,0,0.1111111111111111,126.55555555555557,0)" xlink:href="#L"/><use transform="matrix(0.1111111111111111,0,0,0.1111111111111111,148.7777777777778,0)" xlink:href="#y"/><use transform="matrix(0.1111111111111111,0,0,0.1111111111111111,171.00000000000003,0)" xlink:href="#z"/></g><g id="n"><use transform="matrix(0.1111111111111111,0,0,0.1111111111111111,0,0)" xlink:href="#G"/><use transform="matrix(0.1111111111111111,0,0,0.1111111111111111,26.666666666666664,0)" xlink:href="#C"/></g><g id="o"><use transform="matrix(0.1111111111111111,0,0,0.1111111111111111,0,0)" xlink:href="#t"/><use transform="matrix(0.1111111111111111,0,0,0.1111111111111111,22.22222222222222,0)" xlink:href="#u"/><use transform="matrix(0.1111111111111111,0,0,0.1111111111111111,31,0)" xlink:href="#v"/><use transform="matrix(0.1111111111111111,0,0,0.1111111111111111,53.22222222222222,0)" xlink:href="#w"/><use transform="matrix(0.1111111111111111,0,0,0.1111111111111111,73.22222222222223,0)" xlink:href="#x"/><use transform="matrix(0.1111111111111111,0,0,0.1111111111111111,93.22222222222223,0)" xlink:href="#H"/></g><g id="p"><use transform="matrix(0.1111111111111111,0,0,0.1111111111111111,0,0)" xlink:href="#I"/><use transform="matrix(0.1111111111111111,0,0,0.1111111111111111,8.777777777777777,0)" xlink:href="#z"/><use transform="matrix(0.1111111111111111,0,0,0.1111111111111111,31,0)" xlink:href="#u"/><use transform="matrix(0.1111111111111111,0,0,0.1111111111111111,39.77777777777778,0)" xlink:href="#y"/></g><g id="q"><use transform="matrix(0.1111111111111111,0,0,0.1111111111111111,0,0)" xlink:href="#A"/><use transform="matrix(0.1111111111111111,0,0,0.1111111111111111,13.222222222222221,0)" xlink:href="#y"/><use transform="matrix(0.1111111111111111,0,0,0.1111111111111111,35.44444444444444,0)" xlink:href="#D"/><use transform="matrix(0.1111111111111111,0,0,0.1111111111111111,57.666666666666664,0)" xlink:href="#z"/><use transform="matrix(0.1111111111111111,0,0,0.1111111111111111,79.88888888888889,0)" xlink:href="#E"/></g><path d="M682 16c-209 0-323-80-324-285v-671H190v-142h170l58-282h120v282h432v142H538v652c2 114 60 155 182 155 106 0 209-16 297-34v137C921-4 806 16 682 16" id="M"/><path d="M1000-272c3 95 12 159 101 161 21 0 41-3 59-7V-6c-44 10-86 16-139 16-141 2-191-84-197-217h-6C748-76 648 20 446 20c-207 0-318-120-318-322 0-266 194-348 454-354l236-4c12-191-40-305-222-305-140 0-220 47-232 172l-188-17c33-204 181-292 423-292 255 0 401 118 401 364v466zm-683-27c0 109 63 184 175 182 166-3 259-96 306-217 24-65 20-120 20-200-232 7-501-28-501 235" id="N"/><path d="M873-819c-18-114-119-146-250-146-163 0-245 50-245 151 0 151 170 148 294 185 182 54 388 94 388 320 0 240-189 325-439 329-245 4-410-69-454-268l159-31c24 133 136 168 295 165 144-2 270-31 270-171 0-164-195-160-331-202-167-52-350-87-350-299 0-218 173-315 413-313 220 2 373 77 412 260" id="O"/><path d="M914 0L548-499l-132 98V0H236v-1484h180v927l475-525h211L663-617 1125 0H914" id="P"/><path d="M-5 220v-96h1238v96H-5" id="Q"/><path d="M839-1102c70 0 148 7 206 17v167c-112-18-268-36-363 15-129 69-208 203-208 395V0H294c-10-367 32-789-52-1082h171c21 75 41 161 48 250h5c67-152 152-270 373-270" id="R"/><path d="M528 20c-247 0-343-132-343-381v-721h180v686c-4 177 45 284 224 277 194-8 279-136 279-336v-627h181c3 360-6 732 6 1082H885c-4-54-7-126-8-185h-3C809-64 714 20 528 20" id="S"/><path d="M631 20c-350 0-501-215-501-562 0-355 162-560 502-560 250 0 399 118 446 323l-192 14c-23-124-109-196-262-196-242 0-305 171-305 415 1 245 61 427 304 427 151 0 248-77 267-215l190 12C1039-107 883 20 631 20" id="T"/><g id="r"><use transform="matrix(0.015190972222222224,0,0,0.015190972222222224,0,0)" xlink:href="#M"/><use transform="matrix(0.015190972222222224,0,0,0.015190972222222224,18.669704861111114,0)" xlink:href="#N"/><use transform="matrix(0.015190972222222224,0,0,0.015190972222222224,37.33940972222223,0)" xlink:href="#O"/><use transform="matrix(0.015190972222222224,0,0,0.015190972222222224,56.00911458333334,0)" xlink:href="#P"/><use transform="matrix(0.015190972222222224,0,0,0.015190972222222224,74.67881944444446,0)" xlink:href="#Q"/><use transform="matrix(0.015190972222222224,0,0,0.015190972222222224,93.34852430555557,0)" xlink:href="#O"/><use transform="matrix(0.015190972222222224,0,0,0.015190972222222224,112.01822916666669,0)" xlink:href="#M"/><use transform="matrix(0.015190972222222224,0,0,0.015190972222222224,130.6879340277778,0)" xlink:href="#R"/><use transform="matrix(0.015190972222222224,0,0,0.015190972222222224,149.3576388888889,0)" xlink:href="#S"/><use transform="matrix(0.015190972222222224,0,0,0.015190972222222224,168.02734375000003,0)" xlink:href="#T"/><use transform="matrix(0.015190972222222224,0,0,0.015190972222222224,186.69704861111114,0)" xlink:href="#M"/></g><path d="M117-194c89-4 53 116 60 194h-32v-121c0-31-8-49-39-48C34-167 62-67 57 0H25l-1-190h30c1 10-1 24 2 32 11-22 29-35 61-36" id="U"/><path d="M177-190C167-65 218 103 67 71c-23-6-38-20-44-43l32-5c15 47 100 32 89-28v-30C133-14 115 1 83 1 29 1 15-40 15-95c0-56 16-97 71-98 29-1 48 16 59 35 1-10 0-23 2-32h30zM94-22c36 0 50-32 50-73 0-42-14-75-50-75-39 0-46 34-46 75s6 73 46 73" id="V"/><g id="s"><use transform="matrix(0.08641975308641976,0,0,0.08641975308641976,0,0)" xlink:href="#J"/><use transform="matrix(0.08641975308641976,0,0,0.08641975308641976,17.283950617283953,0)" xlink:href="#I"/><use transform="matrix(0.08641975308641976,0,0,0.08641975308641976,24.111111111111114,0)" xlink:href="#U"/><use transform="matrix(0.08641975308641976,0,0,0.08641975308641976,41.39506172839506,0)" xlink:href="#U"/><use transform="matrix(0.08641975308641976,0,0,0.08641975308641976,58.679012345679006,0)" xlink:href="#I"/><use transform="matrix(0.08641975308641976,0,0,0.08641975308641976,65.50617283950618,0)" xlink:href="#U"/><use transform="matrix(0.08641975308641976,0,0,0.08641975308641976,82.79012345679013,0)" xlink:href="#V"/></g></defs></g></svg>