<svg xmlns="http://www.w3.org/2000/svg" xmlns:xlink="http://www.w3.org/1999/xlink" xmlns:lucid="lucid" width="816" height="833"><g transform="translate(-861 -3441)" lucid:page-tab-id="0_0"><path d="M880 3460h780v800H880z" stroke="#000" stroke-width="2" fill-opacity="0"/><path d="M945.22 3885.43c0 8.05-6.37 14.57-14.22 14.57-7.85 0-14.22-6.52-14.22-14.57v-43.7c0-8.04 6.37-14.57 14.22-14.57 7.85 0 14.22 6.53 14.22 14.57zM1015.53 4163.06c0 14.23-10.68 25.76-23.84 25.76-13.17 0-23.84-11.53-23.84-25.76v-77.3c0-14.22 10.67-25.76 23.83-25.76 13.15 0 23.83 11.54 23.83 25.76z" stroke="#000" stroke-width="2" fill-opacity="0"/><path d="M1031 4057.9c0 20.92-17.9 37.9-40 37.9s-40-16.98-40-37.9c0-20.93 17.9-37.9 40-37.9s40 16.97 40 37.9z" stroke="#000" stroke-width="2" fill="#fff"/><use xlink:href="#a" transform="matrix(1,0,0,1,951,4019.9999999999995) translate(9 49.5)"/><path d="M1101 3481.5h360v260h-360z" stroke="#000" stroke-width="2" fill="#fff"/><path d="M1101 3561.5h100v60h-100z" stroke="#000" stroke-width="2" fill="#fff"/><use xlink:href="#b" transform="matrix(1,0,0,1,1106,3566.5) translate(39.876543209876544 31.22222222222222)"/><path d="M1101 3621.5h100v60h-100z" stroke="#000" stroke-width="2" fill="#fff"/><use xlink:href="#c" transform="matrix(1,0,0,1,1106,3626.5) translate(48.60493827160494 31.22222222222222)"/><path d="M1101 3681.5h100v60h-100z" stroke="#000" stroke-width="2" fill="#fff"/><use xlink:href="#d" transform="matrix(1,0,0,1,1106,3686.5) translate(22.592592592592595 31.22222222222222)"/><path d="M1201 3561.5h260v60h-260z" stroke="#000" stroke-width="2" fill="#fff"/><use xlink:href="#e" transform="matrix(1,0,0,1,1206,3566.5) translate(118.42592592592592 31.22222222222222)"/><path d="M1201 3621.5h260v60h-260z" stroke="#000" stroke-width="2" fill="#fff"/><use xlink:href="#e" transform="matrix(1,0,0,1,1206,3626.5) translate(118.42592592592592 31.22222222222222)"/><path d="M1201 3681.5h260v60h-260z" stroke="#000" stroke-width="2" fill="#fff"/><use xlink:href="#f" transform="matrix(1,0,0,1,1206,3686.5) translate(25.740740740740748 31.22222222222222)"/><path d="M1101 3480h360v83h-360z" stroke="#000" stroke-width="2" fill="#fff"/><use xlink:href="#g" transform="matrix(1,0,0,1,1106,3485) translate(79.81481481481481 51.66666666666667)"/><use xlink:href="#h" transform="matrix(1,0,0,1,1106,3485) translate(163.8148148148148 51.66666666666667)"/><path d="M901 3960h179v60H901z" stroke="#000" stroke-width="2" fill="#fff"/><use xlink:href="#i" transform="matrix(1,0,0,1,906,3965) translate(29 34)"/><use xlink:href="#j" transform="matrix(1,0,0,1,906,3965) translate(117.77777777777777 34)"/><path d="M901 3900h59v60h-59z" stroke="#000" stroke-width="2" fill="#fff"/><use xlink:href="#k" transform="matrix(1,0,0,1,906,3905) translate(13.38888888888889 34)"/><path d="M961 3900h59v60h-59z" stroke="#000" stroke-width="2" fill="#fff"/><use xlink:href="#l" transform="matrix(1,0,0,1,966,3905) translate(13.38888888888889 34)"/><path d="M1021 3900h59v60h-59z" stroke="#000" stroke-width="2" fill="#fff"/><use xlink:href="#m" transform="matrix(1,0,0,1,1026,3905) translate(13.38888888888889 34)"/><path d="M1005.22 3885.43c0 8.05-6.37 14.57-14.22 14.57-7.85 0-14.22-6.52-14.22-14.57v-43.7c0-8.04 6.37-14.57 14.22-14.57 7.85 0 14.22 6.53 14.22 14.57zM1065.22 3885.43c0 8.05-6.37 14.57-14.22 14.57-7.85 0-14.22-6.52-14.22-14.57v-43.7c0-8.04 6.37-14.57 14.22-14.57 7.85 0 14.22 6.53 14.22 14.57zM1225.22 3885.43c0 8.05-6.37 14.57-14.22 14.57-7.85 0-14.22-6.52-14.22-14.57v-43.7c0-8.04 6.37-14.57 14.22-14.57 7.85 0 14.22 6.53 14.22 14.57zM1295.53 4163.06c0 14.23-10.68 25.76-23.84 25.76-13.17 0-23.84-11.53-23.84-25.76v-77.3c0-14.22 10.67-25.76 23.83-25.76 13.15 0 23.83 11.54 23.83 25.76z" stroke="#000" stroke-width="2" fill-opacity="0"/><path d="M1311 4057.9c0 20.92-17.9 37.9-40 37.9s-40-16.98-40-37.9c0-20.93 17.9-37.9 40-37.9s40 16.97 40 37.9z" stroke="#000" stroke-width="2" fill="#fff"/><use xlink:href="#a" transform="matrix(1,0,0,1,1231,4019.9999999999995) translate(9 49.5)"/><path d="M1181 3960h179v60h-179z" stroke="#000" stroke-width="2" fill="#fff"/><use xlink:href="#i" transform="matrix(1,0,0,1,1186,3965) translate(29 34)"/><use xlink:href="#n" transform="matrix(1,0,0,1,1186,3965) translate(117.77777777777777 34)"/><path d="M1181 3900h59v60h-59z" stroke="#000" stroke-width="2" fill="#fff"/><use xlink:href="#k" transform="matrix(1,0,0,1,1186,3905) translate(13.38888888888889 34)"/><path d="M1241 3900h59v60h-59z" stroke="#000" stroke-width="2" fill="#fff"/><use xlink:href="#l" transform="matrix(1,0,0,1,1246,3905) translate(13.38888888888889 34)"/><path d="M1301 3900h59v60h-59z" stroke="#000" stroke-width="2" fill="#fff"/><use xlink:href="#m" transform="matrix(1,0,0,1,1306,3905) translate(13.38888888888889 34)"/><path d="M1285.22 3885.43c0 8.05-6.37 14.57-14.22 14.57-7.85 0-14.22-6.52-14.22-14.57v-43.7c0-8.04 6.37-14.57 14.22-14.57 7.85 0 14.22 6.53 14.22 14.57zM1345.22 3885.43c0 8.05-6.37 14.57-14.22 14.57-7.85 0-14.22-6.52-14.22-14.57v-43.7c0-8.04 6.37-14.57 14.22-14.57 7.85 0 14.22 6.53 14.22 14.57zM1505.22 3885.6c0 8.05-6.37 14.58-14.22 14.58-7.85 0-14.22-6.53-14.22-14.57v-43.7c0-8.04 6.37-14.56 14.22-14.56 7.85 0 14.22 6.52 14.22 14.57zM1575.53 4163.24c0 14.22-10.68 25.76-23.84 25.76-13.17 0-23.84-11.54-23.84-25.76v-77.3c0-14.23 10.67-25.76 23.83-25.76 13.15 0 23.83 11.53 23.83 25.76z" stroke="#000" stroke-width="2" fill-opacity="0"/><path d="M1592.38 4197.9c0 20.92-17.9 37.9-40 37.9s-40-16.98-40-37.9c0-20.93 17.9-37.9 40-37.9s40 16.97 40 37.9z" stroke="#000" stroke-width="2" fill="#fff"/><use xlink:href="#a" transform="matrix(1,0,0,1,1512.3814097850354,4160) translate(9 49.5)"/><path d="M1461 3960.18h179v60h-179z" stroke="#000" stroke-width="2" fill="#fff"/><use xlink:href="#i" transform="matrix(1,0,0,1,1466,3965.175483951016) translate(29 34)"/><use xlink:href="#o" transform="matrix(1,0,0,1,1466,3965.175483951016) translate(117.77777777777777 34)"/><path d="M1461 3900.18h59v60h-59z" stroke="#000" stroke-width="2" fill="#fff"/><use xlink:href="#k" transform="matrix(1,0,0,1,1466,3905.175483951016) translate(13.38888888888889 34)"/><path d="M1521 3900.18h59v60h-59z" stroke="#000" stroke-width="2" fill="#fff"/><use xlink:href="#l" transform="matrix(1,0,0,1,1526,3905.175483951016) translate(13.38888888888889 34)"/><path d="M1581 3900.18h59v60h-59z" stroke="#000" stroke-width="2" fill="#fff"/><use xlink:href="#m" transform="matrix(1,0,0,1,1586,3905.175483951016) translate(13.38888888888889 34)"/><path d="M1565.22 3885.6c0 8.05-6.37 14.58-14.22 14.58-7.85 0-14.22-6.53-14.22-14.57v-43.7c0-8.04 6.37-14.56 14.22-14.56 7.85 0 14.22 6.52 14.22 14.57zM1625.22 3885.6c0 8.05-6.37 14.58-14.22 14.58-7.85 0-14.22-6.53-14.22-14.57v-43.7c0-8.04 6.37-14.56 14.22-14.56 7.85 0 14.22 6.52 14.22 14.57z" stroke="#000" stroke-width="2" fill-opacity="0"/><path d="M1592 4060.1c0 20.92-17.9 37.88-40 37.88s-40-16.96-40-37.9c0-20.92 17.9-37.9 40-37.9s40 16.98 40 37.9z" stroke="#000" stroke-width="2" fill="#fff"/><path d="M1551.7 4059.18l-42.7.5-7.8-.52-6.8-.75-6.08-.92-5.56-1.08-5.15-1.24-4.8-1.36-4.53-1.5-4.3-1.62-4.1-1.75-3.92-1.87-3.78-2-3.64-2.12-3.54-2.27-3.46-2.42-3.36-2.58-3.3-2.75-3.22-2.94-3.18-3.14-2-2.1-1.3-1.5-1.35-1.67-1.42-1.9-1.48-2.2-1.57-2.54-1.66-2.95-1.77-3.45-1.87-4.1-2-4.92-2.15-5.97-2.3-7.36-2.46-9.24-2.64-11.85-2.78-15.56-2.87-21.12-2.8-29.9-2.3-45.65-.55-92.1" stroke="#000" stroke-width="2" fill="none"/><path d="M1554.7 4060.14l-3 .04-.02-2 3-.04zM1395.83 3759.97l-9.27.06 4.55-14.3z"/><path d="M1397.2 3760.97l-12 .07 5.9-18.54zm-9.27-1.95l6.52-.04-3.32-10z"/><path d="M1358.5 3828.5c0 14.07-11.86 25.48-26.5 25.48s-26.5-11.4-26.5-25.5c0-14.07 11.86-25.48 26.5-25.48s26.5 11.4 26.5 25.5z" stroke="#000" stroke-width="2" fill="#fff"/><path d="M1331 3826.15l.1-2.98.24-2.82.4-2.7.57-2.65.73-2.6.9-2.6 1.08-2.68 1.35-2.8 1.7-3 2.2-3.45 3.16-4.36 18.44-22.72 2.2-3.43 1.68-3.02 1.35-2.8.5-1.25" stroke="#000" stroke-width="2" fill="none"/><path d="M1332 3826.3l-.17.97-.83-.1-1.2.15.2-1.32zM1372.25 3760.57l-9.1-1.8 7.3-13.1z"/><path d="M1373.4 3761.8l-11.8-2.3 9.48-17zm-8.7-3.74l6.4 1.26-1.27-10.47z"/><defs><path d="M24-231v-30h32v30H24zM24 0v-190h32V0H24" id="p"/><path d="M85-194c31 0 48 13 60 33l-1-100h32l1 261h-30c-2-10 0-23-3-31C134-8 116 4 85 4 32 4 16-35 15-94c0-66 23-100 70-100zm9 24c-40 0-46 34-46 75 0 40 6 74 45 74 42 0 51-32 51-76 0-42-9-74-50-73" id="q"/><path d="M24 0v-261h32V0H24" id="r"/><path d="M100-194c63 0 86 42 84 106H49c0 40 14 67 53 68 26 1 43-12 49-29l28 8c-11 28-37 45-77 45C44 4 14-33 15-96c1-61 26-98 85-98zm52 81c6-60-76-77-97-28-3 7-6 17-6 28h103" id="s"/><g id="a"><use transform="matrix(0.1111111111111111,0,0,0.1111111111111111,0,0)" xlink:href="#p"/><use transform="matrix(0.1111111111111111,0,0,0.1111111111111111,8.777777777777777,0)" xlink:href="#q"/><use transform="matrix(0.1111111111111111,0,0,0.1111111111111111,31,0)" xlink:href="#r"/><use transform="matrix(0.1111111111111111,0,0,0.1111111111111111,39.77777777777778,0)" xlink:href="#s"/></g><path d="M135-143c-3-34-86-38-87 0 15 53 115 12 119 90S17 21 10-45l28-5c4 36 97 45 98 0-10-56-113-15-118-90-4-57 82-63 122-42 12 7 21 19 24 35" id="t"/><path d="M115-194c55 1 70 41 70 98S169 2 115 4C84 4 66-9 55-30l1 105H24l-1-265h31l2 30c10-21 28-34 59-34zm-8 174c40 0 45-34 45-75s-6-73-45-74c-42 0-51 32-51 76 0 43 10 73 51 73" id="u"/><g id="b"><use transform="matrix(0.08641975308641976,0,0,0.08641975308641976,0,0)" xlink:href="#s"/><use transform="matrix(0.08641975308641976,0,0,0.08641975308641976,17.283950617283953,0)" xlink:href="#t"/><use transform="matrix(0.08641975308641976,0,0,0.08641975308641976,32.839506172839506,0)" xlink:href="#u"/></g><g id="c"><use transform="matrix(0.08641975308641976,0,0,0.08641975308641976,0,0)" xlink:href="#s"/><use transform="matrix(0.08641975308641976,0,0,0.08641975308641976,17.283950617283953,0)" xlink:href="#p"/><use transform="matrix(0.08641975308641976,0,0,0.08641975308641976,24.111111111111114,0)" xlink:href="#u"/></g><path d="M59-47c-2 24 18 29 38 22v24C64 9 27 4 27-40v-127H5v-23h24l9-43h21v43h35v23H59v120" id="v"/><path d="M141-36C126-15 110 5 73 4 37 3 15-17 15-53c-1-64 63-63 125-63 3-35-9-54-41-54-24 1-41 7-42 31l-33-3c5-37 33-52 76-52 45 0 72 20 72 64v82c-1 20 7 32 28 27v20c-31 9-61-2-59-35zM48-53c0 20 12 33 32 33 41-3 63-29 60-74-43 2-92-5-92 41" id="w"/><g id="d"><use transform="matrix(0.08641975308641976,0,0,0.08641975308641976,0,0)" xlink:href="#t"/><use transform="matrix(0.08641975308641976,0,0,0.08641975308641976,15.555555555555557,0)" xlink:href="#v"/><use transform="matrix(0.08641975308641976,0,0,0.08641975308641976,24.19753086419753,0)" xlink:href="#w"/><use transform="matrix(0.08641975308641976,0,0,0.08641975308641976,41.48148148148148,0)" xlink:href="#v"/><use transform="matrix(0.08641975308641976,0,0,0.08641975308641976,50.123456790123456,0)" xlink:href="#s"/></g><path d="M197-105C143-61 61-141 14-95v-38c53-45 135 36 183-10v38" id="x"/><use transform="matrix(0.08641975308641976,0,0,0.08641975308641976,0,0)" xlink:href="#x" id="e"/><path d="M137-138c1-29-70-34-71-4 15 46 118 7 119 86 1 83-164 76-172 9l43-7c4 19 20 25 44 25 33 8 57-30 24-41C81-84 22-81 20-136c-2-80 154-74 161-7" id="y"/><path d="M115-3C79 11 28 4 28-45v-112H4v-33h27l15-45h31v45h36v33H77v99c-1 23 16 31 38 25v30" id="z"/><path d="M133-34C117-15 103 5 69 4 32 3 11-16 11-54c-1-60 55-63 116-61 1-26-3-47-28-47-18 1-26 9-28 27l-52-2c7-38 36-58 82-57s74 22 75 68l1 82c-1 14 12 18 25 15v27c-30 8-71 5-69-32zm-48 3c29 0 43-24 42-57-32 0-66-3-65 30 0 17 8 27 23 27" id="A"/><path d="M195-6C206 82 75 100 31 46c-4-6-6-13-8-21l49-6c3 16 16 24 34 25 40 0 42-37 40-79-11 22-30 35-61 35-53 0-70-43-70-97 0-56 18-96 73-97 30 0 46 14 59 34l2-30h47zm-90-29c32 0 41-27 41-63 0-35-9-62-40-62-32 0-39 29-40 63 0 36 9 62 39 62" id="B"/><path d="M185-48c-13 30-37 53-82 52C43 2 14-33 14-96s30-98 90-98c62 0 83 45 84 108H66c0 31 8 55 39 56 18 0 30-7 34-22zm-45-69c5-46-57-63-70-21-2 6-4 13-4 21h74" id="C"/><path d="M220-157c-53 9-28 100-34 157h-49v-107c1-27-5-49-29-50C55-147 81-57 75 0H25l-1-190h47c2 12-1 28 3 38 10-53 101-56 108 0 13-22 24-43 59-42 82 1 51 116 57 194h-49v-107c-1-25-5-48-29-50" id="D"/><path d="M25-224v-37h50v37H25zM25 0v-190h50V0H25" id="E"/><path d="M-4 44V30h207v14H-4" id="F"/><path d="M135-150c-39-12-60 13-60 57V0H25l-1-190h47c2 13-1 29 3 40 6-28 27-53 61-41v41" id="G"/><path d="M85 4C-2 5 27-109 22-190h50c7 57-23 150 33 157 60-5 35-97 40-157h50l1 190h-47c-2-12 1-28-3-38-12 25-28 42-61 42" id="H"/><path d="M135-194c87-1 58 113 63 194h-50c-7-57 23-157-34-157-59 0-34 97-39 157H25l-1-190h47c2 12-1 28 3 38 12-26 28-41 61-42" id="I"/><g id="f"><use transform="matrix(0.08641975308641976,0,0,0.08641975308641976,0,0)" xlink:href="#y"/><use transform="matrix(0.08641975308641976,0,0,0.08641975308641976,17.283950617283953,0)" xlink:href="#z"/><use transform="matrix(0.08641975308641976,0,0,0.08641975308641976,27.567901234567906,0)" xlink:href="#A"/><use transform="matrix(0.08641975308641976,0,0,0.08641975308641976,44.85185185185187,0)" xlink:href="#B"/><use transform="matrix(0.08641975308641976,0,0,0.08641975308641976,63.777777777777786,0)" xlink:href="#C"/><use transform="matrix(0.08641975308641976,0,0,0.08641975308641976,81.06172839506173,0)" xlink:href="#D"/><use transform="matrix(0.08641975308641976,0,0,0.08641975308641976,108.71604938271604,0)" xlink:href="#E"/><use transform="matrix(0.08641975308641976,0,0,0.08641975308641976,117.35802469135801,0)" xlink:href="#B"/><use transform="matrix(0.08641975308641976,0,0,0.08641975308641976,136.28395061728395,0)" xlink:href="#F"/><use transform="matrix(0.08641975308641976,0,0,0.08641975308641976,153.5679012345679,0)" xlink:href="#G"/><use transform="matrix(0.08641975308641976,0,0,0.08641975308641976,165.66666666666666,0)" xlink:href="#H"/><use transform="matrix(0.08641975308641976,0,0,0.08641975308641976,184.59259259259258,0)" xlink:href="#I"/></g><path d="M127-220V0H93v-220H8v-28h204v28h-85" id="J"/><path d="M47-170H22l-4-78h33" id="K"/><g id="g"><use transform="matrix(0.14814814814814817,0,0,0.14814814814814817,0,0)" xlink:href="#J"/><use transform="matrix(0.14814814814814817,0,0,0.14814814814814817,32.44444444444445,0)" xlink:href="#K"/><use transform="matrix(0.14814814814814817,0,0,0.14814814814814817,42.518518518518526,0)" xlink:href="#t"/></g><path d="M212-179c-10-28-35-45-73-45-59 0-87 40-87 99 0 60 29 101 89 101 43 0 62-24 78-52l27 14C228-24 195 4 139 4 59 4 22-46 18-125c-6-104 99-153 187-111 19 9 31 26 39 46" id="L"/><path d="M160-131c35 5 61 23 61 61C221 17 115-2 30 0v-248c76 3 177-17 177 60 0 33-19 50-47 57zm-97-11c50-1 110 9 110-42 0-47-63-36-110-37v79zm0 115c55-2 124 14 124-45 0-56-70-42-124-44v89" id="M"/><g id="h"><use transform="matrix(0.14814814814814817,0,0,0.14814814814814817,0,0)" xlink:href="#J"/><use transform="matrix(0.14814814814814817,0,0,0.14814814814814817,32.44444444444445,0)" xlink:href="#L"/><use transform="matrix(0.14814814814814817,0,0,0.14814814814814817,70.81481481481482,0)" xlink:href="#M"/></g><path d="M96-169c-40 0-48 33-48 73s9 75 48 75c24 0 41-14 43-38l32 2c-6 37-31 61-74 61-59 0-76-41-82-99-10-93 101-131 147-64 4 7 5 14 7 22l-32 3c-4-21-16-35-41-35" id="N"/><path d="M100-194c62-1 85 37 85 99 1 63-27 99-86 99S16-35 15-95c0-66 28-99 85-99zM99-20c44 1 53-31 53-75 0-43-8-75-51-75s-53 32-53 75 10 74 51 75" id="O"/><path d="M114-163C36-179 61-72 57 0H25l-1-190h30c1 12-1 29 2 39 6-27 23-49 58-41v29" id="P"/><g id="i"><use transform="matrix(0.1111111111111111,0,0,0.1111111111111111,0,0)" xlink:href="#N"/><use transform="matrix(0.1111111111111111,0,0,0.1111111111111111,20,0)" xlink:href="#O"/><use transform="matrix(0.1111111111111111,0,0,0.1111111111111111,42.22222222222222,0)" xlink:href="#P"/><use transform="matrix(0.1111111111111111,0,0,0.1111111111111111,55.44444444444444,0)" xlink:href="#s"/></g><path d="M101-251c68 0 85 55 85 127S166 4 100 4C33 4 14-52 14-124c0-73 17-127 87-127zm-1 229c47 0 54-49 54-102s-4-102-53-102c-51 0-55 48-55 102 0 53 5 102 54 102" id="Q"/><use transform="matrix(0.1111111111111111,0,0,0.1111111111111111,0,0)" xlink:href="#Q" id="j"/><use transform="matrix(0.1111111111111111,0,0,0.1111111111111111,0,0)" xlink:href="#Q" id="k"/><path d="M27 0v-27h64v-190l-56 39v-29l58-41h29v221h61V0H27" id="R"/><use transform="matrix(0.1111111111111111,0,0,0.1111111111111111,0,0)" xlink:href="#R" id="l"/><path d="M101-251c82-7 93 87 43 132L82-64C71-53 59-42 53-27h129V0H18c2-99 128-94 128-182 0-28-16-43-45-43s-46 15-49 41l-32-3c6-41 34-60 81-64" id="S"/><use transform="matrix(0.1111111111111111,0,0,0.1111111111111111,0,0)" xlink:href="#S" id="m"/><use transform="matrix(0.1111111111111111,0,0,0.1111111111111111,0,0)" xlink:href="#R" id="n"/><use transform="matrix(0.1111111111111111,0,0,0.1111111111111111,0,0)" xlink:href="#S" id="o"/></defs></g></svg>