<svg xmlns="http://www.w3.org/2000/svg" xmlns:xlink="http://www.w3.org/1999/xlink" xmlns:lucid="lucid" width="813" height="834"><g transform="translate(-2642 -3441)" lucid:page-tab-id="0_0"><path d="M2660 3460h780v800h-780z" stroke="#000" stroke-width="2" fill-opacity="0"/><path d="M2725.22 3885.43c0 8.05-6.37 14.57-14.22 14.57-7.85 0-14.22-6.52-14.22-14.57v-43.7c0-8.04 6.37-14.57 14.22-14.57 7.85 0 14.22 6.53 14.22 14.57zM2795.53 4163.06c0 14.23-10.68 25.76-23.84 25.76-13.17 0-23.84-11.53-23.84-25.76v-77.3c0-14.22 10.67-25.76 23.83-25.76 13.15 0 23.83 11.54 23.83 25.76z" stroke="#000" stroke-width="2" fill-opacity="0"/><path d="M2811 4057.9c0 20.92-17.9 37.9-40 37.9s-40-16.98-40-37.9c0-20.93 17.9-37.9 40-37.9s40 16.97 40 37.9z" stroke="#000" stroke-width="2" fill="#fff"/><use xlink:href="#a" transform="matrix(1,0,0,1,2731,4019.9999999999995) translate(9 49.5)"/><path d="M2881 3481.5h360v260h-360z" stroke="#000" stroke-width="2" fill="#fff"/><path d="M2881 3561.5h100v60h-100z" stroke="#000" stroke-width="2" fill="#fff"/><use xlink:href="#b" transform="matrix(1,0,0,1,2886,3566.5) translate(39.876543209876544 31.22222222222222)"/><path d="M2881 3621.5h100v60h-100z" stroke="#000" stroke-width="2" fill="#fff"/><use xlink:href="#c" transform="matrix(1,0,0,1,2886,3626.5) translate(48.60493827160494 31.22222222222222)"/><path d="M2881 3681.5h100v60h-100z" stroke="#000" stroke-width="2" fill="#fff"/><use xlink:href="#d" transform="matrix(1,0,0,1,2886,3686.5) translate(22.592592592592595 31.22222222222222)"/><path d="M2981 3561.5h260v60h-260z" stroke="#000" stroke-width="2" fill="#fff"/><use xlink:href="#e" transform="matrix(1,0,0,1,2986,3566.5) translate(44.58024691358024 31.22222222222222)"/><path d="M2981 3621.5h260v60h-260z" stroke="#000" stroke-width="2" fill="#fff"/><use xlink:href="#f" transform="matrix(1,0,0,1,2986,3626.5) translate(41.08024691358024 31.22222222222222)"/><path d="M2981 3681.5h260v60h-260z" stroke="#000" stroke-width="2" fill="#fff"/><use xlink:href="#g" transform="matrix(1,0,0,1,2986,3686.5) translate(72.3641975308642 31.22222222222222)"/><path d="M2881 3480h360v83h-360z" stroke="#000" stroke-width="2" fill="#fff"/><use xlink:href="#h" transform="matrix(1,0,0,1,2886,3485) translate(79.81481481481481 51.66666666666667)"/><use xlink:href="#i" transform="matrix(1,0,0,1,2886,3485) translate(163.8148148148148 51.66666666666667)"/><path d="M2681 3960h179v60h-179z" stroke="#000" stroke-width="2" fill="#fff"/><use xlink:href="#j" transform="matrix(1,0,0,1,2686,3965) translate(29 34)"/><use xlink:href="#k" transform="matrix(1,0,0,1,2686,3965) translate(117.77777777777777 34)"/><path d="M2681 3900h59v60h-59z" stroke="#000" stroke-width="2" fill="#fff"/><use xlink:href="#l" transform="matrix(1,0,0,1,2686,3905) translate(13.38888888888889 34)"/><path d="M2741 3900h59v60h-59z" stroke="#000" stroke-width="2" fill="#fff"/><use xlink:href="#m" transform="matrix(1,0,0,1,2746,3905) translate(13.38888888888889 34)"/><path d="M2801 3900h59v60h-59z" stroke="#000" stroke-width="2" fill="#fff"/><use xlink:href="#n" transform="matrix(1,0,0,1,2806,3905) translate(13.38888888888889 34)"/><path d="M2785.22 3885.43c0 8.05-6.37 14.57-14.22 14.57-7.85 0-14.22-6.52-14.22-14.57v-43.7c0-8.04 6.37-14.57 14.22-14.57 7.85 0 14.22 6.53 14.22 14.57zM2845.22 3885.43c0 8.05-6.37 14.57-14.22 14.57-7.85 0-14.22-6.52-14.22-14.57v-43.7c0-8.04 6.37-14.57 14.22-14.57 7.85 0 14.22 6.53 14.22 14.57zM3005.22 3885.43c0 8.05-6.37 14.57-14.22 14.57-7.85 0-14.22-6.52-14.22-14.57v-43.7c0-8.04 6.37-14.57 14.22-14.57 7.85 0 14.22 6.53 14.22 14.57zM3075.53 4163.06c0 14.23-10.68 25.76-23.84 25.76-13.17 0-23.84-11.53-23.84-25.76v-77.3c0-14.22 10.67-25.76 23.83-25.76 13.15 0 23.83 11.54 23.83 25.76z" stroke="#000" stroke-width="2" fill-opacity="0"/><path d="M3091 4057.9c0 20.92-17.9 37.9-40 37.9s-40-16.98-40-37.9c0-20.93 17.9-37.9 40-37.9s40 16.97 40 37.9z" stroke="#000" stroke-width="2" fill="#fff"/><use xlink:href="#a" transform="matrix(1,0,0,1,3011,4019.9999999999995) translate(9 49.5)"/><path d="M2961 3960h179v60h-179z" stroke="#000" stroke-width="2" fill="#fff"/><use xlink:href="#j" transform="matrix(1,0,0,1,2966,3965) translate(29 34)"/><use xlink:href="#o" transform="matrix(1,0,0,1,2966,3965) translate(117.77777777777777 34)"/><path d="M2961 3900h59v60h-59z" stroke="#000" stroke-width="2" fill="#fff"/><use xlink:href="#l" transform="matrix(1,0,0,1,2966,3905) translate(13.38888888888889 34)"/><path d="M3021 3900h59v60h-59z" stroke="#000" stroke-width="2" fill="#fff"/><use xlink:href="#m" transform="matrix(1,0,0,1,3026,3905) translate(13.38888888888889 34)"/><path d="M3081 3900h59v60h-59z" stroke="#000" stroke-width="2" fill="#fff"/><use xlink:href="#n" transform="matrix(1,0,0,1,3086,3905) translate(13.38888888888889 34)"/><path d="M3065.22 3885.43c0 8.05-6.37 14.57-14.22 14.57-7.85 0-14.22-6.52-14.22-14.57v-43.7c0-8.04 6.37-14.57 14.22-14.57 7.85 0 14.22 6.53 14.22 14.57zM3125.22 3885.43c0 8.05-6.37 14.57-14.22 14.57-7.85 0-14.22-6.52-14.22-14.57v-43.7c0-8.04 6.37-14.57 14.22-14.57 7.85 0 14.22 6.53 14.22 14.57zM3285.22 3885.6c0 8.05-6.37 14.58-14.22 14.58-7.85 0-14.22-6.53-14.22-14.57v-43.7c0-8.04 6.37-14.56 14.22-14.56 7.85 0 14.22 6.52 14.22 14.57zM3355.53 4163.24c0 14.22-10.68 25.76-23.84 25.76-13.17 0-23.84-11.54-23.84-25.76v-77.3c0-14.23 10.67-25.76 23.83-25.76 13.15 0 23.83 11.53 23.83 25.76z" stroke="#000" stroke-width="2" fill-opacity="0"/><path d="M3372 4057.9c0 20.92-17.9 37.9-40 37.9s-40-16.98-40-37.9c0-20.93 17.9-37.9 40-37.9s40 16.97 40 37.9z" stroke="#000" stroke-width="2" fill="#fff"/><use xlink:href="#a" transform="matrix(1,0,0,1,3292,4019.9999999999995) translate(9 49.5)"/><path d="M3241 3960.18h179v60h-179z" stroke="#000" stroke-width="2" fill="#fff"/><use xlink:href="#j" transform="matrix(1,0,0,1,3246,3965.175483951016) translate(29 34)"/><use xlink:href="#p" transform="matrix(1,0,0,1,3246,3965.175483951016) translate(117.77777777777777 34)"/><path d="M3241 3900.18h59v60h-59z" stroke="#000" stroke-width="2" fill="#fff"/><use xlink:href="#l" transform="matrix(1,0,0,1,3246,3905.175483951016) translate(13.38888888888889 34)"/><path d="M3301 3900.18h59v60h-59z" stroke="#000" stroke-width="2" fill="#fff"/><use xlink:href="#m" transform="matrix(1,0,0,1,3306,3905.175483951016) translate(13.38888888888889 34)"/><path d="M3361 3900.18h59v60h-59z" stroke="#000" stroke-width="2" fill="#fff"/><use xlink:href="#n" transform="matrix(1,0,0,1,3366,3905.175483951016) translate(13.38888888888889 34)"/><path d="M3345.22 3885.6c0 8.05-6.37 14.58-14.22 14.58-7.85 0-14.22-6.53-14.22-14.57v-43.7c0-8.04 6.37-14.56 14.22-14.56 7.85 0 14.22 6.52 14.22 14.57zM3405.22 3885.6c0 8.05-6.37 14.58-14.22 14.58-7.85 0-14.22-6.53-14.22-14.57v-43.7c0-8.04 6.37-14.56 14.22-14.56 7.85 0 14.22 6.52 14.22 14.57z" stroke="#000" stroke-width="2" fill-opacity="0"/><path d="M3092 4177.9c0 20.92-17.9 37.9-40 37.9s-40-16.98-40-37.9c0-20.93 17.9-37.9 40-37.9s40 16.97 40 37.9z" stroke="#000" stroke-width="2" fill="#fff"/><path d="M3052.02 4179.63l33.77-2.18 19.4-2.1 12.85-1.93 9.24-1.8 7-1.66 5.54-1.56 4.5-1.48 3.74-1.4 3.16-1.35 2.73-1.3 2.38-1.25 2.1-1.22 1.87-1.2 1.68-1.18 1.52-1.16 1.4-1.16 1.27-1.16 1.17-1.16 1.1-1.18 1-1.2.97-1.2.9-1.26.85-1.28.8-1.34.75-1.4.72-1.47.7-1.56.54-1.4.76-2.15.86-2.84 1-3.84 1.16-5.43 1.37-8.02 1.6-12.56 1.82-21.5 1.75-41.75-.12-105.16-4.6-176.1M3052.02 4179.63l-3 .2" stroke="#000" stroke-width="2" fill="none"/><path d="M3185.9 3759.87l-9.26.25 4.26-14.4z"/><path d="M3187.3 3760.84l-12 .3 5.52-18.64zm-9.3-1.76l6.5-.17-3.5-9.93z"/><defs><path d="M24-231v-30h32v30H24zM24 0v-190h32V0H24" id="q"/><path d="M85-194c31 0 48 13 60 33l-1-100h32l1 261h-30c-2-10 0-23-3-31C134-8 116 4 85 4 32 4 16-35 15-94c0-66 23-100 70-100zm9 24c-40 0-46 34-46 75 0 40 6 74 45 74 42 0 51-32 51-76 0-42-9-74-50-73" id="r"/><path d="M24 0v-261h32V0H24" id="s"/><path d="M100-194c63 0 86 42 84 106H49c0 40 14 67 53 68 26 1 43-12 49-29l28 8c-11 28-37 45-77 45C44 4 14-33 15-96c1-61 26-98 85-98zm52 81c6-60-76-77-97-28-3 7-6 17-6 28h103" id="t"/><g id="a"><use transform="matrix(0.1111111111111111,0,0,0.1111111111111111,0,0)" xlink:href="#q"/><use transform="matrix(0.1111111111111111,0,0,0.1111111111111111,8.777777777777777,0)" xlink:href="#r"/><use transform="matrix(0.1111111111111111,0,0,0.1111111111111111,31,0)" xlink:href="#s"/><use transform="matrix(0.1111111111111111,0,0,0.1111111111111111,39.77777777777778,0)" xlink:href="#t"/></g><path d="M135-143c-3-34-86-38-87 0 15 53 115 12 119 90S17 21 10-45l28-5c4 36 97 45 98 0-10-56-113-15-118-90-4-57 82-63 122-42 12 7 21 19 24 35" id="u"/><path d="M115-194c55 1 70 41 70 98S169 2 115 4C84 4 66-9 55-30l1 105H24l-1-265h31l2 30c10-21 28-34 59-34zm-8 174c40 0 45-34 45-75s-6-73-45-74c-42 0-51 32-51 76 0 43 10 73 51 73" id="v"/><g id="b"><use transform="matrix(0.08641975308641976,0,0,0.08641975308641976,0,0)" xlink:href="#t"/><use transform="matrix(0.08641975308641976,0,0,0.08641975308641976,17.283950617283953,0)" xlink:href="#u"/><use transform="matrix(0.08641975308641976,0,0,0.08641975308641976,32.839506172839506,0)" xlink:href="#v"/></g><g id="c"><use transform="matrix(0.08641975308641976,0,0,0.08641975308641976,0,0)" xlink:href="#t"/><use transform="matrix(0.08641975308641976,0,0,0.08641975308641976,17.283950617283953,0)" xlink:href="#q"/><use transform="matrix(0.08641975308641976,0,0,0.08641975308641976,24.111111111111114,0)" xlink:href="#v"/></g><path d="M59-47c-2 24 18 29 38 22v24C64 9 27 4 27-40v-127H5v-23h24l9-43h21v43h35v23H59v120" id="w"/><path d="M141-36C126-15 110 5 73 4 37 3 15-17 15-53c-1-64 63-63 125-63 3-35-9-54-41-54-24 1-41 7-42 31l-33-3c5-37 33-52 76-52 45 0 72 20 72 64v82c-1 20 7 32 28 27v20c-31 9-61-2-59-35zM48-53c0 20 12 33 32 33 41-3 63-29 60-74-43 2-92-5-92 41" id="x"/><g id="d"><use transform="matrix(0.08641975308641976,0,0,0.08641975308641976,0,0)" xlink:href="#u"/><use transform="matrix(0.08641975308641976,0,0,0.08641975308641976,15.555555555555557,0)" xlink:href="#w"/><use transform="matrix(0.08641975308641976,0,0,0.08641975308641976,24.19753086419753,0)" xlink:href="#x"/><use transform="matrix(0.08641975308641976,0,0,0.08641975308641976,41.48148148148148,0)" xlink:href="#w"/><use transform="matrix(0.08641975308641976,0,0,0.08641975308641976,50.123456790123456,0)" xlink:href="#t"/></g><path d="M101-251c68 0 84 54 84 127C185-50 166 4 99 4S15-52 14-124c-1-75 17-127 87-127zm-1 216c37-5 36-46 36-89s4-89-36-89c-39 0-36 45-36 89 0 43-3 85 36 89" id="y"/><path d="M144 0l-44-69L55 0H2l70-98-66-92h53l41 62 40-62h54l-67 91 71 99h-54" id="z"/><path d="M121-226c-27-7-43 5-38 36h38v33H83V0H34v-157H6v-33h28c-9-59 32-81 87-68v32" id="A"/><path d="M182-182c0 78-84 86-111 141h115V0H12c-6-101 99-100 120-180 1-22-12-31-33-32-23 0-32 14-35 34l-49-3c5-45 32-70 84-70 51 0 83 22 83 69" id="B"/><path d="M99-251c69 0 84 53 88 123 5 99-61 162-144 118-15-8-21-25-26-45l46-6c4 31 50 33 63 7 7-15 12-36 12-60-9 18-29 28-54 28-48 0-72-32-72-82 0-55 31-83 87-83zm-1 128c24 0 37-16 37-39 0-27-10-51-37-51-25 0-35 19-35 45 0 25 10 45 35 45" id="C"/><path d="M133-34C117-15 103 5 69 4 32 3 11-16 11-54c-1-60 55-63 116-61 1-26-3-47-28-47-18 1-26 9-28 27l-52-2c7-38 36-58 82-57s74 22 75 68l1 82c-1 14 12 18 25 15v27c-30 8-71 5-69-32zm-48 3c29 0 43-24 42-57-32 0-66-3-65 30 0 17 8 27 23 27" id="D"/><path d="M185-48c-13 30-37 53-82 52C43 2 14-33 14-96s30-98 90-98c62 0 83 45 84 108H66c0 31 8 55 39 56 18 0 30-7 34-22zm-45-69c5-46-57-63-70-21-2 6-4 13-4 21h74" id="E"/><g id="e"><use transform="matrix(0.08641975308641976,0,0,0.08641975308641976,0,0)" xlink:href="#y"/><use transform="matrix(0.08641975308641976,0,0,0.08641975308641976,17.283950617283953,0)" xlink:href="#z"/><use transform="matrix(0.08641975308641976,0,0,0.08641975308641976,34.567901234567906,0)" xlink:href="#A"/><use transform="matrix(0.08641975308641976,0,0,0.08641975308641976,44.851851851851855,0)" xlink:href="#B"/><use transform="matrix(0.08641975308641976,0,0,0.08641975308641976,62.13580246913581,0)" xlink:href="#C"/><use transform="matrix(0.08641975308641976,0,0,0.08641975308641976,79.41975308641976,0)" xlink:href="#D"/><use transform="matrix(0.08641975308641976,0,0,0.08641975308641976,96.70370370370371,0)" xlink:href="#C"/><use transform="matrix(0.08641975308641976,0,0,0.08641975308641976,113.98765432098767,0)" xlink:href="#B"/><use transform="matrix(0.08641975308641976,0,0,0.08641975308641976,131.27160493827162,0)" xlink:href="#E"/><use transform="matrix(0.08641975308641976,0,0,0.08641975308641976,148.55555555555557,0)" xlink:href="#y"/></g><g id="f"><use transform="matrix(0.08641975308641976,0,0,0.08641975308641976,0,0)" xlink:href="#y"/><use transform="matrix(0.08641975308641976,0,0,0.08641975308641976,17.283950617283953,0)" xlink:href="#z"/><use transform="matrix(0.08641975308641976,0,0,0.08641975308641976,34.567901234567906,0)" xlink:href="#y"/><use transform="matrix(0.08641975308641976,0,0,0.08641975308641976,51.851851851851855,0)" xlink:href="#y"/><use transform="matrix(0.08641975308641976,0,0,0.08641975308641976,69.13580246913581,0)" xlink:href="#y"/><use transform="matrix(0.08641975308641976,0,0,0.08641975308641976,86.41975308641976,0)" xlink:href="#D"/><use transform="matrix(0.08641975308641976,0,0,0.08641975308641976,103.70370370370371,0)" xlink:href="#y"/><use transform="matrix(0.08641975308641976,0,0,0.08641975308641976,120.98765432098767,0)" xlink:href="#y"/><use transform="matrix(0.08641975308641976,0,0,0.08641975308641976,138.27160493827162,0)" xlink:href="#B"/><use transform="matrix(0.08641975308641976,0,0,0.08641975308641976,155.55555555555557,0)" xlink:href="#y"/></g><path d="M84 4C32 4 15-41 15-95c0-55 18-99 73-99 29 0 47 12 58 34l2-30h48l-1 265h-49V-32C136-9 114 4 84 4zm21-34c32 0 41-29 41-66 0-36-9-64-40-64-33 0-39 30-40 65 0 43 13 65 39 65" id="F"/><path d="M85 4C-2 5 27-109 22-190h50c7 57-23 150 33 157 60-5 35-97 40-157h50l1 190h-47c-2-12 1-28-3-38-12 25-28 42-61 42" id="G"/><path d="M88-194c31-1 46 15 58 34l-1-101h50l1 261h-48c-2-10 0-23-3-31C134-8 116 4 84 4 32 4 16-41 15-95c0-56 19-97 73-99zm17 164c33 0 40-30 41-66 1-37-9-64-41-64s-38 30-39 65c0 43 13 65 39 65" id="H"/><g id="g"><use transform="matrix(0.08641975308641976,0,0,0.08641975308641976,0,0)" xlink:href="#F"/><use transform="matrix(0.08641975308641976,0,0,0.08641975308641976,18.925925925925927,0)" xlink:href="#G"/><use transform="matrix(0.08641975308641976,0,0,0.08641975308641976,37.851851851851855,0)" xlink:href="#E"/><use transform="matrix(0.08641975308641976,0,0,0.08641975308641976,55.13580246913581,0)" xlink:href="#G"/><use transform="matrix(0.08641975308641976,0,0,0.08641975308641976,74.06172839506173,0)" xlink:href="#E"/><use transform="matrix(0.08641975308641976,0,0,0.08641975308641976,91.34567901234568,0)" xlink:href="#H"/></g><path d="M127-220V0H93v-220H8v-28h204v28h-85" id="I"/><path d="M47-170H22l-4-78h33" id="J"/><g id="h"><use transform="matrix(0.14814814814814817,0,0,0.14814814814814817,0,0)" xlink:href="#I"/><use transform="matrix(0.14814814814814817,0,0,0.14814814814814817,32.44444444444445,0)" xlink:href="#J"/><use transform="matrix(0.14814814814814817,0,0,0.14814814814814817,42.518518518518526,0)" xlink:href="#u"/></g><path d="M212-179c-10-28-35-45-73-45-59 0-87 40-87 99 0 60 29 101 89 101 43 0 62-24 78-52l27 14C228-24 195 4 139 4 59 4 22-46 18-125c-6-104 99-153 187-111 19 9 31 26 39 46" id="K"/><path d="M160-131c35 5 61 23 61 61C221 17 115-2 30 0v-248c76 3 177-17 177 60 0 33-19 50-47 57zm-97-11c50-1 110 9 110-42 0-47-63-36-110-37v79zm0 115c55-2 124 14 124-45 0-56-70-42-124-44v89" id="L"/><g id="i"><use transform="matrix(0.14814814814814817,0,0,0.14814814814814817,0,0)" xlink:href="#I"/><use transform="matrix(0.14814814814814817,0,0,0.14814814814814817,32.44444444444445,0)" xlink:href="#K"/><use transform="matrix(0.14814814814814817,0,0,0.14814814814814817,70.81481481481482,0)" xlink:href="#L"/></g><path d="M96-169c-40 0-48 33-48 73s9 75 48 75c24 0 41-14 43-38l32 2c-6 37-31 61-74 61-59 0-76-41-82-99-10-93 101-131 147-64 4 7 5 14 7 22l-32 3c-4-21-16-35-41-35" id="M"/><path d="M100-194c62-1 85 37 85 99 1 63-27 99-86 99S16-35 15-95c0-66 28-99 85-99zM99-20c44 1 53-31 53-75 0-43-8-75-51-75s-53 32-53 75 10 74 51 75" id="N"/><path d="M114-163C36-179 61-72 57 0H25l-1-190h30c1 12-1 29 2 39 6-27 23-49 58-41v29" id="O"/><g id="j"><use transform="matrix(0.1111111111111111,0,0,0.1111111111111111,0,0)" xlink:href="#M"/><use transform="matrix(0.1111111111111111,0,0,0.1111111111111111,20,0)" xlink:href="#N"/><use transform="matrix(0.1111111111111111,0,0,0.1111111111111111,42.22222222222222,0)" xlink:href="#O"/><use transform="matrix(0.1111111111111111,0,0,0.1111111111111111,55.44444444444444,0)" xlink:href="#t"/></g><path d="M101-251c68 0 85 55 85 127S166 4 100 4C33 4 14-52 14-124c0-73 17-127 87-127zm-1 229c47 0 54-49 54-102s-4-102-53-102c-51 0-55 48-55 102 0 53 5 102 54 102" id="P"/><use transform="matrix(0.1111111111111111,0,0,0.1111111111111111,0,0)" xlink:href="#P" id="k"/><use transform="matrix(0.1111111111111111,0,0,0.1111111111111111,0,0)" xlink:href="#P" id="l"/><path d="M27 0v-27h64v-190l-56 39v-29l58-41h29v221h61V0H27" id="Q"/><use transform="matrix(0.1111111111111111,0,0,0.1111111111111111,0,0)" xlink:href="#Q" id="m"/><path d="M101-251c82-7 93 87 43 132L82-64C71-53 59-42 53-27h129V0H18c2-99 128-94 128-182 0-28-16-43-45-43s-46 15-49 41l-32-3c6-41 34-60 81-64" id="R"/><use transform="matrix(0.1111111111111111,0,0,0.1111111111111111,0,0)" xlink:href="#R" id="n"/><use transform="matrix(0.1111111111111111,0,0,0.1111111111111111,0,0)" xlink:href="#Q" id="o"/><use transform="matrix(0.1111111111111111,0,0,0.1111111111111111,0,0)" xlink:href="#R" id="p"/></defs></g></svg>