<svg xmlns="http://www.w3.org/2000/svg" xmlns:xlink="http://www.w3.org/1999/xlink" xmlns:lucid="lucid" width="1673" height="581"><g transform="translate(-220 -4340)" lucid:page-tab-id="0_0"><path d="M1006 4360c-8.84 0-16 7.16-16 16v48c0 8.84 7.16 16 16 16h128c8.84 0 16-7.16 16-16v-48c0-8.84-7.16-16-16-16z" stroke="#000" stroke-width="2" fill="#fff"/><use xlink:href="#a" transform="matrix(1,0,0,1,998,4368) translate(27.555555555555557 37.333333333333336)"/><path d="M257 4721c-8.84 0-16 7.16-16 16v48c0 8.84 7.16 16 16 16h128c8.84 0 16-7.16 16-16v-48c0-8.84-7.16-16-16-16z" stroke="#000" stroke-width="2" fill="#fff"/><use xlink:href="#b" transform="matrix(1,0,0,1,249,4729) translate(27.62962962962962 37.333333333333336)"/><path d="M763.4 4720.74c-8.83 0-16 7.16-16 16v48c0 8.84 7.17 16 16 16h128c8.85 0 16-7.16 16-16v-48c0-8.84-7.15-16-16-16z" stroke="#000" stroke-width="2" fill="#fff"/><use xlink:href="#c" transform="matrix(1,0,0,1,755.4097813609434,4728.740224383549) translate(30.62962962962962 37.333333333333336)"/><path d="M1257 4720c-8.84 0-16 7.16-16 16v48c0 8.84 7.16 16 16 16h128c8.84 0 16-7.16 16-16v-48c0-8.84-7.16-16-16-16z" stroke="#000" stroke-width="2" fill="#fff"/><use xlink:href="#d" transform="matrix(1,0,0,1,1249,4728) translate(25.370370370370367 21.333333333333336)"/><use xlink:href="#e" transform="matrix(1,0,0,1,1249,4728) translate(48.33333333333333 53.333333333333336)"/><path d="M1740 4720c-8.84 0-16 7.16-16 16v48c0 8.84 7.16 16 16 16h128c8.84 0 16-7.16 16-16v-48c0-8.84-7.16-16-16-16z" stroke="#000" stroke-width="2" fill="#fff"/><use xlink:href="#f" transform="matrix(1,0,0,1,1732,4728) translate(30.592592592592595 37.333333333333336)"/><path d="M1405.03 4761H1402v-2h3.03zm10.1 0h-6.06v-2h6.05zm10.1 0h-6.07v-2h6.06zm10.08 0h-6.05v-2h6.06zm10.1 0h-6.05v-2h6.05zm10.1 0h-6.06v-2h6.05zm7.15 0h-3.12v-2h3.12zm214.87 0h-6.06v-2h6.06zm10.1 0h-6.07v-2h6.06zm10.08 0h-6.06v-2h6.06zm7.06 0h-3.02v-2h3.02zm-37.34 0h-5.07v-2h5.07zM1402 4761h-1v-2h1zM1719.76 4760l-14.26 4.64v-9.28z"/><path d="M1723 4760l-18.5 6v-12zm-16.5 3.26l10.03-3.26-10.03-3.26z"/><use xlink:href="#g" transform="matrix(1,0,0,1,1462.6505556240734,4728) translate(0.0049999999999954525 21.333333333333336)"/><use xlink:href="#h" transform="matrix(1,0,0,1,1462.6505556240734,4728) translate(108.00500000000001 21.333333333333336)"/><use xlink:href="#i" transform="matrix(1,0,0,1,1462.6505556240734,4728) translate(5.930925925925948 53.333333333333336)"/><use xlink:href="#j" transform="matrix(1,0,0,1,1462.6505556240734,4728) translate(121.26425925925928 53.333333333333336)"/><path d="M605.82 4507.1l-5.8.74-10.48 1.8-2.22.5-2.9.73-3.2.97-3.6 1.26-4.05 1.6-4.6 2.05-5.26 2.62-6.1 3.35-7.1 4.3-8.38 5.6-9.96 7.23-11.9 9.45-14.25 12.32-16.85 15.85-19.3 19.7-20.55 22.85-19.43 23.47-15.74 20.7-11.08 15.9-7.16 11.23-4.5 7.75-2.83 5.4-1.8 3.82-1.18 2.8-.8 2.1-.52 1.6-.35 1.27-.24 1-.17.82-.1.66-.06.57-.03.47v.42l-2-.04v-.47l.04-.54.07-.65.1-.74.18-.9.26-1.1.36-1.33.56-1.7.8-2.17 1.22-2.88 1.84-3.9 2.87-5.47 4.53-7.8 7.2-11.32 11.13-15.97 15.8-20.75 19.5-23.54 20.6-22.9 19.35-19.76 16.92-15.9 14.3-12.38 11.98-9.5 10.03-7.3 8.45-5.62 7.18-4.35 6.18-3.4 5.34-2.66 4.67-2.08 4.12-1.64 3.67-1.28 3.28-1 2.98-.76 2.3-.5 10.57-1.82 6.1-.77zm450.03-55.4l-.85.3-5.54 1.7-8.9 2.32-15.7 3.4-32.17 5.58-235.84 25.26v-2L992.4 4463l32.08-5.55 15.62-3.4 8.8-2.3 5.48-1.68.8-.3z"/><path d="M383.3 4720.3l-.24.7h-2.1l.42-1.3zM1058.07 4454.62l-5.18-7.7 14.42-4.1z"/><path d="M1058 4456.32l-6.7-9.98 18.7-5.34zm-3.5-8.8l3.63 5.4 6.5-8.3z"/><use xlink:href="#k" transform="matrix(1,0,0,1,605.8245603804697,4481.341969563559) translate(0 21.333333333333336)"/><use xlink:href="#l" transform="matrix(1,0,0,1,605.8245603804697,4481.341969563559) translate(113.99999999999999 21.333333333333336)"/><path d="M501.7 4672.7l-9.95 3.1-11.12 3.98-11.24 4.56-11.4 5.2-11.57 5.85-11.73 6.57-11.92 7.36-12.13 8.2-12.34 9.13-1.18-1.6 12.38-9.16 12.2-8.25 11.98-7.4 11.8-6.62 11.64-5.9 11.47-5.22 11.32-4.6 11.2-4 10.57-3.28zm151.64-.24l11.1 3.77 11.24 4.34 11.37 4.95 11.52 5.6 11.7 6.3 11.85 7.06 12.05 7.86 2.38 1.7-1.16 1.63-2.36-1.67-11.98-7.83-11.8-7-11.6-6.27-11.45-5.56-11.28-4.92-11.15-4.3-11.04-3.75-6.07-1.78v-2.1z"/><path d="M398.3 4726.66l-.8.6-1.2-1.57.82-.65zM748.1 4723.7l-14.27-4.67 5.46-7.5z"/><path d="M750.7 4725.6l-18.5-6.04 7.1-9.72zm-15.25-7.1l10.02 3.3-6.18-8.56z"/><use xlink:href="#m" transform="matrix(1,0,0,1,501.6930741959004,4629.181054733886) translate(0 21.333333333333336)"/><use xlink:href="#n" transform="matrix(1,0,0,1,501.6930741959004,4629.181054733886) translate(59.18518518518519 21.333333333333336)"/><use xlink:href="#o" transform="matrix(1,0,0,1,501.6930741959004,4629.181054733886) translate(0 53.333333333333336)"/><use xlink:href="#p" transform="matrix(1,0,0,1,501.6930741959004,4629.181054733886) translate(38.44444444444445 53.333333333333336)"/><path d="M752.5 4797.66l-3.16 3.93-3.26 3.7-3.36 3.52-3.45 3.32-3.56 3.16-3.68 3-3.84 2.86-4 2.73-4.2 2.6-4.4 2.5-4.65 2.38-3.75 1.73v-2.2l2.88-1.32 4.58-2.34 4.33-2.46 4.12-2.56 3.92-2.7 3.77-2.8 3.62-2.95 3.5-3.1 3.4-3.26 3.28-3.44 3.2-3.66 3.15-3.9zm-340.54 12.1l3.2 2.04 3.7 2.16 4.36 2.28 5.13 2.44 6.1 2.6 7.37 2.75 3.43 1.13v2.1l-4.1-1.34-7.43-2.8-6.2-2.62-5.2-2.47-4.42-2.32-3.78-2.2-3.27-2.1-1.4-.96 1.15-1.64z"/><path d="M752.1 4796.05l1.08.84-.7.8-1.5-1.33.72-.83zM412.68 4805.76l-6.3 6.8-7.32-13.07z"/><path d="M414.35 4805.43l-8.16 8.83-9.52-16.97zm-7.76 5.45l4.4-4.78-9.56-4.42z"/><use xlink:href="#q" transform="matrix(1,0,0,1,445.2506905715854,4814.313437847937) translate(0.0049999999999954525 21.333333333333336)"/><use xlink:href="#r" transform="matrix(1,0,0,1,445.2506905715854,4814.313437847937) translate(113.93092592592593 21.333333333333336)"/><use xlink:href="#s" transform="matrix(1,0,0,1,445.2506905715854,4814.313437847937) translate(216.0790740740741 21.333333333333336)"/><use xlink:href="#t" transform="matrix(1,0,0,1,445.2506905715854,4814.313437847937) translate(24.412407407407443 53.333333333333336)"/><use xlink:href="#u" transform="matrix(1,0,0,1,445.2506905715854,4814.313437847937) translate(107.30129629629634 53.333333333333336)"/><path d="M911.45 4761.73h-3.03v-2h3.02zm10.1-.02l-6.06.02v-2h6.05zm10.12 0h-6.07v-2h6.06zm10.1-.03h-6.06v-2h6.07zm10.1-.03l-6.05.02v-2l6.06-.02zm10.12-.02h-6.08v-2H962zm10.1-.02h-6.07v-2h6.06zm8.14-.02h-4.1v-2h4.1zm194.02-.43h-6.07v-2h6.05zm10.1-.03l-6.06.02v-2l6.06-.02zm10.1-.02l-6.05.02v-2l6.07-.02zm10.12-.02h-6.06v-2h6.06zm10.1-.02h-6.05v-2h6.06zm7.1-.02h-3.05v-2h3.03zM908.42 4761.74h-1v-2h1zM1236.76 4760l-14.25 4.67v-9.27z"/><path d="M1240 4760l-18.5 6.05-.02-12.02zm-16.5 3.3l10.03-3.3-10.04-3.22z"/><use xlink:href="#v" transform="matrix(1,0,0,1,980.2444146192794,4728.370112191664) translate(0.0049999999999954525 21.333333333333336)"/><use xlink:href="#w" transform="matrix(1,0,0,1,980.2444146192794,4728.370112191664) translate(122.81981481481482 21.333333333333336)"/><use xlink:href="#i" transform="matrix(1,0,0,1,980.2444146192794,4728.370112191664) translate(0.04203703703703354 53.333333333333336)"/><use xlink:href="#j" transform="matrix(1,0,0,1,980.2444146192794,4728.370112191664) translate(115.37537037037036 53.333333333333336)"/><path d="M1350 4882.46l-3.06.15v-2l2.97-.14zm-65.2-1.88v2l-1.2-.05.07-2zm-5.15-.2l-.07 2-6.03-.2.08-2zm80.4 1.6l-6.03.3-.1-2 6.03-.3zm-90.4-1.97l-.16 2-6.02-.46.16-2zm100.44 1.5l-6.03.28-.1-2 6.02-.28zm-110.47-2.27l-.16 2-6-.47.14-2zm120.52 1.43l-6 .54-.2-2 6.02-.53zm-130.55-2.2l-.15 2-6-.48.14-2zm140.56 1.3l-6 .54-.2-2 6.02-.54zm-154.4-2.4l3.82.3-.15 2-3.88-.3-2.17-.26.24-1.98zm164.4 1.5l-6 .53-.17-2 6-.54zm-170.53-2.22l-.24 1.98-6-.72.24-1.98zm180.58 1.15l-3.55.46-2.47.23-.18-2 2.43-.23 3.52-.46zm-190.56-2.36l-.23 2-5.98-.73.24-1.98zm200.54 1.03l-5.98.8-.27-2 5.98-.8zm-210.52-2.23l-.24 2-5.98-.73.23-1.98zm220.48.9l-5.98.8-.26-2 5.98-.78zm-230.4-2.1l-.34 1.96-5.95-.97.32-1.97zm240.37.78l-5.97.8-.26-2 5.97-.78zm-250.3-2.4l-.32 1.97-5.95-.98.32-1.98zm260.27.76l-5.94 1.05-.35-1.97 5.94-1.05zm-270.2-2.4l-.3 2-5.96-.98.33-1.98zm280.1.66l-5.94 1.05-.35-1.98 5.94-1.05zm-290-2.26l-.33 1.97-5.96-.97.33-1.97zm299.9.52l-5.94 1.05-.35-1.97 5.94-1.05zm-309.77-2.24l-.4 1.95-5.9-1.2.4-1.96zm319.67.5l-5.94 1.05-.35-1.96 5.95-1.05zm-329.52-2.54l-.4 1.96-5.9-1.22.4-1.95zm339.4.43l-5.9 1.3-.43-1.97 5.9-1.3zm-349.24-2.46l-.4 1.95-5.9-1.22.4-1.96zm359.06.3l-5.9 1.28-.42-1.95 5.9-1.3zm-368.9-2.34l-.4 1.96-5.9-1.22.4-1.96zm378.72.18l-5.9 1.3-.42-1.96 5.9-1.3zm-388.5-2.3l-.5 1.95-5.84-1.48.5-1.94zm398.32.14l-5.9 1.3-.42-1.96 5.9-1.3zm-408.07-2.57l-.5 1.95-5.84-1.47.48-1.94zm417.86.12l-5.84 1.54-.5-1.93 5.82-1.54zm-427.63-2.56l-.48 1.94-5.86-1.46.48-1.94zm437.34 0l-5.82 1.54-.5-1.94 5.82-1.54zm-447.08-2.44l-.48 1.94-5.85-1.46.47-1.94zm456.8-.13l-5.82 1.53-.5-1.93 5.82-1.54zm-468.92-2.92l2.37.6-.5 1.94-2.4-.6-3.44-1.02.57-1.92zm478.65.35l-5.83 1.54-.5-1.94 5.82-1.54zm-485.9-2.5l-.57 1.93-5.8-1.7.58-1.93zm495.65-.12l-1.1.34-4.76 1.26-.5-1.93 4.72-1.25 1.05-.33zm-505.3-2.7l-.56 1.9-5.8-1.7.58-1.92zm514.9-.26l-5.76 1.78-.6-1.9 5.77-1.8zm-524.54-2.6l-.56 1.92-5.8-1.7.58-1.93zm534.15-.38l-5.76 1.8-.6-1.92 5.78-1.8zm-543.78-2.47l-.57 1.9-5.78-1.7.57-1.92zm553.4-.5l-5.77 1.78-.6-1.9 5.77-1.8zm-565.72-3.15l2.68.8-.57 1.9-2.7-.8-3.07-1.04.65-1.9zm575.3.17l-5.75 1.8-.6-1.92 5.77-1.8zm-582.13-2.5l-.64 1.88-5.7-1.95.64-1.9zm591.75-.47l-5.76 1.8-.6-1.93 5.77-1.78zm-601.26-2.8l-.65 1.9-5.7-1.95.65-1.9zm610.8-.53l-5.7 2.03-.67-1.9 5.68-2zm-620.3-2.7l-.66 1.88-5.7-1.95.64-1.9zm629.76-.67l-5.68 2.03-.67-1.9 5.68-2zm-639.28-2.6l-.65 1.9-5.72-1.96.65-1.9zm648.75-.77l-5.7 2.02-.66-1.88 5.68-2.02zM986 4818.2l-.64 1.9-5.7-1.96.64-1.9zm667.74-.9l-5.68 2.03-.67-1.88 5.7-2.02zm-678.65-2.83l1.4.48-.64 1.9-1.44-.5-4.24-1.65.73-1.87zm688.13-.53l-5.68 2.02-.67-1.88 5.68-2.03zm-696.07-2.57l-.72 1.87-5.63-2.2.74-1.86zm705.54-.8l-5.68 2.02-.67-1.9 5.68-2.02zm-714.9-2.85l-.73 1.87-5.62-2.2.72-1.87zm724.32-.76l-5.6 2.22-.74-1.86 5.6-2.22zm-733.7-2.9l-.72 1.88-5.62-2.2.73-1.86zm743.05-.8l-5.6 2.22-.75-1.86 5.6-2.22zm-752.4-2.84l-.74 1.87-5.62-2.2.74-1.87zm761.74-.87l-5.6 2.22-.73-1.86 5.6-2.2zm-771.1-2.78l-.73 1.87-5.62-2.2.72-1.86zm777.66.2l-2.8 1.1-.74-1.86 2.8-1.1zm-787.03-3.85l-.73 1.87-5.62-2.2.73-1.87zm-9.37-3.65l-.73 1.87-2.8-1.1.72-1.86zM908.15 4788.38l-.73 1.86-.96-.37.4-.98.13-.97zM1709.38 4800.07l-3.42-8.62 14.97-.95z"/><path d="M1708.96 4801.7l-4.43-11.16 19.4-1.23zm-1.56-9.34l2.4 6.06 8.12-6.73z"/><use xlink:href="#x" transform="matrix(1,0,0,1,1284.7893296762868,4866.189670623962) translate(0.004999999999999005 21.333333333333336)"/><path d="M1805 4718.97l-2 .04-.06-3 2-.04zm-.15-7.02l-2 .04-.12-6.03 2-.04zm-.27-10.07l-2 .13-.37-6 2-.13zm-.8-12.86l.17 2.85-2 .12-.17-2.8-.33-3.16 2-.2zm-.76-7.18l-2 .2-.62-5.98 2-.2zm-1.2-10l-1.98.3-.88-5.96 1.98-.3zm-1.5-9.96l-1.97.37-1.13-5.9 1.96-.38zm-2.15-11.24l.26 1.38-1.96.38-.26-1.35-1.04-4.48 1.95-.46zm-2.7-11.46l.72 3.02-1.96.46-.7-2.98-.78-2.8 1.93-.55zm-3.04-10.92l1.18 4.2-1.92.54-1.16-4.16-.5-1.57 1.9-.62zm-3.4-10.45l1.64 5.03-1.9.62-1.62-5-.26-.67 1.87-.7zm-3.72-10.03l2.07 5.55-1.88.7-2.05-5.52-.04-.1 1.85-.76zm-1.6-3.83l-1.85.77-2.33-5.54 1.84-.77zm-4.05-9.22l-1.8.85-2.57-5.45 1.8-.85zm-4.42-9.06l-1.77.93-2.8-5.34 1.78-.93zm-4.8-8.86l-1.72 1-3-5.2 1.73-1zm-5.14-8.65l-1.7 1.07-3.23-5.08 1.7-1.07zm-5.52-8.44l-1.64 1.16-3.44-4.95 1.65-1.13zm-5.85-8.2l-1.6 1.22-3.63-4.8 1.6-1.2zm-6.17-7.94l-1.54 1.27-3.84-4.64 1.54-1.28zm-6.5-7.7l-1.48 1.33-4.03-4.48 1.5-1.34zm-6.78-7.45l-1.42 1.4-4.22-4.3 1.43-1.4zm-7.06-7.18l-1.37 1.46-4.38-4.12 1.36-1.46zm-8.06-7.57l.75.7-1.36 1.46-.72-.66-3.78-3.26 1.3-1.52zm-9.02-7.78l2.17 1.87-1.3 1.52-2.14-1.85-2.47-1.95 1.24-1.56zm-9.77-7.74l4.12 3.26-1.25 1.56-4.1-3.23-.6-.45 1.17-1.62zm-3.9-2.83l-1.17 1.62-4.87-3.54 1.17-1.62zm-8.2-5.86l-1.1 1.67-2.28-1.5v-2.4zm-256.64-83v2.02l-5.27-.67.25-2zm-9-1.13l-.26 2-5.97-.76.25-1.98zm-10.17-1.27l.2.03-.24 1.98-.17-.02-5.8-.48.18-2zm-9.83-.82l-.16 2-6-.5.16-2zm-10-.82l-.16 2-6-.5.17-2zm-10-.83l-.16 2-6-.5.17-2zm-10-.83l-.16 2-6-.5.17-2zm-13.48-1.13l3.5.28-.18 2-3.45-.3-2.5-.1.07-2zm-6.57-.28l-.08 2-6-.25.07-2zm-10.02-.4l-.08 2-6.02-.26.1-2zm-10.02-.42l-.1 2-6-.25.08-2zm-160.47 1.8l-3 .1-.08-2 3-.1zm10.02-.35l-6.02.2-.07-2 6.03-.2zm140.4-1.87l-.07 2-6-.24.07-2zm-130.38 1.53l-6.02.2-.06-2 6-.2zm120.37-1.93l-.1 2-6-.25.07-2zm-110.35 1.6l-6.02.2-.07-2 6.02-.2zm100.32-2l-.1 2-6-.26.08-2zm-90.33 1.7h-1.12l-4.86.17-.07-2 4.9-.16h1.14zm10.03 0h-6.02v-2h6.02zm10.04 0h-6v-2h6zm10.04-.02h-6.02v-2h6.02zm10.03 0h-6.02v-2h6.02zm10.03-.02h-6.02v-2h6.02zm10.04 0h-6.02v-2h6zm10.03-.02l-6.02.02v-2h6.02zm10.03 0h-6.02v-2h6.02z"/><path d="M1805.02 4720h-2l-.02-1 2-.03zM1168.65 4404.04l-14.42-4.15 14.1-5.12z"/><path d="M1169.7 4405.4l-18.7-5.4 18.3-6.63zm-12.23-5.62l10.13 2.92-.22-6.5z"/><g><use xlink:href="#y" transform="matrix(1,0,0,1,1431.8291337407882,4368.115772572098) translate(44.48648148148146 21.333333333333336)"/><use xlink:href="#z" transform="matrix(1,0,0,1,1431.8291337407882,4368.115772572098) translate(155.59759259259255 21.333333333333336)"/><use xlink:href="#A" transform="matrix(1,0,0,1,1431.8291337407882,4368.115772572098) translate(13.449444444444424 53.333333333333336)"/><use xlink:href="#B" transform="matrix(1,0,0,1,1431.8291337407882,4368.115772572098) translate(46.78277777777775 85.33333333333334)"/><use xlink:href="#C" transform="matrix(1,0,0,1,1431.8291337407882,4368.115772572098) translate(74.85685185185183 85.33333333333334)"/><use xlink:href="#D" transform="matrix(1,0,0,1,1431.8291337407882,4368.115772572098) translate(123.59759259259258 85.33333333333334)"/><use xlink:href="#E" transform="matrix(1,0,0,1,1431.8291337407882,4368.115772572098) translate(0.0049999999999954525 117.33333333333334)"/><use xlink:href="#F" transform="matrix(1,0,0,1,1431.8291337407882,4368.115772572098) translate(111.1161111111111 117.33333333333334)"/><use xlink:href="#G" transform="matrix(1,0,0,1,1431.8291337407882,4368.115772572098) translate(140.74574074074073 117.33333333333334)"/></g><path d="M1338.02 4561.5l42.77 3.94 33.17 4.48 27.68 4.93 24.33 5.4 22.26 5.93 21.1 6.58 20.67 7.42 20.97 8.53 22.1 10.1 24.4 12.4 28.9 16.28 38.5 23.86 70.12 47.88-1.13 1.65-70.1-47.85-38.4-23.82-28.83-16.22-24.35-12.38-22.02-10.06-20.88-8.5-20.6-7.38-21-6.56-22.2-5.9-24.24-5.38-27.6-4.92-33.1-4.47-42.68-3.94-56.32-2.8v-2zm-296.1-1.1l-177.35 1.1-73.74 4.5-43.02 4.44-27.08 3.95-118.38 20.5-29.63 6.86-22.32 6.2-18.24 5.88-15.52 5.74-13.55 5.67-12.05 5.65-10.85 5.65-9.88 5.7-9.1 5.73-8.4 5.82-7.8 5.92-7.33 6.04-6.9 6.18-6.5 6.35-6.15 6.54-5.86 6.77-5.58 7.03-5.32 7.32-.18.26-1.67-1.1.2-.3 5.4-7.38 5.62-7.1 5.92-6.82 6.2-6.6 6.58-6.42 6.94-6.24 7.4-6.1 7.88-5.96 8.46-5.87 9.15-5.77 9.96-5.73 10.93-5.7 12.12-5.67 13.63-5.7 15.6-5.78 18.32-5.92 22.42-6.2 29.72-6.9 118.47-20.52 27.17-3.94 43.1-4.46 73.83-4.5 177.43-1.1z"/><path d="M1736.76 4720.42l-.9.12-1.54.64-.45-.3 1.12-1.66zM403.86 4708.76l-11.56 9.56 3.74-14.53z"/><path d="M405.56 4708.66l-15 12.4 4.86-18.85zm-11.52 6.92l8.13-6.7-5.5-3.5z"/><g><use xlink:href="#H" transform="matrix(1,0,0,1,1041.9312134265922,4526.636330599883) translate(21.375370370370362 21.333333333333336)"/><use xlink:href="#I" transform="matrix(1,0,0,1,1041.9312134265922,4526.636330599883) translate(104.26425925925926 21.333333333333336)"/><use xlink:href="#J" transform="matrix(1,0,0,1,1041.9312134265922,4526.636330599883) translate(188.63462962962961 21.333333333333336)"/><use xlink:href="#K" transform="matrix(1,0,0,1,1041.9312134265922,4526.636330599883) translate(0.0049999999999954525 53.333333333333336)"/><use xlink:href="#L" transform="matrix(1,0,0,1,1041.9312134265922,4526.636330599883) translate(67.93092592592593 53.333333333333336)"/><use xlink:href="#l" transform="matrix(1,0,0,1,1041.9312134265922,4526.636330599883) translate(202.5975925925926 53.333333333333336)"/></g><path d="M322.66 4698.82l-.13 3-2-.1.13-3zm.83-9.93l-.5 5.97-2-.17.5-5.98zm1.12-9.9l-.75 5.94-2-.25.76-5.96zm1.44-9.87l-.8 4.67-.14 1.22-2-.25.17-1.26.8-4.7zm1.8-9.8l-.64 2.94-.5 2.9-1.96-.32.5-2.96.63-3zm2.13-9.73l-.45 1.72-.87 4.1-1.96-.42.88-4.14.45-1.76zm2.5-9.64l-.27.9-1.25 4.86-1.93-.5 1.25-4.9.3-.94zm2.9-9.54l-.15.44-1.6 5.27-1.9-.58 1.6-5.3.16-.48zm3.3-9.4l-.1.22-1.88 5.4-1.9-.65 1.9-5.46.1-.26zm3.66-9.27l-.1.2-2.1 5.34-1.86-.74 2.13-5.38.1-.24zm4.07-9.1l-.16.33-2.28 5.12-1.84-.82 2.3-5.16.18-.35zm4.45-8.9l-.28.5-2.4 4.82-1.78-.9 2.4-4.85.3-.54zm4.83-8.72l-.43.72-2.46 4.5-1.74-.98 2.48-4.52.46-.76zm5.2-8.5l-.6.9-2.5 4.18-1.73-1.03 2.55-4.2.63-.95zm5.57-8.27l-.75 1.04-2.6 3.9-1.66-1.1 2.62-3.94.77-1.07zm5.9-8.03l-.83 1.06-2.72 3.72-1.6-1.17 2.72-3.77.87-1.1zm6.23-7.77l-.8.93-2.94 3.7-1.57-1.24 2.96-3.74.83-.97zm6.54-7.52l-.6.65-3.32 3.83-1.5-1.3 3.33-3.88.64-.68zm6.83-7.26l-.17.17-3.92 4.17-1.45-1.37 3.94-4.2.2-.2zm7.15-7l-4.3 4.2-1.4-1.42 4.3-4.2zm7.4-6.7l-4.48 4.03-1.33-1.47 4.47-4.02zm7.6-6.4l-4.62 3.82-1.28-1.54 4.63-3.83zm7.83-6.17l-4.55 3.46-.2.16-1.26-1.54.22-.18 4.58-3.48zm8.02-5.9l-2.5 1.72-2.33 1.77-1.2-1.6 2.36-1.8 2.52-1.75zm8.2-5.72l-4.92 3.43-1.14-1.64 4.94-3.42zm8.42-5.35l-5.08 3.22-1.07-1.7 5.07-3.2zm8.52-5.15l-4.5 2.6-.65.4-1.07-1.68.7-.44 4.52-2.6zm8.66-5l-5.2 3-1-1.73 5.2-3zm8.83-4.63l-5.3 2.78-.94-1.77 5.32-2.78zm8.9-4.5l-2.6 1.22-2.74 1.43-.93-1.77 2.77-1.45 2.65-1.24zm9.05-4.26l-5.43 2.55-.85-1.8 5.43-2.57zm9.1-4.08l-4.14 1.74-1.33.63-.85-1.82 1.38-.65 4.17-1.75zm9.22-3.87l-5.53 2.32-.78-1.84 5.54-2.33zm9.25-3.7l-3.9 1.46-1.66.7-.77-1.84 1.68-.7 3.95-1.48zm9.38-3.48l-5.62 2.1-.7-1.9 2.86-1.05h3.15zm125.54-32.85h-6.1l-.1-.5 5.9-1.13zm9.87-1.4l-2.76.4-3.1.6-.38-1.98 3.15-.6 2.82-.4zm9.9-1.47l-5.93.88-.3-1.98 5.95-.87zm9.92-1.45l-5.95.87-.3-1.98 5.95-.88zm9.9-1.45l-5.94.87-.3-1.98 5.94-.87zm9.9-1.46l-5.94.86-.3-1.98 5.94-.87zm9.88-1.28l-4.28.45-1.64.24-.3-1.97 1.7-.25 4.3-.45zm9.95-1.04l-5.97.63-.2-1.98 5.96-.63zm9.95-1.03l-5.97.62-.2-2 5.96-.6zm9.95-1.04l-5.97.63-.2-2 5.97-.6zm9.96-1.03l-5.96.62-.2-2 5.96-.62zm9.96-1.03l-5.97.62-.22-2 5.97-.6zm9.92-.9l-3.37.2-2.56.28-.2-2 2.6-.26 3.42-.2zm10-.6l-6 .36-.13-2 6-.37zm9.98-.63l-6 .38-.12-2 6-.36zm10-.6l-6 .37-.13-2 6-.37zm9.97-.62l-6 .37-.1-2 5.98-.37zm10-.62l-6 .37-.13-2 6-.36zm9.98-.6l-5.98.36-.13-2 5.98-.37zm10-.63l-6 .37-.12-2 6-.37zm9.94-.55l-1.55.03-4.4.28-.13-2 4.44-.27h1.6zm10-.18l-6 .1-.03-2 6-.1zm10-.18l-6 .1-.03-2 6.02-.1zm10.02-.18l-6 .1-.04-2 6-.1zm10-.18l-6 .1-.04-2 6-.1zm10-.18l-6 .1-.03-2 6-.1zm10-.18l-6 .1-.03-2 6-.1zm10.02-.18l-6 .1-.04-2 6-.1zm10-.2l-6 .12-.04-2 6-.1zm10-.17l-6 .1-.03-2 6-.1zm10-.18l-6 .1-.03-2 6-.1zm10.02-.18l-6 .1-.04-2 6-.1zm10-.2l-6 .12-.04-2 6-.1zm10-.17l-6 .1-.03-2 6-.1zm7-.13l-3 .05-.03-2 3-.05z"/><path d="M990 4400.98l-1 .02-.03-2 1.03-.02zM326.14 4702.64l-5.05 14.13-4.22-14.4z"/><path d="M327.55 4701.68L321 4720l-5.47-18.67zm-6.36 11.85l3.54-9.93-6.52-.2z"/><g><use xlink:href="#y" transform="matrix(1,0,0,1,435.49614204533964,4422.921793084121) translate(0.0049999999999954525 21.333333333333336)"/><use xlink:href="#M" transform="matrix(1,0,0,1,435.49614204533964,4422.921793084121) translate(111.1161111111111 21.333333333333336)"/><use xlink:href="#G" transform="matrix(1,0,0,1,435.49614204533964,4422.921793084121) translate(171.7087037037037 21.333333333333336)"/></g><defs><path d="M145-31C134-9 116 4 85 4 32 4 16-35 15-94c0-59 17-99 70-100 32-1 48 14 60 33 0-11-1-24 2-32h30l-1 268h-32zM93-21c41 0 51-33 51-76s-8-73-50-73c-40 0-46 35-46 75s5 74 45 74" id="N"/><path d="M84 4C-5 8 30-112 23-190h32v120c0 31 7 50 39 49 72-2 45-101 50-169h31l1 190h-30c-1-10 1-25-2-33-11 22-28 36-60 37" id="O"/><path d="M100-194c63 0 86 42 84 106H49c0 40 14 67 53 68 26 1 43-12 49-29l28 8c-11 28-37 45-77 45C44 4 14-33 15-96c1-61 26-98 85-98zm52 81c6-60-76-77-97-28-3 7-6 17-6 28h103" id="P"/><path d="M85-194c31 0 48 13 60 33l-1-100h32l1 261h-30c-2-10 0-23-3-31C134-8 116 4 85 4 32 4 16-35 15-94c0-66 23-100 70-100zm9 24c-40 0-46 34-46 75 0 40 6 74 45 74 42 0 51-32 51-76 0-42-9-74-50-73" id="Q"/><g id="a"><use transform="matrix(0.07407407407407408,0,0,0.07407407407407408,0,0)" xlink:href="#N"/><use transform="matrix(0.07407407407407408,0,0,0.07407407407407408,14.814814814814817,0)" xlink:href="#O"/><use transform="matrix(0.07407407407407408,0,0,0.07407407407407408,29.629629629629633,0)" xlink:href="#P"/><use transform="matrix(0.07407407407407408,0,0,0.07407407407407408,44.44444444444445,0)" xlink:href="#O"/><use transform="matrix(0.07407407407407408,0,0,0.07407407407407408,59.25925925925927,0)" xlink:href="#P"/><use transform="matrix(0.07407407407407408,0,0,0.07407407407407408,74.07407407407408,0)" xlink:href="#Q"/></g><path d="M114-163C36-179 61-72 57 0H25l-1-190h30c1 12-1 29 2 39 6-27 23-49 58-41v29" id="R"/><path d="M117-194c89-4 53 116 60 194h-32v-121c0-31-8-49-39-48C34-167 62-67 57 0H25l-1-190h30c1 10-1 24 2 32 11-22 29-35 61-36" id="S"/><path d="M24-231v-30h32v30H24zM24 0v-190h32V0H24" id="T"/><path d="M177-190C167-65 218 103 67 71c-23-6-38-20-44-43l32-5c15 47 100 32 89-28v-30C133-14 115 1 83 1 29 1 15-40 15-95c0-56 16-97 71-98 29-1 48 16 59 35 1-10 0-23 2-32h30zM94-22c36 0 50-32 50-73 0-42-14-75-50-75-39 0-46 34-46 75s6 73 46 73" id="U"/><g id="b"><use transform="matrix(0.07407407407407408,0,0,0.07407407407407408,0,0)" xlink:href="#R"/><use transform="matrix(0.07407407407407408,0,0,0.07407407407407408,8.814814814814817,0)" xlink:href="#O"/><use transform="matrix(0.07407407407407408,0,0,0.07407407407407408,23.629629629629633,0)" xlink:href="#S"/><use transform="matrix(0.07407407407407408,0,0,0.07407407407407408,38.44444444444445,0)" xlink:href="#S"/><use transform="matrix(0.07407407407407408,0,0,0.07407407407407408,53.25925925925927,0)" xlink:href="#T"/><use transform="matrix(0.07407407407407408,0,0,0.07407407407407408,59.11111111111112,0)" xlink:href="#S"/><use transform="matrix(0.07407407407407408,0,0,0.07407407407407408,73.92592592592594,0)" xlink:href="#U"/></g><path d="M206 0h-36l-40-164L89 0H53L-1-190h32L70-26l43-164h34l41 164 42-164h31" id="V"/><path d="M141-36C126-15 110 5 73 4 37 3 15-17 15-53c-1-64 63-63 125-63 3-35-9-54-41-54-24 1-41 7-42 31l-33-3c5-37 33-52 76-52 45 0 72 20 72 64v82c-1 20 7 32 28 27v20c-31 9-61-2-59-35zM48-53c0 20 12 33 32 33 41-3 63-29 60-74-43 2-92-5-92 41" id="W"/><path d="M59-47c-2 24 18 29 38 22v24C64 9 27 4 27-40v-127H5v-23h24l9-43h21v43h35v23H59v120" id="X"/><g id="c"><use transform="matrix(0.07407407407407408,0,0,0.07407407407407408,0,0)" xlink:href="#V"/><use transform="matrix(0.07407407407407408,0,0,0.07407407407407408,19.185185185185187,0)" xlink:href="#W"/><use transform="matrix(0.07407407407407408,0,0,0.07407407407407408,34,0)" xlink:href="#T"/><use transform="matrix(0.07407407407407408,0,0,0.07407407407407408,39.851851851851855,0)" xlink:href="#X"/><use transform="matrix(0.07407407407407408,0,0,0.07407407407407408,47.25925925925927,0)" xlink:href="#T"/><use transform="matrix(0.07407407407407408,0,0,0.07407407407407408,53.11111111111112,0)" xlink:href="#S"/><use transform="matrix(0.07407407407407408,0,0,0.07407407407407408,67.92592592592594,0)" xlink:href="#U"/></g><path d="M135-143c-3-34-86-38-87 0 15 53 115 12 119 90S17 21 10-45l28-5c4 36 97 45 98 0-10-56-113-15-118-90-4-57 82-63 122-42 12 7 21 19 24 35" id="Y"/><g id="d"><use transform="matrix(0.07407407407407408,0,0,0.07407407407407408,0,0)" xlink:href="#Y"/><use transform="matrix(0.07407407407407408,0,0,0.07407407407407408,13.333333333333336,0)" xlink:href="#P"/><use transform="matrix(0.07407407407407408,0,0,0.07407407407407408,28.148148148148152,0)" xlink:href="#S"/><use transform="matrix(0.07407407407407408,0,0,0.07407407407407408,42.96296296296297,0)" xlink:href="#Q"/><use transform="matrix(0.07407407407407408,0,0,0.07407407407407408,57.777777777777786,0)" xlink:href="#T"/><use transform="matrix(0.07407407407407408,0,0,0.07407407407407408,63.62962962962964,0)" xlink:href="#S"/><use transform="matrix(0.07407407407407408,0,0,0.07407407407407408,78.44444444444446,0)" xlink:href="#U"/></g><path d="M24 0v-261h32V0H24" id="Z"/><path d="M100-194c62-1 85 37 85 99 1 63-27 99-86 99S16-35 15-95c0-66 28-99 85-99zM99-20c44 1 53-31 53-75 0-43-8-75-51-75s-53 32-53 75 10 74 51 75" id="aa"/><path d="M96-169c-40 0-48 33-48 73s9 75 48 75c24 0 41-14 43-38l32 2c-6 37-31 61-74 61-59 0-76-41-82-99-10-93 101-131 147-64 4 7 5 14 7 22l-32 3c-4-21-16-35-41-35" id="ab"/><path d="M143 0L79-87 56-68V0H24v-261h32v163l83-92h37l-77 82L181 0h-38" id="ac"/><g id="e"><use transform="matrix(0.07407407407407408,0,0,0.07407407407407408,0,0)" xlink:href="#Z"/><use transform="matrix(0.07407407407407408,0,0,0.07407407407407408,5.851851851851853,0)" xlink:href="#aa"/><use transform="matrix(0.07407407407407408,0,0,0.07407407407407408,20.666666666666668,0)" xlink:href="#ab"/><use transform="matrix(0.07407407407407408,0,0,0.07407407407407408,34.00000000000001,0)" xlink:href="#ac"/></g><g id="f"><use transform="matrix(0.07407407407407408,0,0,0.07407407407407408,0,0)" xlink:href="#V"/><use transform="matrix(0.07407407407407408,0,0,0.07407407407407408,19.185185185185187,0)" xlink:href="#W"/><use transform="matrix(0.07407407407407408,0,0,0.07407407407407408,34,0)" xlink:href="#ac"/><use transform="matrix(0.07407407407407408,0,0,0.07407407407407408,47.33333333333334,0)" xlink:href="#T"/><use transform="matrix(0.07407407407407408,0,0,0.07407407407407408,53.18518518518519,0)" xlink:href="#S"/><use transform="matrix(0.07407407407407408,0,0,0.07407407407407408,68,0)" xlink:href="#U"/></g><g id="g"><use transform="matrix(0.07407407407407408,0,0,0.07407407407407408,0,0)" xlink:href="#O"/><use transform="matrix(0.07407407407407408,0,0,0.07407407407407408,14.814814814814817,0)" xlink:href="#S"/><use transform="matrix(0.07407407407407408,0,0,0.07407407407407408,29.629629629629633,0)" xlink:href="#Z"/><use transform="matrix(0.07407407407407408,0,0,0.07407407407407408,35.48148148148149,0)" xlink:href="#aa"/><use transform="matrix(0.07407407407407408,0,0,0.07407407407407408,50.296296296296305,0)" xlink:href="#ab"/><use transform="matrix(0.07407407407407408,0,0,0.07407407407407408,63.62962962962964,0)" xlink:href="#ac"/><use transform="matrix(0.07407407407407408,0,0,0.07407407407407408,76.96296296296298,0)" xlink:href="#P"/><use transform="matrix(0.07407407407407408,0,0,0.07407407407407408,91.7777777777778,0)" xlink:href="#R"/></g><path d="M101-234c-31-9-42 10-38 44h38v23H63V0H32v-167H5v-23h27c-7-52 17-82 69-68v24" id="ad"/><path d="M106-169C34-169 62-67 57 0H25v-261h32l-1 103c12-21 28-36 61-36 89 0 53 116 60 194h-32v-121c2-32-8-49-39-48" id="ae"/><g id="h"><use transform="matrix(0.07407407407407408,0,0,0.07407407407407408,0,0)" xlink:href="#ad"/><use transform="matrix(0.07407407407407408,0,0,0.07407407407407408,7.407407407407408,0)" xlink:href="#T"/><use transform="matrix(0.07407407407407408,0,0,0.07407407407407408,13.259259259259261,0)" xlink:href="#S"/><use transform="matrix(0.07407407407407408,0,0,0.07407407407407408,28.074074074074076,0)" xlink:href="#T"/><use transform="matrix(0.07407407407407408,0,0,0.07407407407407408,33.92592592592593,0)" xlink:href="#Y"/><use transform="matrix(0.07407407407407408,0,0,0.07407407407407408,47.25925925925927,0)" xlink:href="#ae"/><use transform="matrix(0.07407407407407408,0,0,0.07407407407407408,62.07407407407408,0)" xlink:href="#P"/><use transform="matrix(0.07407407407407408,0,0,0.07407407407407408,76.8888888888889,0)" xlink:href="#Q"/></g><g id="i"><use transform="matrix(0.07407407407407408,0,0,0.07407407407407408,0,0)" xlink:href="#R"/><use transform="matrix(0.07407407407407408,0,0,0.07407407407407408,8.814814814814817,0)" xlink:href="#P"/><use transform="matrix(0.07407407407407408,0,0,0.07407407407407408,23.629629629629633,0)" xlink:href="#Z"/><use transform="matrix(0.07407407407407408,0,0,0.07407407407407408,29.481481481481488,0)" xlink:href="#P"/><use transform="matrix(0.07407407407407408,0,0,0.07407407407407408,44.296296296296305,0)" xlink:href="#W"/><use transform="matrix(0.07407407407407408,0,0,0.07407407407407408,59.11111111111112,0)" xlink:href="#Y"/><use transform="matrix(0.07407407407407408,0,0,0.07407407407407408,72.44444444444446,0)" xlink:href="#T"/><use transform="matrix(0.07407407407407408,0,0,0.07407407407407408,78.2962962962963,0)" xlink:href="#S"/><use transform="matrix(0.07407407407407408,0,0,0.07407407407407408,93.1111111111111,0)" xlink:href="#U"/></g><path d="M210-169c-67 3-38 105-44 169h-31v-121c0-29-5-50-35-48C34-165 62-65 56 0H25l-1-190h30c1 10-1 24 2 32 10-44 99-50 107 0 11-21 27-35 58-36 85-2 47 119 55 194h-31v-121c0-29-5-49-35-48" id="af"/><path d="M141 0L90-78 38 0H4l68-98-65-92h35l48 74 47-74h35l-64 92 68 98h-35" id="ag"/><g id="j"><use transform="matrix(0.07407407407407408,0,0,0.07407407407407408,0,0)" xlink:href="#af"/><use transform="matrix(0.07407407407407408,0,0,0.07407407407407408,22.148148148148152,0)" xlink:href="#O"/><use transform="matrix(0.07407407407407408,0,0,0.07407407407407408,36.96296296296297,0)" xlink:href="#X"/><use transform="matrix(0.07407407407407408,0,0,0.07407407407407408,44.37037037037039,0)" xlink:href="#P"/><use transform="matrix(0.07407407407407408,0,0,0.07407407407407408,59.185185185185205,0)" xlink:href="#ag"/></g><g id="k"><use transform="matrix(0.07407407407407408,0,0,0.07407407407407408,0,0)" xlink:href="#Y"/><use transform="matrix(0.07407407407407408,0,0,0.07407407407407408,13.333333333333336,0)" xlink:href="#ab"/><use transform="matrix(0.07407407407407408,0,0,0.07407407407407408,26.66666666666667,0)" xlink:href="#ae"/><use transform="matrix(0.07407407407407408,0,0,0.07407407407407408,41.48148148148149,0)" xlink:href="#P"/><use transform="matrix(0.07407407407407408,0,0,0.07407407407407408,56.296296296296305,0)" xlink:href="#Q"/><use transform="matrix(0.07407407407407408,0,0,0.07407407407407408,71.11111111111111,0)" xlink:href="#O"/><use transform="matrix(0.07407407407407408,0,0,0.07407407407407408,85.92592592592592,0)" xlink:href="#Z"/><use transform="matrix(0.07407407407407408,0,0,0.07407407407407408,91.77777777777777,0)" xlink:href="#P"/></g><g id="l"><use transform="matrix(0.07407407407407408,0,0,0.07407407407407408,0,0)" xlink:href="#aa"/><use transform="matrix(0.07407407407407408,0,0,0.07407407407407408,14.814814814814817,0)" xlink:href="#O"/><use transform="matrix(0.07407407407407408,0,0,0.07407407407407408,29.629629629629633,0)" xlink:href="#X"/></g><g id="m"><use transform="matrix(0.07407407407407408,0,0,0.07407407407407408,0,0)" xlink:href="#Y"/><use transform="matrix(0.07407407407407408,0,0,0.07407407407407408,13.333333333333336,0)" xlink:href="#X"/><use transform="matrix(0.07407407407407408,0,0,0.07407407407407408,20.740740740740744,0)" xlink:href="#W"/><use transform="matrix(0.07407407407407408,0,0,0.07407407407407408,35.55555555555556,0)" xlink:href="#R"/><use transform="matrix(0.07407407407407408,0,0,0.07407407407407408,44.370370370370374,0)" xlink:href="#X"/></g><g id="n"><use transform="matrix(0.07407407407407408,0,0,0.07407407407407408,0,0)" xlink:href="#V"/><use transform="matrix(0.07407407407407408,0,0,0.07407407407407408,19.185185185185187,0)" xlink:href="#W"/><use transform="matrix(0.07407407407407408,0,0,0.07407407407407408,34,0)" xlink:href="#T"/><use transform="matrix(0.07407407407407408,0,0,0.07407407407407408,39.851851851851855,0)" xlink:href="#X"/><use transform="matrix(0.07407407407407408,0,0,0.07407407407407408,47.25925925925927,0)" xlink:href="#T"/><use transform="matrix(0.07407407407407408,0,0,0.07407407407407408,53.11111111111112,0)" xlink:href="#S"/><use transform="matrix(0.07407407407407408,0,0,0.07407407407407408,67.92592592592594,0)" xlink:href="#U"/></g><g id="o"><use transform="matrix(0.07407407407407408,0,0,0.07407407407407408,0,0)" xlink:href="#ad"/><use transform="matrix(0.07407407407407408,0,0,0.07407407407407408,7.407407407407408,0)" xlink:href="#aa"/><use transform="matrix(0.07407407407407408,0,0,0.07407407407407408,22.222222222222225,0)" xlink:href="#R"/></g><g id="p"><use transform="matrix(0.07407407407407408,0,0,0.07407407407407408,0,0)" xlink:href="#ab"/><use transform="matrix(0.07407407407407408,0,0,0.07407407407407408,13.333333333333336,0)" xlink:href="#aa"/><use transform="matrix(0.07407407407407408,0,0,0.07407407407407408,28.148148148148152,0)" xlink:href="#S"/><use transform="matrix(0.07407407407407408,0,0,0.07407407407407408,42.96296296296297,0)" xlink:href="#Q"/><use transform="matrix(0.07407407407407408,0,0,0.07407407407407408,57.777777777777786,0)" xlink:href="#T"/><use transform="matrix(0.07407407407407408,0,0,0.07407407407407408,63.62962962962964,0)" xlink:href="#X"/><use transform="matrix(0.07407407407407408,0,0,0.07407407407407408,71.03703703703705,0)" xlink:href="#T"/><use transform="matrix(0.07407407407407408,0,0,0.07407407407407408,76.8888888888889,0)" xlink:href="#aa"/><use transform="matrix(0.07407407407407408,0,0,0.07407407407407408,91.70370370370371,0)" xlink:href="#S"/></g><g id="q"><use transform="matrix(0.07407407407407408,0,0,0.07407407407407408,0,0)" xlink:href="#ab"/><use transform="matrix(0.07407407407407408,0,0,0.07407407407407408,13.333333333333336,0)" xlink:href="#aa"/><use transform="matrix(0.07407407407407408,0,0,0.07407407407407408,28.148148148148152,0)" xlink:href="#S"/><use transform="matrix(0.07407407407407408,0,0,0.07407407407407408,42.96296296296297,0)" xlink:href="#Q"/><use transform="matrix(0.07407407407407408,0,0,0.07407407407407408,57.777777777777786,0)" xlink:href="#T"/><use transform="matrix(0.07407407407407408,0,0,0.07407407407407408,63.62962962962964,0)" xlink:href="#X"/><use transform="matrix(0.07407407407407408,0,0,0.07407407407407408,71.03703703703705,0)" xlink:href="#T"/><use transform="matrix(0.07407407407407408,0,0,0.07407407407407408,76.8888888888889,0)" xlink:href="#aa"/><use transform="matrix(0.07407407407407408,0,0,0.07407407407407408,91.70370370370371,0)" xlink:href="#S"/></g><path d="M115-194c53 0 69 39 70 98 0 66-23 100-70 100C84 3 66-7 56-30L54 0H23l1-261h32v101c10-23 28-34 59-34zm-8 174c40 0 45-34 45-75 0-40-5-75-45-74-42 0-51 32-51 76 0 43 10 73 51 73" id="ah"/><g id="r"><use transform="matrix(0.07407407407407408,0,0,0.07407407407407408,0,0)" xlink:href="#ah"/><use transform="matrix(0.07407407407407408,0,0,0.07407407407407408,14.814814814814817,0)" xlink:href="#P"/><use transform="matrix(0.07407407407407408,0,0,0.07407407407407408,29.629629629629633,0)" xlink:href="#ab"/><use transform="matrix(0.07407407407407408,0,0,0.07407407407407408,42.96296296296297,0)" xlink:href="#W"/><use transform="matrix(0.07407407407407408,0,0,0.07407407407407408,57.777777777777786,0)" xlink:href="#af"/><use transform="matrix(0.07407407407407408,0,0,0.07407407407407408,79.92592592592594,0)" xlink:href="#P"/></g><g id="s"><use transform="matrix(0.07407407407407408,0,0,0.07407407407407408,0,0)" xlink:href="#X"/><use transform="matrix(0.07407407407407408,0,0,0.07407407407407408,7.407407407407408,0)" xlink:href="#R"/><use transform="matrix(0.07407407407407408,0,0,0.07407407407407408,16.222222222222225,0)" xlink:href="#O"/><use transform="matrix(0.07407407407407408,0,0,0.07407407407407408,31.03703703703704,0)" xlink:href="#P"/></g><g id="t"><use transform="matrix(0.07407407407407408,0,0,0.07407407407407408,0,0)" xlink:href="#ah"/><use transform="matrix(0.07407407407407408,0,0,0.07407407407407408,14.814814814814817,0)" xlink:href="#P"/><use transform="matrix(0.07407407407407408,0,0,0.07407407407407408,29.629629629629633,0)" xlink:href="#ad"/><use transform="matrix(0.07407407407407408,0,0,0.07407407407407408,37.03703703703704,0)" xlink:href="#aa"/><use transform="matrix(0.07407407407407408,0,0,0.07407407407407408,51.85185185185186,0)" xlink:href="#R"/><use transform="matrix(0.07407407407407408,0,0,0.07407407407407408,60.66666666666667,0)" xlink:href="#P"/></g><g id="u"><use transform="matrix(0.07407407407407408,0,0,0.07407407407407408,0,0)" xlink:href="#R"/><use transform="matrix(0.07407407407407408,0,0,0.07407407407407408,8.814814814814817,0)" xlink:href="#P"/><use transform="matrix(0.07407407407407408,0,0,0.07407407407407408,23.629629629629633,0)" xlink:href="#Y"/><use transform="matrix(0.07407407407407408,0,0,0.07407407407407408,36.96296296296297,0)" xlink:href="#ab"/><use transform="matrix(0.07407407407407408,0,0,0.07407407407407408,50.296296296296305,0)" xlink:href="#ae"/><use transform="matrix(0.07407407407407408,0,0,0.07407407407407408,65.11111111111111,0)" xlink:href="#P"/><use transform="matrix(0.07407407407407408,0,0,0.07407407407407408,79.92592592592592,0)" xlink:href="#Q"/><use transform="matrix(0.07407407407407408,0,0,0.07407407407407408,94.74074074074073,0)" xlink:href="#O"/><use transform="matrix(0.07407407407407408,0,0,0.07407407407407408,109.55555555555554,0)" xlink:href="#Z"/><use transform="matrix(0.07407407407407408,0,0,0.07407407407407408,115.40740740740739,0)" xlink:href="#P"/></g><g id="v"><use transform="matrix(0.07407407407407408,0,0,0.07407407407407408,0,0)" xlink:href="#O"/><use transform="matrix(0.07407407407407408,0,0,0.07407407407407408,14.814814814814817,0)" xlink:href="#S"/><use transform="matrix(0.07407407407407408,0,0,0.07407407407407408,29.629629629629633,0)" xlink:href="#ah"/><use transform="matrix(0.07407407407407408,0,0,0.07407407407407408,44.44444444444445,0)" xlink:href="#Z"/><use transform="matrix(0.07407407407407408,0,0,0.07407407407407408,50.296296296296305,0)" xlink:href="#aa"/><use transform="matrix(0.07407407407407408,0,0,0.07407407407407408,65.11111111111111,0)" xlink:href="#ab"/><use transform="matrix(0.07407407407407408,0,0,0.07407407407407408,78.44444444444446,0)" xlink:href="#ac"/><use transform="matrix(0.07407407407407408,0,0,0.07407407407407408,91.7777777777778,0)" xlink:href="#P"/><use transform="matrix(0.07407407407407408,0,0,0.07407407407407408,106.59259259259261,0)" xlink:href="#R"/></g><g id="w"><use transform="matrix(0.07407407407407408,0,0,0.07407407407407408,0,0)" xlink:href="#Y"/><use transform="matrix(0.07407407407407408,0,0,0.07407407407407408,13.333333333333336,0)" xlink:href="#X"/><use transform="matrix(0.07407407407407408,0,0,0.07407407407407408,20.740740740740744,0)" xlink:href="#W"/><use transform="matrix(0.07407407407407408,0,0,0.07407407407407408,35.55555555555556,0)" xlink:href="#R"/><use transform="matrix(0.07407407407407408,0,0,0.07407407407407408,44.370370370370374,0)" xlink:href="#X"/><use transform="matrix(0.07407407407407408,0,0,0.07407407407407408,51.777777777777786,0)" xlink:href="#Y"/></g><g id="x"><use transform="matrix(0.07407407407407408,0,0,0.07407407407407408,0,0)" xlink:href="#V"/><use transform="matrix(0.07407407407407408,0,0,0.07407407407407408,19.185185185185187,0)" xlink:href="#W"/><use transform="matrix(0.07407407407407408,0,0,0.07407407407407408,34,0)" xlink:href="#ac"/><use transform="matrix(0.07407407407407408,0,0,0.07407407407407408,47.33333333333334,0)" xlink:href="#P"/></g><g id="y"><use transform="matrix(0.07407407407407408,0,0,0.07407407407407408,0,0)" xlink:href="#Q"/><use transform="matrix(0.07407407407407408,0,0,0.07407407407407408,14.814814814814817,0)" xlink:href="#P"/><use transform="matrix(0.07407407407407408,0,0,0.07407407407407408,29.629629629629633,0)" xlink:href="#N"/><use transform="matrix(0.07407407407407408,0,0,0.07407407407407408,44.44444444444445,0)" xlink:href="#O"/><use transform="matrix(0.07407407407407408,0,0,0.07407407407407408,59.25925925925927,0)" xlink:href="#P"/><use transform="matrix(0.07407407407407408,0,0,0.07407407407407408,74.07407407407408,0)" xlink:href="#O"/><use transform="matrix(0.07407407407407408,0,0,0.07407407407407408,88.88888888888889,0)" xlink:href="#P"/></g><g id="z"><use transform="matrix(0.07407407407407408,0,0,0.07407407407407408,0,0)" xlink:href="#ad"/><use transform="matrix(0.07407407407407408,0,0,0.07407407407407408,7.407407407407408,0)" xlink:href="#R"/><use transform="matrix(0.07407407407407408,0,0,0.07407407407407408,16.222222222222225,0)" xlink:href="#aa"/><use transform="matrix(0.07407407407407408,0,0,0.07407407407407408,31.03703703703704,0)" xlink:href="#af"/></g><path d="M50-231l6-30h32l-6 30H50zM6 0l37-190h31L37 0H6" id="ai"/><path d="M67-158c22-48 132-52 116 29L158 0h-32l25-140c3-38-53-32-70-12C52-117 51-52 38 0H6l36-190h30" id="aj"/><path d="M44-68c0 29 11 47 38 47 30 0 42-19 51-41l28 9C148-21 126 4 82 4 31 4 10-29 12-85c3-77 74-140 146-93 12 8 15 23 18 40l-31 5c-1-22-13-36-36-36-52 0-65 49-65 101" id="ak"/><path d="M30-147c31-64 166-65 159 27C183-49 158 1 86 4 9 8 1-88 30-147zM88-20c53 0 68-48 68-100 0-31-11-51-44-50-52 1-68 46-68 97 0 32 13 53 44 53" id="al"/><path d="M248-111c6-24 9-61-24-58-72 9-57 108-77 169h-31l26-142c3-37-50-30-64-10C52-115 50-51 37 0H6l36-190h30c-1 10-6 24-4 32 13-43 101-52 105 5 13-22 29-41 61-41 90 0 28 129 23 194h-31" id="am"/><path d="M103-194c29 0 47 14 56 36 2-11 5-23 8-32h30L160-5C157 61 82 97 21 62 9 55 4 45 1 30l28-7c7 42 83 31 92-3 4-16 9-38 13-55-13 20-29 36-62 36-40 0-60-25-60-64 0-71 23-131 91-131zm4 24c-53 0-58 54-61 104-2 27 10 44 36 44 49 0 65-50 67-102 1-29-15-46-42-46" id="an"/><path d="M-28 44V31h207v13H-28" id="ao"/><path d="M188 0h-37l-8-164L71 0H34L18-190h31l8 164 75-164h34l8 164 74-164h31" id="ap"/><path d="M165-48c-4 18 1 34 23 27l-3 20c-29 8-62 0-52-35h-2C116-14 99 4 63 4 30 4 8-16 8-49c0-68 71-67 138-67 10-26 0-56-31-54-26 1-42 9-47 31l-32-5c8-67 160-71 144 15-5 28-9 54-15 81zM42-50c3 52 80 24 89-6 7-12 7-24 11-38-47 1-103-4-100 44" id="aq"/><path d="M127 0L80-88 50-66 37 0H6l51-261h31L57-100l99-90h39l-93 82L161 0h-34" id="ar"/><path d="M111-194c62-3 86 47 72 106H45c-7 38 6 69 45 68 27-1 43-14 53-32l24 11C152-15 129 4 87 4 38 3 12-23 12-71c0-70 32-119 99-123zm44 81c14-66-71-72-95-28-4 8-8 17-11 28h106" id="as"/><path d="M67 3c-93-2-31-127-26-193h32L48-50c-3 39 53 32 70 12 30-34 30-101 43-152h32L157 0h-30c1-10 6-24 4-33-14 20-29 37-64 36" id="at"/><path d="M67-162c32-53 139-36 121 50C175-51 163 2 97 4 68 4 52-11 42-31 38 6 28 39 22 75H-9l50-265h29c-1 10 0 20-3 28zm89 36c0-26-10-43-35-43-54 0-67 50-69 103-1 29 14 45 42 46 53 0 62-58 62-106" id="au"/><path d="M55-144c13 50 104 24 104 88C159 21 15 23 1-39l26-10c6 40 102 42 102-4-13-50-104-23-104-87 0-71 143-71 148-8l-29 4c-5-35-85-37-89 0" id="av"/><g id="A"><use transform="matrix(0.07407407407407408,0,0,0.07407407407407408,0,0)" xlink:href="#ai"/><use transform="matrix(0.07407407407407408,0,0,0.07407407407407408,5.851851851851853,0)" xlink:href="#aj"/><use transform="matrix(0.07407407407407408,0,0,0.07407407407407408,20.666666666666668,0)" xlink:href="#ak"/><use transform="matrix(0.07407407407407408,0,0,0.07407407407407408,34.00000000000001,0)" xlink:href="#al"/><use transform="matrix(0.07407407407407408,0,0,0.07407407407407408,48.814814814814824,0)" xlink:href="#am"/><use transform="matrix(0.07407407407407408,0,0,0.07407407407407408,70.96296296296298,0)" xlink:href="#ai"/><use transform="matrix(0.07407407407407408,0,0,0.07407407407407408,76.81481481481482,0)" xlink:href="#aj"/><use transform="matrix(0.07407407407407408,0,0,0.07407407407407408,91.62962962962965,0)" xlink:href="#an"/><use transform="matrix(0.07407407407407408,0,0,0.07407407407407408,106.44444444444446,0)" xlink:href="#ao"/><use transform="matrix(0.07407407407407408,0,0,0.07407407407407408,121.25925925925925,0)" xlink:href="#ap"/><use transform="matrix(0.07407407407407408,0,0,0.07407407407407408,140.44444444444446,0)" xlink:href="#aq"/><use transform="matrix(0.07407407407407408,0,0,0.07407407407407408,155.25925925925927,0)" xlink:href="#ar"/><use transform="matrix(0.07407407407407408,0,0,0.07407407407407408,168.5925925925926,0)" xlink:href="#as"/><use transform="matrix(0.07407407407407408,0,0,0.07407407407407408,183.40740740740742,0)" xlink:href="#at"/><use transform="matrix(0.07407407407407408,0,0,0.07407407407407408,198.22222222222223,0)" xlink:href="#au"/><use transform="matrix(0.07407407407407408,0,0,0.07407407407407408,213.03703703703704,0)" xlink:href="#av"/></g><g id="B"><use transform="matrix(0.07407407407407408,0,0,0.07407407407407408,0,0)" xlink:href="#T"/><use transform="matrix(0.07407407407407408,0,0,0.07407407407407408,5.851851851851853,0)" xlink:href="#S"/></g><g id="C"><use transform="matrix(0.07407407407407408,0,0,0.07407407407407408,0,0)" xlink:href="#T"/><use transform="matrix(0.07407407407407408,0,0,0.07407407407407408,5.851851851851853,0)" xlink:href="#Q"/><use transform="matrix(0.07407407407407408,0,0,0.07407407407407408,20.666666666666668,0)" xlink:href="#Z"/><use transform="matrix(0.07407407407407408,0,0,0.07407407407407408,26.518518518518526,0)" xlink:href="#P"/></g><path d="M68-36c1 33-1 63-14 82H32c9-13 17-26 17-46H33v-36h35zM33-154v-36h35v36H33" id="aw"/><g id="D"><use transform="matrix(0.07407407407407408,0,0,0.07407407407407408,0,0)" xlink:href="#X"/><use transform="matrix(0.07407407407407408,0,0,0.07407407407407408,7.407407407407408,0)" xlink:href="#ae"/><use transform="matrix(0.07407407407407408,0,0,0.07407407407407408,22.222222222222225,0)" xlink:href="#R"/><use transform="matrix(0.07407407407407408,0,0,0.07407407407407408,31.03703703703704,0)" xlink:href="#P"/><use transform="matrix(0.07407407407407408,0,0,0.07407407407407408,45.851851851851855,0)" xlink:href="#W"/><use transform="matrix(0.07407407407407408,0,0,0.07407407407407408,60.66666666666667,0)" xlink:href="#Q"/><use transform="matrix(0.07407407407407408,0,0,0.07407407407407408,75.4814814814815,0)" xlink:href="#aw"/></g><g id="E"><use transform="matrix(0.07407407407407408,0,0,0.07407407407407408,0,0)" xlink:href="#P"/><use transform="matrix(0.07407407407407408,0,0,0.07407407407407408,14.814814814814817,0)" xlink:href="#S"/><use transform="matrix(0.07407407407407408,0,0,0.07407407407407408,29.629629629629633,0)" xlink:href="#N"/><use transform="matrix(0.07407407407407408,0,0,0.07407407407407408,44.44444444444445,0)" xlink:href="#O"/><use transform="matrix(0.07407407407407408,0,0,0.07407407407407408,59.25925925925927,0)" xlink:href="#P"/><use transform="matrix(0.07407407407407408,0,0,0.07407407407407408,74.07407407407408,0)" xlink:href="#O"/><use transform="matrix(0.07407407407407408,0,0,0.07407407407407408,88.88888888888889,0)" xlink:href="#P"/></g><g id="F"><use transform="matrix(0.07407407407407408,0,0,0.07407407407407408,0,0)" xlink:href="#X"/><use transform="matrix(0.07407407407407408,0,0,0.07407407407407408,7.407407407407408,0)" xlink:href="#aa"/></g><g id="G"><use transform="matrix(0.07407407407407408,0,0,0.07407407407407408,0,0)" xlink:href="#R"/><use transform="matrix(0.07407407407407408,0,0,0.07407407407407408,8.814814814814817,0)" xlink:href="#O"/><use transform="matrix(0.07407407407407408,0,0,0.07407407407407408,23.629629629629633,0)" xlink:href="#S"/><use transform="matrix(0.07407407407407408,0,0,0.07407407407407408,38.44444444444445,0)" xlink:href="#N"/><use transform="matrix(0.07407407407407408,0,0,0.07407407407407408,53.25925925925927,0)" xlink:href="#O"/><use transform="matrix(0.07407407407407408,0,0,0.07407407407407408,68.07407407407408,0)" xlink:href="#P"/><use transform="matrix(0.07407407407407408,0,0,0.07407407407407408,82.88888888888889,0)" xlink:href="#O"/><use transform="matrix(0.07407407407407408,0,0,0.07407407407407408,97.7037037037037,0)" xlink:href="#P"/></g><g id="H"><use transform="matrix(0.07407407407407408,0,0,0.07407407407407408,0,0)" xlink:href="#X"/><use transform="matrix(0.07407407407407408,0,0,0.07407407407407408,7.407407407407408,0)" xlink:href="#ae"/><use transform="matrix(0.07407407407407408,0,0,0.07407407407407408,22.222222222222225,0)" xlink:href="#R"/><use transform="matrix(0.07407407407407408,0,0,0.07407407407407408,31.03703703703704,0)" xlink:href="#P"/><use transform="matrix(0.07407407407407408,0,0,0.07407407407407408,45.851851851851855,0)" xlink:href="#W"/><use transform="matrix(0.07407407407407408,0,0,0.07407407407407408,60.66666666666667,0)" xlink:href="#Q"/></g><g id="I"><use transform="matrix(0.07407407407407408,0,0,0.07407407407407408,0,0)" xlink:href="#V"/><use transform="matrix(0.07407407407407408,0,0,0.07407407407407408,19.185185185185187,0)" xlink:href="#aa"/><use transform="matrix(0.07407407407407408,0,0,0.07407407407407408,34,0)" xlink:href="#ac"/><use transform="matrix(0.07407407407407408,0,0,0.07407407407407408,47.33333333333334,0)" xlink:href="#P"/><use transform="matrix(0.07407407407407408,0,0,0.07407407407407408,62.14814814814816,0)" xlink:href="#S"/></g><path d="M115-194c55 1 70 41 70 98S169 2 115 4C84 4 66-9 55-30l1 105H24l-1-265h31l2 30c10-21 28-34 59-34zm-8 174c40 0 45-34 45-75s-6-73-45-74c-42 0-51 32-51 76 0 43 10 73 51 73" id="ax"/><g id="J"><use transform="matrix(0.07407407407407408,0,0,0.07407407407407408,0,0)" xlink:href="#O"/><use transform="matrix(0.07407407407407408,0,0,0.07407407407407408,14.814814814814817,0)" xlink:href="#ax"/></g><g id="K"><use transform="matrix(0.07407407407407408,0,0,0.07407407407407408,0,0)" xlink:href="#V"/><use transform="matrix(0.07407407407407408,0,0,0.07407407407407408,19.185185185185187,0)" xlink:href="#ae"/><use transform="matrix(0.07407407407407408,0,0,0.07407407407407408,34,0)" xlink:href="#T"/><use transform="matrix(0.07407407407407408,0,0,0.07407407407407408,39.851851851851855,0)" xlink:href="#Z"/><use transform="matrix(0.07407407407407408,0,0,0.07407407407407408,45.70370370370371,0)" xlink:href="#P"/></g><g id="L"><use transform="matrix(0.07407407407407408,0,0,0.07407407407407408,0,0)" xlink:href="#Y"/><use transform="matrix(0.07407407407407408,0,0,0.07407407407407408,13.333333333333336,0)" xlink:href="#ab"/><use transform="matrix(0.07407407407407408,0,0,0.07407407407407408,26.66666666666667,0)" xlink:href="#ae"/><use transform="matrix(0.07407407407407408,0,0,0.07407407407407408,41.48148148148149,0)" xlink:href="#P"/><use transform="matrix(0.07407407407407408,0,0,0.07407407407407408,56.296296296296305,0)" xlink:href="#Q"/><use transform="matrix(0.07407407407407408,0,0,0.07407407407407408,71.11111111111111,0)" xlink:href="#O"/><use transform="matrix(0.07407407407407408,0,0,0.07407407407407408,85.92592592592592,0)" xlink:href="#Z"/><use transform="matrix(0.07407407407407408,0,0,0.07407407407407408,91.77777777777777,0)" xlink:href="#T"/><use transform="matrix(0.07407407407407408,0,0,0.07407407407407408,97.62962962962962,0)" xlink:href="#S"/><use transform="matrix(0.07407407407407408,0,0,0.07407407407407408,112.44444444444443,0)" xlink:href="#U"/></g><g id="M"><use transform="matrix(0.07407407407407408,0,0,0.07407407407407408,0,0)" xlink:href="#ad"/><use transform="matrix(0.07407407407407408,0,0,0.07407407407407408,7.407407407407408,0)" xlink:href="#R"/><use transform="matrix(0.07407407407407408,0,0,0.07407407407407408,16.222222222222225,0)" xlink:href="#aa"/><use transform="matrix(0.07407407407407408,0,0,0.07407407407407408,31.03703703703704,0)" xlink:href="#af"/></g></defs></g></svg>