<svg xmlns="http://www.w3.org/2000/svg" xmlns:xlink="http://www.w3.org/1999/xlink" xmlns:lucid="lucid" width="1712" height="1022"><g transform="translate(-203 -5159)" lucid:page-tab-id="0_0"><path d="M1006 5200c-8.84 0-16 7.16-16 16v48c0 8.84 7.16 16 16 16h128c8.84 0 16-7.16 16-16v-48c0-8.84-7.16-16-16-16z" stroke="#000" stroke-width="2" fill="#fff"/><use xlink:href="#a" transform="matrix(1,0,0,1,998,5208) translate(27.555555555555557 37.333333333333336)"/><path d="M257 5561c-8.84 0-16 7.16-16 16v48c0 8.84 7.16 16 16 16h128c8.84 0 16-7.16 16-16v-48c0-8.84-7.16-16-16-16z" stroke="#000" stroke-width="2" fill="#fff"/><use xlink:href="#b" transform="matrix(1,0,0,1,249,5569) translate(27.62962962962962 37.333333333333336)"/><path d="M763.4 5560.74c-8.83 0-16 7.16-16 16v48c0 8.84 7.17 16 16 16h128c8.85 0 16-7.16 16-16v-48c0-8.84-7.15-16-16-16z" stroke="#000" stroke-width="2" fill="#fff"/><use xlink:href="#c" transform="matrix(1,0,0,1,755.4097813609434,5568.740224383549) translate(5.444444444444429 37.333333333333336)"/><path d="M1257 5560c-8.84 0-16 7.16-16 16v48c0 8.84 7.16 16 16 16h128c8.84 0 16-7.16 16-16v-48c0-8.84-7.16-16-16-16z" stroke="#000" stroke-width="2" fill="#fff"/><use xlink:href="#d" transform="matrix(1,0,0,1,1249,5568) translate(25.370370370370367 21.333333333333336)"/><use xlink:href="#e" transform="matrix(1,0,0,1,1249,5568) translate(23.148148148148138 53.333333333333336)"/><path d="M1740 5560c-8.84 0-16 7.16-16 16v48c0 8.84 7.16 16 16 16h128c8.84 0 16-7.16 16-16v-48c0-8.84-7.16-16-16-16z" stroke="#000" stroke-width="2" fill="#fff"/><use xlink:href="#f" transform="matrix(1,0,0,1,1732,5568) translate(5.407407407407405 37.333333333333336)"/><path d="M1405.03 5601H1402v-2h3.03zm10.1 0h-6.06v-2h6.05zm10.1 0h-6.07v-2h6.06zm10.08 0h-6.05v-2h6.06zm10.1 0h-6.05v-2h6.05zm10.1 0h-6.06v-2h6.05zm7.15 0h-3.12v-2h3.12zm214.87 0h-6.06v-2h6.06zm10.1 0h-6.07v-2h6.06zm10.08 0h-6.06v-2h6.06zm7.06 0h-3.02v-2h3.02zm-37.34 0h-5.07v-2h5.07zM1402 5601h-1v-2h1zM1719.76 5600l-14.26 4.64v-9.28z"/><path d="M1723 5600l-18.5 6v-12zm-16.5 3.26l10.03-3.26-10.03-3.26z"/><use xlink:href="#g" transform="matrix(1,0,0,1,1462.6505556240734,5568) translate(0.0049999999999954525 21.333333333333336)"/><use xlink:href="#h" transform="matrix(1,0,0,1,1462.6505556240734,5568) translate(108.00500000000001 21.333333333333336)"/><use xlink:href="#i" transform="matrix(1,0,0,1,1462.6505556240734,5568) translate(5.930925925925948 53.333333333333336)"/><use xlink:href="#j" transform="matrix(1,0,0,1,1462.6505556240734,5568) translate(121.26425925925928 53.333333333333336)"/><path d="M605.82 5347.1l-5.8.74-10.48 1.8-2.22.5-2.9.73-3.2.97-3.6 1.26-4.05 1.6-4.6 2.05-5.26 2.62-6.1 3.35-7.1 4.3-8.38 5.6-9.96 7.23-11.9 9.45-14.25 12.32-16.85 15.85-19.3 19.7-20.55 22.85-19.43 23.47-15.74 20.7-11.08 15.9-7.16 11.23-4.5 7.75-2.83 5.4-1.8 3.82-1.18 2.8-.8 2.1-.52 1.6-.35 1.27-.24 1-.17.82-.1.66-.06.57-.03.47v.42l-2-.04v-.47l.04-.54.07-.65.1-.74.18-.9.26-1.1.36-1.33.56-1.7.8-2.17 1.22-2.88 1.84-3.9 2.87-5.47 4.53-7.8 7.2-11.32 11.13-15.97 15.8-20.75 19.5-23.54 20.6-22.9 19.35-19.76 16.92-15.9 14.3-12.38 11.98-9.5 10.03-7.3 8.45-5.62 7.18-4.35 6.18-3.4 5.34-2.66 4.67-2.08 4.12-1.64 3.67-1.28 3.28-1 2.98-.76 2.3-.5 10.57-1.82 6.1-.77zm450.03-55.4l-.85.3-5.54 1.7-8.9 2.32-15.7 3.4-32.17 5.58-235.84 25.26v-2L992.4 5303l32.08-5.55 15.62-3.4 8.8-2.3 5.48-1.68.8-.3z"/><path d="M383.3 5560.3l-.24.7h-2.1l.42-1.3zM1058.07 5294.62l-5.18-7.7 14.42-4.1z"/><path d="M1058 5296.32l-6.7-9.98 18.7-5.34zm-3.5-8.8l3.63 5.4 6.5-8.3z"/><use xlink:href="#k" transform="matrix(1,0,0,1,605.8245603804697,5321.341969563559) translate(0 21.333333333333336)"/><use xlink:href="#l" transform="matrix(1,0,0,1,605.8245603804697,5321.341969563559) translate(113.99999999999999 21.333333333333336)"/><path d="M542.98 5924.8l19.95 6.94 21.22 6.4 22.44 5.76 23.6 5 24.62 4.17 25.5 3.22 26.17 2.2 21.72.9-.08 2-21.78-.92-26.25-2.2-25.57-3.23-24.72-4.17-23.67-5.03-22.52-5.78-21.28-6.43-20.03-6.97-18.78-7.42-.75-.34h5.34zm-220.7-269.76l.78 12.54 1.27 12.1 1.73 11.7 2.16 11.33 2.58 11.04 3 10.75 3.42 10.5 3.82 10.27 4.24 10.08 4.67 9.92 5.1 9.77 5.57 9.63 6.04 9.52 6.55 9.4 7.1 9.34 7.65 9.25 8.26 9.17 8.93 9.1 9.63 9.05 6.25 5.4h-3.05l-4.53-3.92-9.7-9.1-8.97-9.16-8.32-9.24-7.7-9.3-7.14-9.4-6.6-9.5-6.1-9.6-5.6-9.7-5.15-9.84-4.7-10-4.27-10.16-3.85-10.35-3.44-10.58-3.03-10.83-2.6-11.1-2.2-11.43-1.73-11.77-1.27-12.18-.8-12.62-.27-13.1 2-.04z"/><path d="M322 5641.98l-2 .05-.03-1.03h2zM743.17 5960.68l-14.35 4.37.18-9.27z"/><path d="M746.4 5960.74l-18.6 5.66.22-12.02zm-16.55 2.95l10.1-3.08-9.98-3.45z"/><use xlink:href="#m" transform="matrix(1,0,0,1,390.5674187635917,5854.91219041585) translate(0 21.333333333333336)"/><use xlink:href="#n" transform="matrix(1,0,0,1,390.5674187635917,5854.91219041585) translate(59.18518518518519 21.333333333333336)"/><use xlink:href="#o" transform="matrix(1,0,0,1,390.5674187635917,5854.91219041585) translate(0 53.333333333333336)"/><use xlink:href="#p" transform="matrix(1,0,0,1,390.5674187635917,5854.91219041585) translate(38.44444444444445 53.333333333333336)"/><path d="M911.45 5601.73h-3.03v-2h3.02zm10.1-.02l-6.06.02v-2h6.05zm10.12 0h-6.07v-2h6.06zm10.1-.03h-6.06v-2h6.07zm10.1-.03l-6.05.02v-2l6.06-.02zm10.12-.02h-6.08v-2H962zm10.1-.02h-6.07v-2h6.06zm8.14-.02h-4.1v-2h4.1zm194.02-.43h-6.07v-2h6.05zm10.1-.03l-6.06.02v-2l6.06-.02zm10.1-.02l-6.05.02v-2l6.07-.02zm10.12-.02h-6.06v-2h6.06zm10.1-.02h-6.05v-2h6.06zm7.1-.02h-3.05v-2h3.03zM908.42 5601.74h-1v-2h1zM1236.76 5600l-14.25 4.67v-9.27z"/><path d="M1240 5600l-18.5 6.05-.02-12.02zm-16.5 3.3l10.03-3.3-10.04-3.22z"/><use xlink:href="#q" transform="matrix(1,0,0,1,980.2444146192794,5568.370112191664) translate(0.0049999999999954525 21.333333333333336)"/><use xlink:href="#r" transform="matrix(1,0,0,1,980.2444146192794,5568.370112191664) translate(122.81981481481482 21.333333333333336)"/><use xlink:href="#i" transform="matrix(1,0,0,1,980.2444146192794,5568.370112191664) translate(0.04203703703703354 53.333333333333336)"/><use xlink:href="#j" transform="matrix(1,0,0,1,980.2444146192794,5568.370112191664) translate(115.37537037037036 53.333333333333336)"/><path d="M1319.73 5703.12l-2.48.05-3.52-.02.02-2 3.5.02 2.44-.05zm-9.97-2v2l-6-.04.03-2zm-9.96-.07v2l-6-.04.03-2zm29.9 1.88l-5.98.12-.04-2 5.97-.12zm-42.16-1.97l2.3.02v2l-2.34-.02-3.67-.12.07-2zm52.1 1.78l-5.97.12-.03-2 5.97-.12zm-59.73-2.04l-.05 2-5.98-.2.07-2zm69.7 1.85l-5.97.1-.04-1.98 5.97-.12zm9.96-.2l-5.97.12-.05-2 5.98-.1zm-89.6-2l-.07 2-5.98-.2.07-2zm99.56 1.82l-5.97.1-.04-2 5.98-.1zm9.96-.2l-5.97.12-.03-2 5.97-.12zm-119.47-1.96l-.06 2-5.97-.2.07-2zm129.48 1.77l-.32.02-5.7.1-.04-2 5.66-.1.28-.03zm-139.43-2.1l-.07 2-5.97-.2.08-2zm149.37 1.48l-5.96.37-.13-2 5.97-.36zm-159.32-1.82l-.07 2-5.97-.2.07-2zm-9.95-.35l-.07 2-4.48-.15v-2zm179.2 1.55l-5.95.38-.13-2 5.97-.36zm9.95-.6l-5.96.36-.13-2 5.98-.38zm9.94-.63l-5.96.37-.13-2 5.97-.37zm9.94-.62l-5.96.37-.13-2 5.96-.37zm9.96-.98l-5.95.62-.22-2 5.95-.6zm9.9-1.04l-5.94.62-.2-2 5.93-.6zm9.9-1.04l-5.94.63-.2-2 5.94-.62zm9.9-1.03l-5.93.6-.2-1.98 5.94-.62zm-318.07-1.4l-.24 1.97-5.93-.7.24-2zm328 .16l-4.5.66-1.46.15-.2-2 1.42-.14 4.46-.65zm-337.9-1.36l-.23 2-5.93-.72.25-2zm-9.88-1.18l-.24 1.98-5.94-.7.24-2zm357.63 1.08l-5.9.87-.3-1.97 5.9-.88zm-367.47-2.36l-.32 1.97-5.9-.95.32-1.97zm377.32.9l-5.9.88-.3-1.98 5.9-.87zm-387.15-2.5l-.32 1.98-5.9-.96.33-1.98zm397 1.06l-5.9.87-.3-1.98 5.9-.88zm9.87-1.64l-4.14.8-1.78.26-.3-1.98 1.75-.26 4.1-.78zm-416.7-1.02l-.32 1.98-5.9-.96.32-1.98zm-9.83-1.6l-.32 1.98-5.9-.96.32-1.97zm436.3.76l-5.86 1.12-.36-1.97 5.87-1.12zm-446.07-2.44l-.4 1.96-5.86-1.2.4-1.96zm455.87.57l-5.87 1.12-.38-1.96 5.87-1.13zm-465.63-2.58l-.4 1.96-5.86-1.2.4-1.95zm475.4.72l-5.86 1.12-.37-1.98 5.88-1.12zm9.8-2.1l-5.57 1.3-.3.05-.38-1.96.26-.05 5.5-1.3zm-494.95-.63l-.42 1.96-5.85-1.2.4-1.96zm-9.77-2l-.4 1.95-5.86-1.2.4-1.97zm514.4.35l-5.83 1.35-.45-1.95 5.82-1.36zm-524.08-2.5l-.48 1.93-5.8-1.45.48-1.94zm533.77.2l-5.82 1.38-.46-1.95 5.82-1.37zm-543.43-2.63l-.5 1.94-5.8-1.44.5-1.94zm553.12.37l-5.82 1.36-.46-1.95 5.82-1.36zm-562.8-2.8l-.48 1.95-5.8-1.46.5-1.94zm572.45.2l-5.75 1.6-.54-1.92 5.75-1.6zm-586.4-3.68l4.3 1.08-.5 1.94-4.33-1.1-1.48-.43.56-1.9zm596 1l-5.76 1.6-.53-1.92 5.76-1.6zM1014.4 5665l-.56 1.93-5.73-1.7.57-1.9zm610.86-.12l-5.76 1.6-.54-1.92 5.76-1.6zm-620.4-2.7l-.58 1.93-5.73-1.7.57-1.9zm630 .02l-5.77 1.6-.54-1.92 5.75-1.6zm-639.56-2.83l-.57 1.92-5.73-1.7.57-1.92zm649.06-.25l-5.68 1.85-.62-1.9 5.7-1.85zm-661.3-3.36l2.7.8-.58 1.9-2.73-.8-3-1.02.65-1.9zm670.78.28l-5.7 1.85-.6-1.9 5.68-1.86zm-677.5-2.58l-.66 1.9-5.66-1.94.65-1.9zm686.97-.5l-5.67 1.85-.62-1.9 5.7-1.84zm-696.4-2.72l-.65 1.9-5.65-1.94.64-1.9zm705.9-.4l-.53.2-5.17 1.7-.62-1.9 5.13-1.68.5-.2zm-715.33-2.82l-.64 1.9-5.66-1.94.65-1.9zm724.68-.65l-5.6 2.1-.7-1.9 5.6-2.07zm-736.08-3.24l1.98.67-.65 1.9-2.02-.7-3.62-1.4.73-1.86zm745.4-.23l-5.6 2.08-.7-1.87 5.6-2.07zm-752.7-2.6l-.72 1.85-5.57-2.16.73-1.88zm762.05-.87l-5.6 2.08-.7-1.86 5.6-2.1zm-771.33-2.75l-.73 1.86-5.57-2.16.72-1.87zm777.85.32l-2.8 1.04-.7-1.88 2.8-1.04zm-787.14-3.93l-.7 1.86-5.58-2.16.72-1.87zm-9.27-3.6l-.73 1.85-2.78-1.08.72-1.86zM908.14 5628.38l-.72 1.86-.96-.37.4-.98.13-.97zM1709.4 5640.1l-3.43-8.62 14.96-.97z"/><path d="M1708.98 5641.74l-4.45-11.17 19.4-1.26zm-1.58-9.35l2.42 6.04 8.1-6.74z"/><use xlink:href="#s" transform="matrix(1,0,0,1,1163.4500623106262,5681.452450276516) translate(0.004999999999999005 21.333333333333336)"/><path d="M1805 5558.97l-2 .04-.06-3 2-.04zm-.15-7.02l-2 .04-.12-6.03 2-.04zm-.27-10.07l-2 .13-.37-6 2-.13zm-.8-12.86l.17 2.85-2 .12-.17-2.8-.33-3.16 2-.2zm-.76-7.18l-2 .2-.62-5.98 2-.2zm-1.2-10l-1.98.3-.88-5.96 1.98-.3zm-1.5-9.96l-1.97.37-1.13-5.9 1.96-.38zm-2.15-11.24l.26 1.38-1.96.38-.26-1.35-1.04-4.48 1.95-.46zm-2.7-11.46l.72 3.02-1.96.46-.7-2.98-.78-2.8 1.93-.55zm-3.04-10.92l1.18 4.2-1.92.54-1.16-4.16-.5-1.57 1.9-.62zm-3.4-10.45l1.64 5.03-1.9.62-1.62-5-.26-.67 1.87-.7zm-3.72-10.03l2.07 5.55-1.88.7-2.05-5.52-.04-.1 1.85-.76zm-1.6-3.83l-1.85.77-2.33-5.54 1.84-.77zm-4.05-9.22l-1.8.85-2.57-5.45 1.8-.85zm-4.42-9.06l-1.77.93-2.8-5.34 1.78-.93zm-4.8-8.86l-1.72 1-3-5.2 1.73-1zm-5.14-8.65l-1.7 1.07-3.23-5.08 1.7-1.07zm-5.52-8.44l-1.64 1.16-3.44-4.95 1.65-1.13zm-5.85-8.2l-1.6 1.22-3.63-4.8 1.6-1.2zm-6.17-7.94l-1.54 1.27-3.84-4.64 1.54-1.28zm-6.5-7.7l-1.48 1.33-4.03-4.48 1.5-1.34zm-6.78-7.45l-1.42 1.4-4.22-4.3 1.43-1.4zm-7.06-7.18l-1.37 1.46-4.38-4.12 1.36-1.46zm-8.06-7.57l.75.7-1.36 1.46-.72-.66-3.78-3.26 1.3-1.52zm-9.02-7.78l2.17 1.87-1.3 1.52-2.14-1.85-2.47-1.95 1.24-1.56zm-9.77-7.74l4.12 3.26-1.25 1.56-4.1-3.23-.6-.45 1.17-1.62zm-3.9-2.83l-1.17 1.62-4.87-3.54 1.17-1.62zm-8.2-5.86l-1.1 1.67-5-3.32 1.1-1.67zm-10.06-6.7l1.72 1.15-1.1 1.66-1.7-1.12-3.37-2.05 1.03-1.72zm-7.9-2.43l-.3-.18h.43zm-227.77-72.5l-.25 2-5.97-.75.26-2zm-9.95-1.24l-.25 2-5.97-.77.25-2zm-9.96-1.25l-.25 2-5.97-.76.25-1.98zm-10.16-1.27l.2.03-.24 1.98-.17-.02-5.8-.48.18-2zm-9.83-.82l-.16 2-6-.5.16-2zm-10-.82l-.16 2-6-.5.17-2zm-10-.83l-.16 2-6-.5.17-2zm-10-.83l-.16 2-6-.5.17-2zm-13.48-1.13l3.5.28-.18 2-3.45-.3-2.5-.1.07-2zm-6.57-.28l-.08 2-6-.25.07-2zm-10.02-.4l-.08 2-6.02-.26.1-2zm-10.02-.42l-.1 2-6-.25.08-2zm-160.47 1.8l-3 .1-.08-2 3-.1zm10.02-.35l-6.02.2-.07-2 6.03-.2zm140.4-1.87l-.07 2-6-.24.07-2zm-130.38 1.53l-6.02.2-.06-2 6-.2zm120.37-1.93l-.1 2-6-.25.07-2zm-110.35 1.6l-6.02.2-.07-2 6.02-.2zm100.32-2l-.1 2-6-.26.08-2zm-90.33 1.7h-1.12l-4.86.17-.07-2 4.9-.16h1.14zm10.03 0h-6.02v-2h6.02zm10.04 0h-6v-2h6zm10.04-.02h-6.02v-2h6.02zm10.03 0h-6.02v-2h6.02zm10.03-.02h-6.02v-2h6.02zm10.04 0h-6.02v-2h6zm10.03-.02l-6.02.02v-2h6.02zm10.03 0h-6.02v-2h6.02z"/><path d="M1805.02 5560h-2l-.02-1 2-.03zM1168.65 5244.04l-14.42-4.15 14.1-5.12z"/><path d="M1169.7 5245.4l-18.7-5.4 18.3-6.63zm-12.23-5.62l10.13 2.92-.22-6.5z"/><use xlink:href="#t" transform="matrix(1,0,0,1,1445.2735781852325,5224.115772572098) translate(51.079074074074065 21.333333333333336)"/><use xlink:href="#u" transform="matrix(1,0,0,1,1445.2735781852325,5224.115772572098) translate(99.8198148148148 21.333333333333336)"/><use xlink:href="#v" transform="matrix(1,0,0,1,1445.2735781852325,5224.115772572098) translate(24.375370370370376 53.333333333333336)"/><use xlink:href="#w" transform="matrix(1,0,0,1,1445.2735781852325,5224.115772572098) translate(148.81981481481483 53.333333333333336)"/><use xlink:href="#x" transform="matrix(1,0,0,1,1445.2735781852325,5224.115772572098) translate(0.0049999999999954525 85.33333333333334)"/><path d="M1338.02 5401.5l42.77 3.94 33.17 4.48 27.68 4.93 24.33 5.4 22.26 5.93 21.1 6.58 20.67 7.42 20.97 8.53 22.1 10.1 24.4 12.4 28.9 16.28 38.5 23.86 70.12 47.88-1.13 1.65-70.1-47.85-38.4-23.82-28.83-16.22-24.35-12.38-22.02-10.06-20.88-8.5-20.6-7.38-21-6.56-22.2-5.9-24.24-5.38-27.6-4.92-33.1-4.47-42.68-3.94-56.32-2.8v-2zm-296.1-1.1l-177.35 1.1-73.74 4.5-43.02 4.44-27.08 3.95-118.38 20.5-29.63 6.86-22.32 6.2-18.24 5.88-15.52 5.74-13.55 5.67-12.05 5.65-10.85 5.65-9.88 5.7-9.1 5.73-8.4 5.82-7.8 5.92-7.33 6.04-6.9 6.18-6.5 6.35-6.15 6.54-5.86 6.77-5.58 7.03-5.32 7.32-.18.26-1.67-1.1.2-.3 5.4-7.38 5.62-7.1 5.92-6.82 6.2-6.6 6.58-6.42 6.94-6.24 7.4-6.1 7.88-5.96 8.46-5.87 9.15-5.77 9.96-5.73 10.93-5.7 12.12-5.67 13.63-5.7 15.6-5.78 18.32-5.92 22.42-6.2 29.72-6.9 118.47-20.52 27.17-3.94 43.1-4.46 73.83-4.5 177.43-1.1z"/><path d="M1736.76 5560.42l-.9.12-1.54.64-.45-.3 1.12-1.66zM403.86 5548.76l-11.56 9.56 3.74-14.53z"/><path d="M405.56 5548.66l-15 12.4 4.86-18.85zm-11.52 6.92l8.13-6.7-5.5-3.5z"/><use xlink:href="#y" transform="matrix(1,0,0,1,1041.931213426592,5366.636330599884) translate(21.375370370370362 21.333333333333336)"/><use xlink:href="#z" transform="matrix(1,0,0,1,1041.931213426592,5366.636330599884) translate(104.26425925925926 21.333333333333336)"/><use xlink:href="#A" transform="matrix(1,0,0,1,1041.931213426592,5366.636330599884) translate(188.63462962962961 21.333333333333336)"/><use xlink:href="#B" transform="matrix(1,0,0,1,1041.931213426592,5366.636330599884) translate(0.0049999999999954525 53.333333333333336)"/><use xlink:href="#C" transform="matrix(1,0,0,1,1041.931213426592,5366.636330599884) translate(67.93092592592593 53.333333333333336)"/><use xlink:href="#l" transform="matrix(1,0,0,1,1041.931213426592,5366.636330599884) translate(202.5975925925926 53.333333333333336)"/><path d="M322.66 5538.82l-.13 3-2-.1.13-3zm.83-9.93l-.5 5.97-2-.17.5-5.98zm1.12-9.9l-.75 5.94-2-.25.76-5.96zm1.44-9.87l-.8 4.67-.14 1.22-2-.25.17-1.26.8-4.7zm1.8-9.8l-.64 2.94-.5 2.9-1.96-.32.5-2.96.63-3zm2.13-9.73l-.45 1.72-.87 4.1-1.96-.42.88-4.14.45-1.76zm2.5-9.64l-.27.9-1.25 4.86-1.93-.5 1.25-4.9.3-.94zm2.9-9.54l-.15.44-1.6 5.27-1.9-.58 1.6-5.3.16-.48zm3.3-9.4l-.1.22-1.88 5.4-1.9-.65 1.9-5.46.1-.26zm3.66-9.27l-.1.2-2.1 5.34-1.86-.74 2.13-5.38.1-.24zm4.07-9.1l-.16.33-2.28 5.12-1.84-.82 2.3-5.16.18-.35zm4.45-8.9l-.28.5-2.4 4.82-1.78-.9 2.4-4.85.3-.54zm4.83-8.72l-.43.72-2.46 4.5-1.74-.98 2.48-4.52.46-.76zm5.2-8.5l-.6.9-2.5 4.18-1.73-1.03 2.55-4.2.63-.95zm5.57-8.27l-.75 1.04-2.6 3.9-1.66-1.1 2.62-3.94.77-1.07zm5.9-8.03l-.83 1.06-2.72 3.72-1.6-1.17 2.72-3.77.87-1.1zm6.23-7.77l-.8.93-2.94 3.7-1.57-1.24 2.96-3.74.83-.97zm6.54-7.52l-.6.65-3.32 3.83-1.5-1.3 3.33-3.88.64-.68zm6.83-7.26l-.17.17-3.92 4.17-1.45-1.37 3.94-4.2.2-.2zm7.15-7l-4.3 4.2-1.4-1.42 4.3-4.2zm7.4-6.7l-4.48 4.03-1.33-1.47 4.47-4.02zm7.6-6.4l-4.62 3.82-1.28-1.54 4.63-3.83zm7.83-6.17l-4.55 3.46-.2.16-1.26-1.54.22-.18 4.58-3.48zm8.02-5.9l-2.5 1.72-2.33 1.77-1.2-1.6 2.36-1.8 2.52-1.75zm8.2-5.72l-4.92 3.43-1.14-1.64 4.94-3.42zm8.42-5.35l-5.08 3.22-1.07-1.7 5.07-3.2zm8.52-5.15l-4.5 2.6-.65.4-1.07-1.68.7-.44 4.52-2.6zm8.66-5l-5.2 3-1-1.73 5.2-3zm8.83-4.63l-5.3 2.78-.94-1.77 5.32-2.78zm8.9-4.5l-2.6 1.22-2.74 1.43-.93-1.77 2.77-1.45 2.65-1.24zm9.05-4.26l-5.43 2.55-.85-1.8 5.43-2.57zm9.1-4.08l-4.14 1.74-1.33.63-.85-1.82 1.38-.65 4.17-1.75zm9.22-3.87l-5.53 2.32-.78-1.84 5.54-2.33zm9.25-3.7l-3.9 1.46-1.66.7-.77-1.84 1.68-.7 3.95-1.48zm9.38-3.48l-5.62 2.1-.7-1.9 2.86-1.05h3.15zm125.54-32.85h-6.1l-.1-.5 5.9-1.13zm9.87-1.4l-2.76.4-3.1.6-.38-1.98 3.15-.6 2.82-.4zm9.9-1.47l-5.93.88-.3-1.98 5.95-.87zm9.92-1.45l-5.95.87-.3-1.98 5.95-.88zm9.9-1.45l-5.94.87-.3-1.98 5.94-.87zm9.9-1.46l-5.94.86-.3-1.98 5.94-.87zm9.88-1.28l-4.28.45-1.64.24-.3-1.97 1.7-.25 4.3-.45zm9.95-1.04l-5.97.63-.2-1.98 5.96-.63zm9.95-1.03l-5.97.62-.2-2 5.96-.6zm9.95-1.04l-5.97.63-.2-2 5.97-.6zm9.96-1.03l-5.96.62-.2-2 5.96-.62zm9.96-1.03l-5.97.62-.22-2 5.97-.6zm9.92-.9l-3.37.2-2.56.28-.2-2 2.6-.26 3.42-.2zm10-.6l-6 .36-.13-2 6-.37zm9.98-.63l-6 .38-.12-2 6-.36zm10-.6l-6 .37-.13-2 6-.37zm9.97-.62l-6 .37-.1-2 5.98-.37zm10-.62l-6 .37-.13-2 6-.36zm9.98-.6l-5.98.36-.13-2 5.98-.37zm10-.63l-6 .37-.12-2 6-.37zm9.94-.55l-1.55.03-4.4.28-.13-2 4.44-.27h1.6zm10-.18l-6 .1-.03-2 6-.1zm10-.18l-6 .1-.03-2 6.02-.1zm10.02-.18l-6 .1-.04-2 6-.1zm10-.18l-6 .1-.04-2 6-.1zm10-.18l-6 .1-.03-2 6-.1zm10-.18l-6 .1-.03-2 6-.1zm10.02-.18l-6 .1-.04-2 6-.1zm10-.2l-6 .12-.04-2 6-.1zm10-.17l-6 .1-.03-2 6-.1zm10-.18l-6 .1-.03-2 6-.1zm10.02-.18l-6 .1-.04-2 6-.1zm10-.2l-6 .12-.04-2 6-.1zm10-.17l-6 .1-.03-2 6-.1zm7-.13l-3 .05-.03-2 3-.05z"/><path d="M990 5240.98l-1 .02-.03-2 1.03-.02zM326.14 5542.64l-5.05 14.13-4.22-14.4z"/><path d="M327.55 5541.68L321 5560l-5.47-18.67zm-6.36 11.85l3.54-9.93-6.52-.2z"/><use xlink:href="#D" transform="matrix(1,0,0,1,435.49614204533975,5262.921793084122) translate(0.0049999999999954525 21.333333333333336)"/><use xlink:href="#E" transform="matrix(1,0,0,1,435.49614204533975,5262.921793084122) translate(111.1161111111111 21.333333333333336)"/><use xlink:href="#F" transform="matrix(1,0,0,1,435.49614204533975,5262.921793084122) translate(171.7087037037037 21.333333333333336)"/><path d="M763.4 5920.74c-8.83 0-16 7.16-16 16v48c0 8.84 7.17 16 16 16h128c8.85 0 16-7.16 16-16v-48c0-8.84-7.15-16-16-16z" stroke="#000" stroke-width="2" fill="#fff"/><use xlink:href="#G" transform="matrix(1,0,0,1,755.4097813609434,5928.740224383549) translate(4 37.333333333333336)"/><path d="M1257 5920c-8.84 0-16 7.16-16 16v48c0 8.84 7.16 16 16 16h128c8.84 0 16-7.16 16-16v-48c0-8.84-7.16-16-16-16z" stroke="#000" stroke-width="2" fill="#fff"/><use xlink:href="#d" transform="matrix(1,0,0,1,1249,5928) translate(25.370370370370367 21.333333333333336)"/><use xlink:href="#H" transform="matrix(1,0,0,1,1249,5928) translate(21.703703703703695 53.333333333333336)"/><path d="M1740 5920c-8.84 0-16 7.16-16 16v48c0 8.84 7.16 16 16 16h128c8.84 0 16-7.16 16-16v-48c0-8.84-7.16-16-16-16z" stroke="#000" stroke-width="2" fill="#fff"/><use xlink:href="#I" transform="matrix(1,0,0,1,1732,5928) translate(3.962962962962976 37.333333333333336)"/><path d="M828.4 5919.74h-2v-123h2zm0-155h-2v-104.76h2zM828.4 5920.74h-2v-1h2zM832.05 5659.24h-9.28l4.64-14.26z"/><path d="M833.42 5660.24H821.4l6-18.5zm-9.27-2h6.52l-3.26-10.03z"/><use xlink:href="#k" transform="matrix(1,0,0,1,751.891262842425,5764.738139404399) translate(0.0049999999999954525 21.333333333333336)"/><use xlink:href="#l" transform="matrix(1,0,0,1,751.891262842425,5764.738139404399) translate(114.00499999999998 21.333333333333336)"/><path d="M911.45 5961.74h-3.04v-2h3.05zm10.1 0h-6.06v-2h6.06zm10.1 0h-6.05v-2h6.06zm10.12 0h-6.06v-2h6.07zm10.1 0h-6.06v-2h6.08zm10.12 0h-6.08v-2H962zm10.1 0h-6.07v-2h6.07zm8.18 0h-4.14v-2h4.14zm193.98 0h-6.07v-2h6.06zm10.1 0h-6.06v-2h6.06zm10.1 0h-6.05v-2h6.07zm10.12 0h-6.06v-2h6.06zm10.1 0h-6.06v-2h6.07zm7.08 0h-3.03v-2h3.03zM908.4 5961.74h-1v-2h1zM1236.76 5960.74l-14.26 4.64v-9.28z"/><path d="M1240 5960.74l-18.5 6v-12zm-16.5 3.26l10.03-3.26-10.03-3.26z"/><use xlink:href="#g" transform="matrix(1,0,0,1,980.2814516563164,5928.7402243835495) translate(7.375370370370348 21.333333333333336)"/><use xlink:href="#r" transform="matrix(1,0,0,1,980.2814516563164,5928.7402243835495) translate(115.37537037037036 21.333333333333336)"/><use xlink:href="#i" transform="matrix(1,0,0,1,980.2814516563164,5928.7402243835495) translate(0.0049999999999954525 53.333333333333336)"/><use xlink:href="#j" transform="matrix(1,0,0,1,980.2814516563164,5928.7402243835495) translate(115.33833333333332 53.333333333333336)"/><path d="M1405.03 5961H1402v-2h3.03zm10.1 0h-6.06v-2h6.05zm10.1 0h-6.07v-2h6.06zm10.08 0h-6.05v-2h6.06zm10.1 0h-6.05v-2h6.05zm10.1 0h-6.06v-2h6.05zm7.15 0h-3.12v-2h3.12zm214.87 0h-6.06v-2h6.06zm10.1 0h-6.07v-2h6.06zm10.08 0h-6.06v-2h6.06zm7.06 0h-3.02v-2h3.02zm-37.34 0h-5.07v-2h5.07zM1402 5961h-1v-2h1zM1719.76 5960l-14.26 4.64v-9.28z"/><path d="M1723 5960l-18.5 6v-12zm-16.5 3.26l10.03-3.26-10.03-3.26z"/><g><use xlink:href="#g" transform="matrix(1,0,0,1,1462.6505556240734,5928) translate(0.0049999999999954525 21.333333333333336)"/><use xlink:href="#h" transform="matrix(1,0,0,1,1462.6505556240734,5928) translate(108.00500000000001 21.333333333333336)"/><use xlink:href="#i" transform="matrix(1,0,0,1,1462.6505556240734,5928) translate(5.930925925925948 53.333333333333336)"/><use xlink:href="#j" transform="matrix(1,0,0,1,1462.6505556240734,5928) translate(121.26425925925928 53.333333333333336)"/></g><path d="M908.98 5927.83l-2.86.92-.6-1.9 2.85-.92zm9.54-3.06l-5.72 1.84-.6-1.9 5.7-1.84zm9.53-3.06l-5.72 1.84-.6-1.9 5.7-1.84zm780.04-.45l-.62 1.9-2.86-.9.6-1.92zm-6.68-2.15l-.62 1.9-5.72-1.84.62-1.9zm-763.83-.46l-5.73 1.84-.6-1.9 5.7-1.84zm754.28-2.6l-.6 1.9-5.73-1.85.6-1.9zm-744.75-.46l-5.73 1.84-.6-1.9 5.7-1.84zm735.22-2.62l-.6 1.9-5.73-1.84.6-1.9zm-725.7-.44l-5.7 1.84-.62-1.9 5.72-1.84zm716.17-2.64l-.6 1.9-5.73-1.84.6-1.9zm-706.62-.42l-5.72 1.83-.62-1.9 5.73-1.85zm692.05-4.27l5.04 1.6-.63 1.9-5-1.6-.7-.2.56-1.92zm-682.52 1.2l-5.72 1.83-.6-1.9 5.72-1.84zm677.95-2.52l-.55 1.92-5.78-1.65.55-1.92zm-668.4-.55l-5.73 1.84-.6-1.9 5.7-1.84zm658.77-2.2l-.55 1.92-5.78-1.65.55-1.93zm-649.25-.86l-5.72 1.84-.6-1.9 5.7-1.83zm639.62-1.9l-.55 1.92-5.78-1.66.54-1.92zm-630.1-1.06l-2.08.58-3.62 1.17-.6-1.9 3.65-1.18 2.13-.6zm620.47-1.68l-.56 1.92-5.78-1.65.55-1.93zm-610.82-.96l-5.8 1.6-.52-1.94 5.8-1.6zm601.18-1.8l-.55 1.93-5.77-1.67.55-1.92zm-591.52-.86l-5.8 1.6-.52-1.93 5.8-1.6zm581.9-1.9l-.56 1.93-5.78-1.65.55-1.92zm-572.24-.75l-5.8 1.6-.53-1.94 5.8-1.58zm562.6-2l-.55 1.93-5.78-1.65.55-1.93zm-552.94-.66l-5.8 1.58-.53-1.92 5.8-1.6zm543.3-2.1l-.54 1.93-5.78-1.66.55-1.92zm-533.65-.56l-5.78 1.6-.53-1.94 5.78-1.6zm523.97-2.07l-.47 1.95-5.85-1.4.47-1.95zm-514.3-.6l-5.8 1.6-.52-1.92 5.8-1.6zm504.56-1.74l-.47 1.94-5.84-1.4.47-1.95zm-494.92-.8l-2.46.58-3.3.92-.54-1.93 3.35-.93 2.5-.57zm485.2-1.55l-.48 1.95-5.84-1.4.47-1.95zm-475.43-.68l-5.85 1.35-.45-1.95 5.86-1.35zm465.68-1.66l-.46 1.94-5.86-1.4.47-1.95zm-455.92-.6l-5.85 1.36-.45-1.95 5.86-1.34zm446.2-1.74l-.48 1.94-5.84-1.4.47-1.95zm-436.43-.5l-5.86 1.36-.45-1.95 5.85-1.34zm426.68-1.85l-.47 1.95-5.83-1.4.47-1.96zm-416.92-.38l-5.86 1.34-.45-1.94 5.86-1.34zm407.12-1.87l-.4 1.96-5.88-1.16.38-1.96zm-397.36-.38l-5.86 1.35-.45-1.95 5.87-1.35zm387.53-1.56l-.38 1.97-5.9-1.16.4-1.97zm-377.75-.35l-5.9 1.1-.37-1.96 5.9-1.1zm367.92-1.57l-.38 1.96-5.9-1.16.4-1.97zm-358.07-.25l-5.9 1.1-.37-1.97 5.9-1.1zm348.25-1.68l-.4 1.96-5.9-1.16.4-1.96zm-338.4-.15l-5.9 1.1-.38-1.97 5.9-1.1zm328.57-1.78l-.4 1.96-5.88-1.16.37-1.96zm-318.73-.05l-5.9 1.1-.37-1.97 5.9-1.1zm308.84-1.8l-.3 2-5.94-.92.3-1.98zm-302.5.62l-2.4.44-.36-1.96 2.77-.52zm292.6-2.12l-.3 1.97-5.94-.92.3-1.97zm-9.9-1.52l-.3 1.98-5.94-.9.3-2zm-9.9-1.52l-.3 1.98-5.94-.9.3-2zm-10.6-1.62l.7.1-.3 1.98-.66-.1-5.27-.58.22-2zm-9.3-1.03l-.2 2-5.98-.67.22-2zm-9.94-1.1l-.22 2-5.98-.67.22-2zm-9.96-1.1l-.22 2-5.97-.67.2-2zm-169.97 1.8l-.86.1v-2l.67-.08zm9.98-1l-5.98.6-.2-1.98 5.98-.6zm150-1.9l-.13 2-6-.4.14-2zm-140.07 1.05l-3.1.18-2.83.28-.2-2 2.9-.28 3.13-.18zm130.1-1.73l-.15 2-6-.4.15-2zm-120.1 1.15l-6 .35-.1-2 6-.35zm110.1-1.83l-.14 2-6-.4.14-2zm-100.1 1.25l-6 .35-.1-2 6-.35zm90.1-1.93l-.13 2-6-.42.14-2zm-80.1 1.34l-6 .35-.1-2 6-.36zm70.07-1.9l-.06 2-6-.14.06-2zm-10.02-.25l-.05 2-6-.17.05-2zm-50.07 1.86l-6 .1-.04-2 6-.1zm10-.16l-6 .1-.03-2 6-.1zm30.06-1.97l-.05 2-6.02-.16.05-2zm-20.03 1.82l-6 .1-.04-2 6-.1zm10.03-2.08l-.05 2-1.98-.05-4 .06-.02-2 4.03-.06zM906.12 5928.75l-.75.24-.1-.25-1.12-1.47 1.36-.44zM1722.06 5926.8l-15 .04 2.84-8.82z"/><path d="M1725.14 5927.8l-19.46.05 3.7-11.45zm-16.7-1.96l10.54-.03-8.55-6.16z"/><g><use xlink:href="#s" transform="matrix(1,0,0,1,1166.3895111909776,5837.511486331464) translate(0.004999999999999005 21.333333333333336)"/></g><path d="M1322 5919h-2v-123h2zm0-155h-2v-104.76h2zM1322 5920h-2v-1h2zM1325.64 5658.5h-9.28l4.64-14.26z"/><path d="M1327 5659.5h-12l6-18.5zm-9.26-2h6.52l-3.26-10.03z"/><g><use xlink:href="#k" transform="matrix(1,0,0,1,1245.4814814814815,5763.99791502085) translate(0.0049999999999954525 21.333333333333336)"/><use xlink:href="#l" transform="matrix(1,0,0,1,1245.4814814814815,5763.99791502085) translate(114.00499999999998 21.333333333333336)"/></g><path d="M1805 5900.76h-2V5796h2zm0-136.76h-2v-123h2zM1804 5915.76l-4.64-14.27h9.28z"/><path d="M1804 5919l-6-18.5h12zm-3.26-16.5l3.26 10.02 3.26-10.03zM1805 5641h-2v-1h2z"/><g><use xlink:href="#k" transform="matrix(1,0,0,1,1728.4814814814815,5763.99791502085) translate(0.0049999999999954525 21.333333333333336)"/><use xlink:href="#l" transform="matrix(1,0,0,1,1728.4814814814815,5763.99791502085) translate(114.00499999999998 21.333333333333336)"/></g><path d="M270.72 5662.13l1.2 20 1.9 18.64 2.52 17.43 3.08 16.4 3.6 15.5 4.05 14.73 4.52 14.06 4.96 13.46 5.4 12.97 5.86 12.53 6.3 12.16 6.8 11.84 7.3 11.57 7.85 11.36 8.44 11.17 9.1 11.05 9.8 10.96 10.63 10.9 11.54 10.9 12.6 10.9 13.78 11 15.2 11.1 16.86 11.27 18.85 11.48 21.26 11.75 24.26 12.1 28.04 12.57 33 13.16 39.8 13.96 49.74 15.13 66.17 17.1 101.75 21.72 40.74 7.02 62.7 8.2 88.2 7.82 96.27 4.53v2l-96.4-4.55-88.28-7.82-62.8-8.2-40.83-7.05-101.82-21.74-66.25-17.13-49.83-15.14-39.87-13.98-33.08-13.18-28.12-12.6-24.32-12.15-21.33-11.8-18.92-11.5-16.93-11.32-15.27-11.16-13.85-11.04-12.65-10.97-11.6-10.95-10.68-10.96-9.87-11.02-9.14-11.1-8.5-11.26-7.88-11.42-7.35-11.65-6.82-11.92-6.35-12.23-5.9-12.6-5.43-13.06-5-13.56-4.54-14.14-4.1-14.8-3.6-15.6-3.1-16.47-2.53-17.52-1.9-18.7-1.2-20.1-.04-1.95 2-.04zm1457.33 334.3l-122.58 62.34-28.86 12.7-23.68 9.22-22.1 7.55-22.26 6.57-23.74 5.95-26.74 5.5-31.93 5.2-40.72 4.86-44.3 3.4v-2l44.1-3.4 40.64-4.85 31.84-5.17 26.68-5.48 23.66-5.93 22.16-6.56 22.03-7.53 23.6-9.2 28.78-12.64 122.55-62.3z"/><path d="M1728.7 5995.3l.6.5-1.25.64-.9-1.8.74-.36zM274.3 5659.4l-9.26.2 4.36-14.36z"/><path d="M275.7 5660.38l-12.02.23 5.65-18.6zm-9.3-1.82l6.5-.12-3.44-9.97z"/><g><use xlink:href="#D" transform="matrix(1,0,0,1,1114.7688907237275,6090.857342375768) translate(31.042037037037034 21.333333333333336)"/><use xlink:href="#w" transform="matrix(1,0,0,1,1114.7688907237275,6090.857342375768) translate(142.15314814814815 21.333333333333336)"/><use xlink:href="#x" transform="matrix(1,0,0,1,1114.7688907237275,6090.857342375768) translate(0.0049999999999954525 53.333333333333336)"/></g><path d="M443.24 5601.74h-23v-2h23zm303.16 0h-41.23v-2h41.23z"/><path d="M747.4 5601.74h-1v-2h1zM419.5 5605.38l-14.26-4.64 14.26-4.64z"/><path d="M420.5 5606.75l-18.5-6 18.5-6.02zm-12.03-6l10.03 3.25v-6.52z"/><g><use xlink:href="#J" transform="matrix(1,0,0,1,443.2393446699792,5568.7402243835495) translate(0.0049999999999954525 21.333333333333336)"/><use xlink:href="#K" transform="matrix(1,0,0,1,443.2393446699792,5568.7402243835495) translate(113.93092592592593 21.333333333333336)"/><use xlink:href="#L" transform="matrix(1,0,0,1,443.2393446699792,5568.7402243835495) translate(216.0790740740741 21.333333333333336)"/><use xlink:href="#B" transform="matrix(1,0,0,1,443.2393446699792,5568.7402243835495) translate(11.153148148148162 53.333333333333336)"/><use xlink:href="#C" transform="matrix(1,0,0,1,443.2393446699792,5568.7402243835495) translate(79.0790740740741 53.333333333333336)"/><use xlink:href="#l" transform="matrix(1,0,0,1,443.2393446699792,5568.7402243835495) translate(213.74574074074076 53.333333333333336)"/></g><defs><path d="M145-31C134-9 116 4 85 4 32 4 16-35 15-94c0-59 17-99 70-100 32-1 48 14 60 33 0-11-1-24 2-32h30l-1 268h-32zM93-21c41 0 51-33 51-76s-8-73-50-73c-40 0-46 35-46 75s5 74 45 74" id="M"/><path d="M84 4C-5 8 30-112 23-190h32v120c0 31 7 50 39 49 72-2 45-101 50-169h31l1 190h-30c-1-10 1-25-2-33-11 22-28 36-60 37" id="N"/><path d="M100-194c63 0 86 42 84 106H49c0 40 14 67 53 68 26 1 43-12 49-29l28 8c-11 28-37 45-77 45C44 4 14-33 15-96c1-61 26-98 85-98zm52 81c6-60-76-77-97-28-3 7-6 17-6 28h103" id="O"/><path d="M85-194c31 0 48 13 60 33l-1-100h32l1 261h-30c-2-10 0-23-3-31C134-8 116 4 85 4 32 4 16-35 15-94c0-66 23-100 70-100zm9 24c-40 0-46 34-46 75 0 40 6 74 45 74 42 0 51-32 51-76 0-42-9-74-50-73" id="P"/><g id="a"><use transform="matrix(0.07407407407407408,0,0,0.07407407407407408,0,0)" xlink:href="#M"/><use transform="matrix(0.07407407407407408,0,0,0.07407407407407408,14.814814814814817,0)" xlink:href="#N"/><use transform="matrix(0.07407407407407408,0,0,0.07407407407407408,29.629629629629633,0)" xlink:href="#O"/><use transform="matrix(0.07407407407407408,0,0,0.07407407407407408,44.44444444444445,0)" xlink:href="#N"/><use transform="matrix(0.07407407407407408,0,0,0.07407407407407408,59.25925925925927,0)" xlink:href="#O"/><use transform="matrix(0.07407407407407408,0,0,0.07407407407407408,74.07407407407408,0)" xlink:href="#P"/></g><path d="M114-163C36-179 61-72 57 0H25l-1-190h30c1 12-1 29 2 39 6-27 23-49 58-41v29" id="Q"/><path d="M117-194c89-4 53 116 60 194h-32v-121c0-31-8-49-39-48C34-167 62-67 57 0H25l-1-190h30c1 10-1 24 2 32 11-22 29-35 61-36" id="R"/><path d="M24-231v-30h32v30H24zM24 0v-190h32V0H24" id="S"/><path d="M177-190C167-65 218 103 67 71c-23-6-38-20-44-43l32-5c15 47 100 32 89-28v-30C133-14 115 1 83 1 29 1 15-40 15-95c0-56 16-97 71-98 29-1 48 16 59 35 1-10 0-23 2-32h30zM94-22c36 0 50-32 50-73 0-42-14-75-50-75-39 0-46 34-46 75s6 73 46 73" id="T"/><g id="b"><use transform="matrix(0.07407407407407408,0,0,0.07407407407407408,0,0)" xlink:href="#Q"/><use transform="matrix(0.07407407407407408,0,0,0.07407407407407408,8.814814814814817,0)" xlink:href="#N"/><use transform="matrix(0.07407407407407408,0,0,0.07407407407407408,23.629629629629633,0)" xlink:href="#R"/><use transform="matrix(0.07407407407407408,0,0,0.07407407407407408,38.44444444444445,0)" xlink:href="#R"/><use transform="matrix(0.07407407407407408,0,0,0.07407407407407408,53.25925925925927,0)" xlink:href="#S"/><use transform="matrix(0.07407407407407408,0,0,0.07407407407407408,59.11111111111112,0)" xlink:href="#R"/><use transform="matrix(0.07407407407407408,0,0,0.07407407407407408,73.92592592592594,0)" xlink:href="#T"/></g><path d="M206 0h-36l-40-164L89 0H53L-1-190h32L70-26l43-164h34l41 164 42-164h31" id="U"/><path d="M141-36C126-15 110 5 73 4 37 3 15-17 15-53c-1-64 63-63 125-63 3-35-9-54-41-54-24 1-41 7-42 31l-33-3c5-37 33-52 76-52 45 0 72 20 72 64v82c-1 20 7 32 28 27v20c-31 9-61-2-59-35zM48-53c0 20 12 33 32 33 41-3 63-29 60-74-43 2-92-5-92 41" id="V"/><path d="M59-47c-2 24 18 29 38 22v24C64 9 27 4 27-40v-127H5v-23h24l9-43h21v43h35v23H59v120" id="W"/><path d="M-5 72V49h209v23H-5" id="X"/><path d="M135-143c-3-34-86-38-87 0 15 53 115 12 119 90S17 21 10-45l28-5c4 36 97 45 98 0-10-56-113-15-118-90-4-57 82-63 122-42 12 7 21 19 24 35" id="Y"/><path d="M100-194c62-1 85 37 85 99 1 63-27 99-86 99S16-35 15-95c0-66 28-99 85-99zM99-20c44 1 53-31 53-75 0-43-8-75-51-75s-53 32-53 75 10 74 51 75" id="Z"/><g id="c"><use transform="matrix(0.07407407407407408,0,0,0.07407407407407408,0,0)" xlink:href="#U"/><use transform="matrix(0.07407407407407408,0,0,0.07407407407407408,19.185185185185187,0)" xlink:href="#V"/><use transform="matrix(0.07407407407407408,0,0,0.07407407407407408,34,0)" xlink:href="#S"/><use transform="matrix(0.07407407407407408,0,0,0.07407407407407408,39.851851851851855,0)" xlink:href="#W"/><use transform="matrix(0.07407407407407408,0,0,0.07407407407407408,47.25925925925927,0)" xlink:href="#S"/><use transform="matrix(0.07407407407407408,0,0,0.07407407407407408,53.11111111111112,0)" xlink:href="#R"/><use transform="matrix(0.07407407407407408,0,0,0.07407407407407408,67.92592592592594,0)" xlink:href="#T"/><use transform="matrix(0.07407407407407408,0,0,0.07407407407407408,82.74074074074076,0)" xlink:href="#X"/><use transform="matrix(0.07407407407407408,0,0,0.07407407407407408,97.55555555555557,0)" xlink:href="#Y"/><use transform="matrix(0.07407407407407408,0,0,0.07407407407407408,110.88888888888891,0)" xlink:href="#W"/><use transform="matrix(0.07407407407407408,0,0,0.07407407407407408,118.29629629629632,0)" xlink:href="#Z"/></g><g id="d"><use transform="matrix(0.07407407407407408,0,0,0.07407407407407408,0,0)" xlink:href="#Y"/><use transform="matrix(0.07407407407407408,0,0,0.07407407407407408,13.333333333333336,0)" xlink:href="#O"/><use transform="matrix(0.07407407407407408,0,0,0.07407407407407408,28.148148148148152,0)" xlink:href="#R"/><use transform="matrix(0.07407407407407408,0,0,0.07407407407407408,42.96296296296297,0)" xlink:href="#P"/><use transform="matrix(0.07407407407407408,0,0,0.07407407407407408,57.777777777777786,0)" xlink:href="#S"/><use transform="matrix(0.07407407407407408,0,0,0.07407407407407408,63.62962962962964,0)" xlink:href="#R"/><use transform="matrix(0.07407407407407408,0,0,0.07407407407407408,78.44444444444446,0)" xlink:href="#T"/></g><path d="M24 0v-261h32V0H24" id="aa"/><path d="M96-169c-40 0-48 33-48 73s9 75 48 75c24 0 41-14 43-38l32 2c-6 37-31 61-74 61-59 0-76-41-82-99-10-93 101-131 147-64 4 7 5 14 7 22l-32 3c-4-21-16-35-41-35" id="ab"/><path d="M143 0L79-87 56-68V0H24v-261h32v163l83-92h37l-77 82L181 0h-38" id="ac"/><g id="e"><use transform="matrix(0.07407407407407408,0,0,0.07407407407407408,0,0)" xlink:href="#aa"/><use transform="matrix(0.07407407407407408,0,0,0.07407407407407408,5.851851851851853,0)" xlink:href="#Z"/><use transform="matrix(0.07407407407407408,0,0,0.07407407407407408,20.666666666666668,0)" xlink:href="#ab"/><use transform="matrix(0.07407407407407408,0,0,0.07407407407407408,34.00000000000001,0)" xlink:href="#ac"/><use transform="matrix(0.07407407407407408,0,0,0.07407407407407408,47.33333333333334,0)" xlink:href="#X"/><use transform="matrix(0.07407407407407408,0,0,0.07407407407407408,62.14814814814816,0)" xlink:href="#Y"/><use transform="matrix(0.07407407407407408,0,0,0.07407407407407408,75.4814814814815,0)" xlink:href="#W"/><use transform="matrix(0.07407407407407408,0,0,0.07407407407407408,82.8888888888889,0)" xlink:href="#Z"/></g><g id="f"><use transform="matrix(0.07407407407407408,0,0,0.07407407407407408,0,0)" xlink:href="#U"/><use transform="matrix(0.07407407407407408,0,0,0.07407407407407408,19.185185185185187,0)" xlink:href="#V"/><use transform="matrix(0.07407407407407408,0,0,0.07407407407407408,34,0)" xlink:href="#ac"/><use transform="matrix(0.07407407407407408,0,0,0.07407407407407408,47.33333333333334,0)" xlink:href="#S"/><use transform="matrix(0.07407407407407408,0,0,0.07407407407407408,53.18518518518519,0)" xlink:href="#R"/><use transform="matrix(0.07407407407407408,0,0,0.07407407407407408,68,0)" xlink:href="#T"/><use transform="matrix(0.07407407407407408,0,0,0.07407407407407408,82.81481481481481,0)" xlink:href="#X"/><use transform="matrix(0.07407407407407408,0,0,0.07407407407407408,97.62962962962962,0)" xlink:href="#Y"/><use transform="matrix(0.07407407407407408,0,0,0.07407407407407408,110.96296296296296,0)" xlink:href="#W"/><use transform="matrix(0.07407407407407408,0,0,0.07407407407407408,118.37037037037037,0)" xlink:href="#Z"/></g><g id="g"><use transform="matrix(0.07407407407407408,0,0,0.07407407407407408,0,0)" xlink:href="#N"/><use transform="matrix(0.07407407407407408,0,0,0.07407407407407408,14.814814814814817,0)" xlink:href="#R"/><use transform="matrix(0.07407407407407408,0,0,0.07407407407407408,29.629629629629633,0)" xlink:href="#aa"/><use transform="matrix(0.07407407407407408,0,0,0.07407407407407408,35.48148148148149,0)" xlink:href="#Z"/><use transform="matrix(0.07407407407407408,0,0,0.07407407407407408,50.296296296296305,0)" xlink:href="#ab"/><use transform="matrix(0.07407407407407408,0,0,0.07407407407407408,63.62962962962964,0)" xlink:href="#ac"/><use transform="matrix(0.07407407407407408,0,0,0.07407407407407408,76.96296296296298,0)" xlink:href="#O"/><use transform="matrix(0.07407407407407408,0,0,0.07407407407407408,91.7777777777778,0)" xlink:href="#Q"/></g><path d="M101-234c-31-9-42 10-38 44h38v23H63V0H32v-167H5v-23h27c-7-52 17-82 69-68v24" id="ad"/><path d="M106-169C34-169 62-67 57 0H25v-261h32l-1 103c12-21 28-36 61-36 89 0 53 116 60 194h-32v-121c2-32-8-49-39-48" id="ae"/><g id="h"><use transform="matrix(0.07407407407407408,0,0,0.07407407407407408,0,0)" xlink:href="#ad"/><use transform="matrix(0.07407407407407408,0,0,0.07407407407407408,7.407407407407408,0)" xlink:href="#S"/><use transform="matrix(0.07407407407407408,0,0,0.07407407407407408,13.259259259259261,0)" xlink:href="#R"/><use transform="matrix(0.07407407407407408,0,0,0.07407407407407408,28.074074074074076,0)" xlink:href="#S"/><use transform="matrix(0.07407407407407408,0,0,0.07407407407407408,33.92592592592593,0)" xlink:href="#Y"/><use transform="matrix(0.07407407407407408,0,0,0.07407407407407408,47.25925925925927,0)" xlink:href="#ae"/><use transform="matrix(0.07407407407407408,0,0,0.07407407407407408,62.07407407407408,0)" xlink:href="#O"/><use transform="matrix(0.07407407407407408,0,0,0.07407407407407408,76.8888888888889,0)" xlink:href="#P"/></g><g id="i"><use transform="matrix(0.07407407407407408,0,0,0.07407407407407408,0,0)" xlink:href="#Q"/><use transform="matrix(0.07407407407407408,0,0,0.07407407407407408,8.814814814814817,0)" xlink:href="#O"/><use transform="matrix(0.07407407407407408,0,0,0.07407407407407408,23.629629629629633,0)" xlink:href="#aa"/><use transform="matrix(0.07407407407407408,0,0,0.07407407407407408,29.481481481481488,0)" xlink:href="#O"/><use transform="matrix(0.07407407407407408,0,0,0.07407407407407408,44.296296296296305,0)" xlink:href="#V"/><use transform="matrix(0.07407407407407408,0,0,0.07407407407407408,59.11111111111112,0)" xlink:href="#Y"/><use transform="matrix(0.07407407407407408,0,0,0.07407407407407408,72.44444444444446,0)" xlink:href="#S"/><use transform="matrix(0.07407407407407408,0,0,0.07407407407407408,78.2962962962963,0)" xlink:href="#R"/><use transform="matrix(0.07407407407407408,0,0,0.07407407407407408,93.1111111111111,0)" xlink:href="#T"/></g><path d="M210-169c-67 3-38 105-44 169h-31v-121c0-29-5-50-35-48C34-165 62-65 56 0H25l-1-190h30c1 10-1 24 2 32 10-44 99-50 107 0 11-21 27-35 58-36 85-2 47 119 55 194h-31v-121c0-29-5-49-35-48" id="af"/><path d="M141 0L90-78 38 0H4l68-98-65-92h35l48 74 47-74h35l-64 92 68 98h-35" id="ag"/><g id="j"><use transform="matrix(0.07407407407407408,0,0,0.07407407407407408,0,0)" xlink:href="#af"/><use transform="matrix(0.07407407407407408,0,0,0.07407407407407408,22.148148148148152,0)" xlink:href="#N"/><use transform="matrix(0.07407407407407408,0,0,0.07407407407407408,36.96296296296297,0)" xlink:href="#W"/><use transform="matrix(0.07407407407407408,0,0,0.07407407407407408,44.37037037037039,0)" xlink:href="#O"/><use transform="matrix(0.07407407407407408,0,0,0.07407407407407408,59.185185185185205,0)" xlink:href="#ag"/></g><g id="k"><use transform="matrix(0.07407407407407408,0,0,0.07407407407407408,0,0)" xlink:href="#Y"/><use transform="matrix(0.07407407407407408,0,0,0.07407407407407408,13.333333333333336,0)" xlink:href="#ab"/><use transform="matrix(0.07407407407407408,0,0,0.07407407407407408,26.66666666666667,0)" xlink:href="#ae"/><use transform="matrix(0.07407407407407408,0,0,0.07407407407407408,41.48148148148149,0)" xlink:href="#O"/><use transform="matrix(0.07407407407407408,0,0,0.07407407407407408,56.296296296296305,0)" xlink:href="#P"/><use transform="matrix(0.07407407407407408,0,0,0.07407407407407408,71.11111111111111,0)" xlink:href="#N"/><use transform="matrix(0.07407407407407408,0,0,0.07407407407407408,85.92592592592592,0)" xlink:href="#aa"/><use transform="matrix(0.07407407407407408,0,0,0.07407407407407408,91.77777777777777,0)" xlink:href="#O"/></g><g id="l"><use transform="matrix(0.07407407407407408,0,0,0.07407407407407408,0,0)" xlink:href="#Z"/><use transform="matrix(0.07407407407407408,0,0,0.07407407407407408,14.814814814814817,0)" xlink:href="#N"/><use transform="matrix(0.07407407407407408,0,0,0.07407407407407408,29.629629629629633,0)" xlink:href="#W"/></g><g id="m"><use transform="matrix(0.07407407407407408,0,0,0.07407407407407408,0,0)" xlink:href="#Y"/><use transform="matrix(0.07407407407407408,0,0,0.07407407407407408,13.333333333333336,0)" xlink:href="#W"/><use transform="matrix(0.07407407407407408,0,0,0.07407407407407408,20.740740740740744,0)" xlink:href="#V"/><use transform="matrix(0.07407407407407408,0,0,0.07407407407407408,35.55555555555556,0)" xlink:href="#Q"/><use transform="matrix(0.07407407407407408,0,0,0.07407407407407408,44.370370370370374,0)" xlink:href="#W"/></g><g id="n"><use transform="matrix(0.07407407407407408,0,0,0.07407407407407408,0,0)" xlink:href="#U"/><use transform="matrix(0.07407407407407408,0,0,0.07407407407407408,19.185185185185187,0)" xlink:href="#V"/><use transform="matrix(0.07407407407407408,0,0,0.07407407407407408,34,0)" xlink:href="#S"/><use transform="matrix(0.07407407407407408,0,0,0.07407407407407408,39.851851851851855,0)" xlink:href="#W"/><use transform="matrix(0.07407407407407408,0,0,0.07407407407407408,47.25925925925927,0)" xlink:href="#S"/><use transform="matrix(0.07407407407407408,0,0,0.07407407407407408,53.11111111111112,0)" xlink:href="#R"/><use transform="matrix(0.07407407407407408,0,0,0.07407407407407408,67.92592592592594,0)" xlink:href="#T"/></g><g id="o"><use transform="matrix(0.07407407407407408,0,0,0.07407407407407408,0,0)" xlink:href="#ad"/><use transform="matrix(0.07407407407407408,0,0,0.07407407407407408,7.407407407407408,0)" xlink:href="#Z"/><use transform="matrix(0.07407407407407408,0,0,0.07407407407407408,22.222222222222225,0)" xlink:href="#Q"/></g><g id="p"><use transform="matrix(0.07407407407407408,0,0,0.07407407407407408,0,0)" xlink:href="#ab"/><use transform="matrix(0.07407407407407408,0,0,0.07407407407407408,13.333333333333336,0)" xlink:href="#Z"/><use transform="matrix(0.07407407407407408,0,0,0.07407407407407408,28.148148148148152,0)" xlink:href="#R"/><use transform="matrix(0.07407407407407408,0,0,0.07407407407407408,42.96296296296297,0)" xlink:href="#P"/><use transform="matrix(0.07407407407407408,0,0,0.07407407407407408,57.777777777777786,0)" xlink:href="#S"/><use transform="matrix(0.07407407407407408,0,0,0.07407407407407408,63.62962962962964,0)" xlink:href="#W"/><use transform="matrix(0.07407407407407408,0,0,0.07407407407407408,71.03703703703705,0)" xlink:href="#S"/><use transform="matrix(0.07407407407407408,0,0,0.07407407407407408,76.8888888888889,0)" xlink:href="#Z"/><use transform="matrix(0.07407407407407408,0,0,0.07407407407407408,91.70370370370371,0)" xlink:href="#R"/></g><path d="M115-194c53 0 69 39 70 98 0 66-23 100-70 100C84 3 66-7 56-30L54 0H23l1-261h32v101c10-23 28-34 59-34zm-8 174c40 0 45-34 45-75 0-40-5-75-45-74-42 0-51 32-51 76 0 43 10 73 51 73" id="ah"/><g id="q"><use transform="matrix(0.07407407407407408,0,0,0.07407407407407408,0,0)" xlink:href="#N"/><use transform="matrix(0.07407407407407408,0,0,0.07407407407407408,14.814814814814817,0)" xlink:href="#R"/><use transform="matrix(0.07407407407407408,0,0,0.07407407407407408,29.629629629629633,0)" xlink:href="#ah"/><use transform="matrix(0.07407407407407408,0,0,0.07407407407407408,44.44444444444445,0)" xlink:href="#aa"/><use transform="matrix(0.07407407407407408,0,0,0.07407407407407408,50.296296296296305,0)" xlink:href="#Z"/><use transform="matrix(0.07407407407407408,0,0,0.07407407407407408,65.11111111111111,0)" xlink:href="#ab"/><use transform="matrix(0.07407407407407408,0,0,0.07407407407407408,78.44444444444446,0)" xlink:href="#ac"/><use transform="matrix(0.07407407407407408,0,0,0.07407407407407408,91.7777777777778,0)" xlink:href="#O"/><use transform="matrix(0.07407407407407408,0,0,0.07407407407407408,106.59259259259261,0)" xlink:href="#Q"/></g><g id="r"><use transform="matrix(0.07407407407407408,0,0,0.07407407407407408,0,0)" xlink:href="#Y"/><use transform="matrix(0.07407407407407408,0,0,0.07407407407407408,13.333333333333336,0)" xlink:href="#W"/><use transform="matrix(0.07407407407407408,0,0,0.07407407407407408,20.740740740740744,0)" xlink:href="#V"/><use transform="matrix(0.07407407407407408,0,0,0.07407407407407408,35.55555555555556,0)" xlink:href="#Q"/><use transform="matrix(0.07407407407407408,0,0,0.07407407407407408,44.370370370370374,0)" xlink:href="#W"/><use transform="matrix(0.07407407407407408,0,0,0.07407407407407408,51.777777777777786,0)" xlink:href="#Y"/></g><g id="s"><use transform="matrix(0.07407407407407408,0,0,0.07407407407407408,0,0)" xlink:href="#U"/><use transform="matrix(0.07407407407407408,0,0,0.07407407407407408,19.185185185185187,0)" xlink:href="#V"/><use transform="matrix(0.07407407407407408,0,0,0.07407407407407408,34,0)" xlink:href="#ac"/><use transform="matrix(0.07407407407407408,0,0,0.07407407407407408,47.33333333333334,0)" xlink:href="#O"/></g><g id="t"><use transform="matrix(0.07407407407407408,0,0,0.07407407407407408,0,0)" xlink:href="#S"/><use transform="matrix(0.07407407407407408,0,0,0.07407407407407408,5.851851851851853,0)" xlink:href="#P"/><use transform="matrix(0.07407407407407408,0,0,0.07407407407407408,20.666666666666668,0)" xlink:href="#aa"/><use transform="matrix(0.07407407407407408,0,0,0.07407407407407408,26.518518518518526,0)" xlink:href="#O"/></g><g id="u"><use transform="matrix(0.07407407407407408,0,0,0.07407407407407408,0,0)" xlink:href="#W"/><use transform="matrix(0.07407407407407408,0,0,0.07407407407407408,7.407407407407408,0)" xlink:href="#ae"/><use transform="matrix(0.07407407407407408,0,0,0.07407407407407408,22.222222222222225,0)" xlink:href="#Q"/><use transform="matrix(0.07407407407407408,0,0,0.07407407407407408,31.03703703703704,0)" xlink:href="#O"/><use transform="matrix(0.07407407407407408,0,0,0.07407407407407408,45.851851851851855,0)" xlink:href="#V"/><use transform="matrix(0.07407407407407408,0,0,0.07407407407407408,60.66666666666667,0)" xlink:href="#P"/></g><g id="v"><use transform="matrix(0.07407407407407408,0,0,0.07407407407407408,0,0)" xlink:href="#P"/><use transform="matrix(0.07407407407407408,0,0,0.07407407407407408,14.814814814814817,0)" xlink:href="#O"/><use transform="matrix(0.07407407407407408,0,0,0.07407407407407408,29.629629629629633,0)" xlink:href="#M"/><use transform="matrix(0.07407407407407408,0,0,0.07407407407407408,44.44444444444445,0)" xlink:href="#N"/><use transform="matrix(0.07407407407407408,0,0,0.07407407407407408,59.25925925925927,0)" xlink:href="#O"/><use transform="matrix(0.07407407407407408,0,0,0.07407407407407408,74.07407407407408,0)" xlink:href="#N"/><use transform="matrix(0.07407407407407408,0,0,0.07407407407407408,88.88888888888889,0)" xlink:href="#O"/><use transform="matrix(0.07407407407407408,0,0,0.07407407407407408,103.7037037037037,0)" xlink:href="#Y"/></g><g id="w"><use transform="matrix(0.07407407407407408,0,0,0.07407407407407408,0,0)" xlink:href="#ad"/><use transform="matrix(0.07407407407407408,0,0,0.07407407407407408,7.407407407407408,0)" xlink:href="#Q"/><use transform="matrix(0.07407407407407408,0,0,0.07407407407407408,16.222222222222225,0)" xlink:href="#Z"/><use transform="matrix(0.07407407407407408,0,0,0.07407407407407408,31.03703703703704,0)" xlink:href="#af"/></g><path d="M50-231l6-30h32l-6 30H50zM6 0l37-190h31L37 0H6" id="ai"/><path d="M67-158c22-48 132-52 116 29L158 0h-32l25-140c3-38-53-32-70-12C52-117 51-52 38 0H6l36-190h30" id="aj"/><path d="M44-68c0 29 11 47 38 47 30 0 42-19 51-41l28 9C148-21 126 4 82 4 31 4 10-29 12-85c3-77 74-140 146-93 12 8 15 23 18 40l-31 5c-1-22-13-36-36-36-52 0-65 49-65 101" id="ak"/><path d="M30-147c31-64 166-65 159 27C183-49 158 1 86 4 9 8 1-88 30-147zM88-20c53 0 68-48 68-100 0-31-11-51-44-50-52 1-68 46-68 97 0 32 13 53 44 53" id="al"/><path d="M248-111c6-24 9-61-24-58-72 9-57 108-77 169h-31l26-142c3-37-50-30-64-10C52-115 50-51 37 0H6l36-190h30c-1 10-6 24-4 32 13-43 101-52 105 5 13-22 29-41 61-41 90 0 28 129 23 194h-31" id="am"/><path d="M103-194c29 0 47 14 56 36 2-11 5-23 8-32h30L160-5C157 61 82 97 21 62 9 55 4 45 1 30l28-7c7 42 83 31 92-3 4-16 9-38 13-55-13 20-29 36-62 36-40 0-60-25-60-64 0-71 23-131 91-131zm4 24c-53 0-58 54-61 104-2 27 10 44 36 44 49 0 65-50 67-102 1-29-15-46-42-46" id="an"/><path d="M-28 44V31h207v13H-28" id="ao"/><path d="M188 0h-37l-8-164L71 0H34L18-190h31l8 164 75-164h34l8 164 74-164h31" id="ap"/><path d="M165-48c-4 18 1 34 23 27l-3 20c-29 8-62 0-52-35h-2C116-14 99 4 63 4 30 4 8-16 8-49c0-68 71-67 138-67 10-26 0-56-31-54-26 1-42 9-47 31l-32-5c8-67 160-71 144 15-5 28-9 54-15 81zM42-50c3 52 80 24 89-6 7-12 7-24 11-38-47 1-103-4-100 44" id="aq"/><path d="M127 0L80-88 50-66 37 0H6l51-261h31L57-100l99-90h39l-93 82L161 0h-34" id="ar"/><path d="M111-194c62-3 86 47 72 106H45c-7 38 6 69 45 68 27-1 43-14 53-32l24 11C152-15 129 4 87 4 38 3 12-23 12-71c0-70 32-119 99-123zm44 81c14-66-71-72-95-28-4 8-8 17-11 28h106" id="as"/><path d="M67 3c-93-2-31-127-26-193h32L48-50c-3 39 53 32 70 12 30-34 30-101 43-152h32L157 0h-30c1-10 6-24 4-33-14 20-29 37-64 36" id="at"/><path d="M67-162c32-53 139-36 121 50C175-51 163 2 97 4 68 4 52-11 42-31 38 6 28 39 22 75H-9l50-265h29c-1 10 0 20-3 28zm89 36c0-26-10-43-35-43-54 0-67 50-69 103-1 29 14 45 42 46 53 0 62-58 62-106" id="au"/><path d="M55-144c13 50 104 24 104 88C159 21 15 23 1-39l26-10c6 40 102 42 102-4-13-50-104-23-104-87 0-71 143-71 148-8l-29 4c-5-35-85-37-89 0" id="av"/><g id="x"><use transform="matrix(0.07407407407407408,0,0,0.07407407407407408,0,0)" xlink:href="#ai"/><use transform="matrix(0.07407407407407408,0,0,0.07407407407407408,5.851851851851853,0)" xlink:href="#aj"/><use transform="matrix(0.07407407407407408,0,0,0.07407407407407408,20.666666666666668,0)" xlink:href="#ak"/><use transform="matrix(0.07407407407407408,0,0,0.07407407407407408,34.00000000000001,0)" xlink:href="#al"/><use transform="matrix(0.07407407407407408,0,0,0.07407407407407408,48.814814814814824,0)" xlink:href="#am"/><use transform="matrix(0.07407407407407408,0,0,0.07407407407407408,70.96296296296298,0)" xlink:href="#ai"/><use transform="matrix(0.07407407407407408,0,0,0.07407407407407408,76.81481481481482,0)" xlink:href="#aj"/><use transform="matrix(0.07407407407407408,0,0,0.07407407407407408,91.62962962962965,0)" xlink:href="#an"/><use transform="matrix(0.07407407407407408,0,0,0.07407407407407408,106.44444444444446,0)" xlink:href="#ao"/><use transform="matrix(0.07407407407407408,0,0,0.07407407407407408,121.25925925925925,0)" xlink:href="#ap"/><use transform="matrix(0.07407407407407408,0,0,0.07407407407407408,140.44444444444446,0)" xlink:href="#aq"/><use transform="matrix(0.07407407407407408,0,0,0.07407407407407408,155.25925925925927,0)" xlink:href="#ar"/><use transform="matrix(0.07407407407407408,0,0,0.07407407407407408,168.5925925925926,0)" xlink:href="#as"/><use transform="matrix(0.07407407407407408,0,0,0.07407407407407408,183.40740740740742,0)" xlink:href="#at"/><use transform="matrix(0.07407407407407408,0,0,0.07407407407407408,198.22222222222223,0)" xlink:href="#au"/><use transform="matrix(0.07407407407407408,0,0,0.07407407407407408,213.03703703703704,0)" xlink:href="#av"/></g><g id="y"><use transform="matrix(0.07407407407407408,0,0,0.07407407407407408,0,0)" xlink:href="#W"/><use transform="matrix(0.07407407407407408,0,0,0.07407407407407408,7.407407407407408,0)" xlink:href="#ae"/><use transform="matrix(0.07407407407407408,0,0,0.07407407407407408,22.222222222222225,0)" xlink:href="#Q"/><use transform="matrix(0.07407407407407408,0,0,0.07407407407407408,31.03703703703704,0)" xlink:href="#O"/><use transform="matrix(0.07407407407407408,0,0,0.07407407407407408,45.851851851851855,0)" xlink:href="#V"/><use transform="matrix(0.07407407407407408,0,0,0.07407407407407408,60.66666666666667,0)" xlink:href="#P"/></g><g id="z"><use transform="matrix(0.07407407407407408,0,0,0.07407407407407408,0,0)" xlink:href="#U"/><use transform="matrix(0.07407407407407408,0,0,0.07407407407407408,19.185185185185187,0)" xlink:href="#Z"/><use transform="matrix(0.07407407407407408,0,0,0.07407407407407408,34,0)" xlink:href="#ac"/><use transform="matrix(0.07407407407407408,0,0,0.07407407407407408,47.33333333333334,0)" xlink:href="#O"/><use transform="matrix(0.07407407407407408,0,0,0.07407407407407408,62.14814814814816,0)" xlink:href="#R"/></g><path d="M115-194c55 1 70 41 70 98S169 2 115 4C84 4 66-9 55-30l1 105H24l-1-265h31l2 30c10-21 28-34 59-34zm-8 174c40 0 45-34 45-75s-6-73-45-74c-42 0-51 32-51 76 0 43 10 73 51 73" id="aw"/><g id="A"><use transform="matrix(0.07407407407407408,0,0,0.07407407407407408,0,0)" xlink:href="#N"/><use transform="matrix(0.07407407407407408,0,0,0.07407407407407408,14.814814814814817,0)" xlink:href="#aw"/></g><g id="B"><use transform="matrix(0.07407407407407408,0,0,0.07407407407407408,0,0)" xlink:href="#U"/><use transform="matrix(0.07407407407407408,0,0,0.07407407407407408,19.185185185185187,0)" xlink:href="#ae"/><use transform="matrix(0.07407407407407408,0,0,0.07407407407407408,34,0)" xlink:href="#S"/><use transform="matrix(0.07407407407407408,0,0,0.07407407407407408,39.851851851851855,0)" xlink:href="#aa"/><use transform="matrix(0.07407407407407408,0,0,0.07407407407407408,45.70370370370371,0)" xlink:href="#O"/></g><g id="C"><use transform="matrix(0.07407407407407408,0,0,0.07407407407407408,0,0)" xlink:href="#Y"/><use transform="matrix(0.07407407407407408,0,0,0.07407407407407408,13.333333333333336,0)" xlink:href="#ab"/><use transform="matrix(0.07407407407407408,0,0,0.07407407407407408,26.66666666666667,0)" xlink:href="#ae"/><use transform="matrix(0.07407407407407408,0,0,0.07407407407407408,41.48148148148149,0)" xlink:href="#O"/><use transform="matrix(0.07407407407407408,0,0,0.07407407407407408,56.296296296296305,0)" xlink:href="#P"/><use transform="matrix(0.07407407407407408,0,0,0.07407407407407408,71.11111111111111,0)" xlink:href="#N"/><use transform="matrix(0.07407407407407408,0,0,0.07407407407407408,85.92592592592592,0)" xlink:href="#aa"/><use transform="matrix(0.07407407407407408,0,0,0.07407407407407408,91.77777777777777,0)" xlink:href="#S"/><use transform="matrix(0.07407407407407408,0,0,0.07407407407407408,97.62962962962962,0)" xlink:href="#R"/><use transform="matrix(0.07407407407407408,0,0,0.07407407407407408,112.44444444444443,0)" xlink:href="#T"/></g><g id="D"><use transform="matrix(0.07407407407407408,0,0,0.07407407407407408,0,0)" xlink:href="#P"/><use transform="matrix(0.07407407407407408,0,0,0.07407407407407408,14.814814814814817,0)" xlink:href="#O"/><use transform="matrix(0.07407407407407408,0,0,0.07407407407407408,29.629629629629633,0)" xlink:href="#M"/><use transform="matrix(0.07407407407407408,0,0,0.07407407407407408,44.44444444444445,0)" xlink:href="#N"/><use transform="matrix(0.07407407407407408,0,0,0.07407407407407408,59.25925925925927,0)" xlink:href="#O"/><use transform="matrix(0.07407407407407408,0,0,0.07407407407407408,74.07407407407408,0)" xlink:href="#N"/><use transform="matrix(0.07407407407407408,0,0,0.07407407407407408,88.88888888888889,0)" xlink:href="#O"/></g><g id="E"><use transform="matrix(0.07407407407407408,0,0,0.07407407407407408,0,0)" xlink:href="#ad"/><use transform="matrix(0.07407407407407408,0,0,0.07407407407407408,7.407407407407408,0)" xlink:href="#Q"/><use transform="matrix(0.07407407407407408,0,0,0.07407407407407408,16.222222222222225,0)" xlink:href="#Z"/><use transform="matrix(0.07407407407407408,0,0,0.07407407407407408,31.03703703703704,0)" xlink:href="#af"/></g><g id="F"><use transform="matrix(0.07407407407407408,0,0,0.07407407407407408,0,0)" xlink:href="#Q"/><use transform="matrix(0.07407407407407408,0,0,0.07407407407407408,8.814814814814817,0)" xlink:href="#N"/><use transform="matrix(0.07407407407407408,0,0,0.07407407407407408,23.629629629629633,0)" xlink:href="#R"/><use transform="matrix(0.07407407407407408,0,0,0.07407407407407408,38.44444444444445,0)" xlink:href="#M"/><use transform="matrix(0.07407407407407408,0,0,0.07407407407407408,53.25925925925927,0)" xlink:href="#N"/><use transform="matrix(0.07407407407407408,0,0,0.07407407407407408,68.07407407407408,0)" xlink:href="#O"/><use transform="matrix(0.07407407407407408,0,0,0.07407407407407408,82.88888888888889,0)" xlink:href="#N"/><use transform="matrix(0.07407407407407408,0,0,0.07407407407407408,97.7037037037037,0)" xlink:href="#O"/></g><g id="G"><use transform="matrix(0.07407407407407408,0,0,0.07407407407407408,0,0)" xlink:href="#U"/><use transform="matrix(0.07407407407407408,0,0,0.07407407407407408,19.185185185185187,0)" xlink:href="#V"/><use transform="matrix(0.07407407407407408,0,0,0.07407407407407408,34,0)" xlink:href="#S"/><use transform="matrix(0.07407407407407408,0,0,0.07407407407407408,39.851851851851855,0)" xlink:href="#W"/><use transform="matrix(0.07407407407407408,0,0,0.07407407407407408,47.25925925925927,0)" xlink:href="#S"/><use transform="matrix(0.07407407407407408,0,0,0.07407407407407408,53.11111111111112,0)" xlink:href="#R"/><use transform="matrix(0.07407407407407408,0,0,0.07407407407407408,67.92592592592594,0)" xlink:href="#T"/><use transform="matrix(0.07407407407407408,0,0,0.07407407407407408,82.74074074074076,0)" xlink:href="#X"/><use transform="matrix(0.07407407407407408,0,0,0.07407407407407408,97.55555555555557,0)" xlink:href="#Q"/><use transform="matrix(0.07407407407407408,0,0,0.07407407407407408,106.37037037037038,0)" xlink:href="#N"/><use transform="matrix(0.07407407407407408,0,0,0.07407407407407408,121.18518518518519,0)" xlink:href="#R"/></g><g id="H"><use transform="matrix(0.07407407407407408,0,0,0.07407407407407408,0,0)" xlink:href="#aa"/><use transform="matrix(0.07407407407407408,0,0,0.07407407407407408,5.851851851851853,0)" xlink:href="#Z"/><use transform="matrix(0.07407407407407408,0,0,0.07407407407407408,20.666666666666668,0)" xlink:href="#ab"/><use transform="matrix(0.07407407407407408,0,0,0.07407407407407408,34.00000000000001,0)" xlink:href="#ac"/><use transform="matrix(0.07407407407407408,0,0,0.07407407407407408,47.33333333333334,0)" xlink:href="#X"/><use transform="matrix(0.07407407407407408,0,0,0.07407407407407408,62.14814814814816,0)" xlink:href="#Q"/><use transform="matrix(0.07407407407407408,0,0,0.07407407407407408,70.96296296296298,0)" xlink:href="#N"/><use transform="matrix(0.07407407407407408,0,0,0.07407407407407408,85.7777777777778,0)" xlink:href="#R"/></g><g id="I"><use transform="matrix(0.07407407407407408,0,0,0.07407407407407408,0,0)" xlink:href="#U"/><use transform="matrix(0.07407407407407408,0,0,0.07407407407407408,19.185185185185187,0)" xlink:href="#V"/><use transform="matrix(0.07407407407407408,0,0,0.07407407407407408,34,0)" xlink:href="#ac"/><use transform="matrix(0.07407407407407408,0,0,0.07407407407407408,47.33333333333334,0)" xlink:href="#S"/><use transform="matrix(0.07407407407407408,0,0,0.07407407407407408,53.18518518518519,0)" xlink:href="#R"/><use transform="matrix(0.07407407407407408,0,0,0.07407407407407408,68,0)" xlink:href="#T"/><use transform="matrix(0.07407407407407408,0,0,0.07407407407407408,82.81481481481481,0)" xlink:href="#X"/><use transform="matrix(0.07407407407407408,0,0,0.07407407407407408,97.62962962962962,0)" xlink:href="#Q"/><use transform="matrix(0.07407407407407408,0,0,0.07407407407407408,106.44444444444443,0)" xlink:href="#N"/><use transform="matrix(0.07407407407407408,0,0,0.07407407407407408,121.25925925925924,0)" xlink:href="#R"/></g><g id="J"><use transform="matrix(0.07407407407407408,0,0,0.07407407407407408,0,0)" xlink:href="#ab"/><use transform="matrix(0.07407407407407408,0,0,0.07407407407407408,13.333333333333336,0)" xlink:href="#Z"/><use transform="matrix(0.07407407407407408,0,0,0.07407407407407408,28.148148148148152,0)" xlink:href="#R"/><use transform="matrix(0.07407407407407408,0,0,0.07407407407407408,42.96296296296297,0)" xlink:href="#P"/><use transform="matrix(0.07407407407407408,0,0,0.07407407407407408,57.777777777777786,0)" xlink:href="#S"/><use transform="matrix(0.07407407407407408,0,0,0.07407407407407408,63.62962962962964,0)" xlink:href="#W"/><use transform="matrix(0.07407407407407408,0,0,0.07407407407407408,71.03703703703705,0)" xlink:href="#S"/><use transform="matrix(0.07407407407407408,0,0,0.07407407407407408,76.8888888888889,0)" xlink:href="#Z"/><use transform="matrix(0.07407407407407408,0,0,0.07407407407407408,91.70370370370371,0)" xlink:href="#R"/></g><g id="K"><use transform="matrix(0.07407407407407408,0,0,0.07407407407407408,0,0)" xlink:href="#ah"/><use transform="matrix(0.07407407407407408,0,0,0.07407407407407408,14.814814814814817,0)" xlink:href="#O"/><use transform="matrix(0.07407407407407408,0,0,0.07407407407407408,29.629629629629633,0)" xlink:href="#ab"/><use transform="matrix(0.07407407407407408,0,0,0.07407407407407408,42.96296296296297,0)" xlink:href="#V"/><use transform="matrix(0.07407407407407408,0,0,0.07407407407407408,57.777777777777786,0)" xlink:href="#af"/><use transform="matrix(0.07407407407407408,0,0,0.07407407407407408,79.92592592592594,0)" xlink:href="#O"/></g><g id="L"><use transform="matrix(0.07407407407407408,0,0,0.07407407407407408,0,0)" xlink:href="#W"/><use transform="matrix(0.07407407407407408,0,0,0.07407407407407408,7.407407407407408,0)" xlink:href="#Q"/><use transform="matrix(0.07407407407407408,0,0,0.07407407407407408,16.222222222222225,0)" xlink:href="#N"/><use transform="matrix(0.07407407407407408,0,0,0.07407407407407408,31.03703703703704,0)" xlink:href="#O"/></g></defs></g></svg>